<mxfile host="app.diagrams.net" modified="2020-06-30T17:13:10.443Z" agent="5.0 (Macintosh; Intel Mac OS X 10_15_1) AppleWebKit/537.36 (KHTML, like Gecko) Chrome/83.0.4103.116 Safari/537.36" etag="LLy49bgeCGs4L7GbR5sY" version="13.3.5" type="github" pages="11">
  <diagram id="0aloGiby_6SStI5hnPZM" name="01 - opt">
    <mxGraphModel dx="601" dy="296" grid="1" gridSize="10" guides="1" tooltips="1" connect="1" arrows="1" fold="1" page="1" pageScale="1" pageWidth="1920" pageHeight="1200" math="0" shadow="0">
      <root>
        <mxCell id="0" />
        <mxCell id="1" parent="0" />
        <mxCell id="Ep7-reyc38IQqi1uKWZf-4" style="edgeStyle=orthogonalEdgeStyle;rounded=0;orthogonalLoop=1;jettySize=auto;html=1;exitX=0.5;exitY=1;exitDx=0;exitDy=0;entryX=0.5;entryY=0;entryDx=0;entryDy=0;fontSize=22;" edge="1" parent="1" source="Ep7-reyc38IQqi1uKWZf-1" target="Ep7-reyc38IQqi1uKWZf-2">
          <mxGeometry relative="1" as="geometry" />
        </mxCell>
        <mxCell id="Ep7-reyc38IQqi1uKWZf-1" value="Optional App!" style="rounded=0;whiteSpace=wrap;html=1;fillColor=#ffe6cc;strokeColor=#d79b00;fontSize=22;fontStyle=1" vertex="1" parent="1">
          <mxGeometry x="670" y="260" width="300" height="60" as="geometry" />
        </mxCell>
        <mxCell id="Ep7-reyc38IQqi1uKWZf-2" value="Rebuild the Youtube Videos App with Hooks" style="rounded=0;whiteSpace=wrap;html=1;fillColor=#ffe6cc;strokeColor=#d79b00;fontSize=22;" vertex="1" parent="1">
          <mxGeometry x="670" y="340" width="300" height="80" as="geometry" />
        </mxCell>
      </root>
    </mxGraphModel>
  </diagram>
  <diagram id="44hC0pz-Bjtog6nfaldK" name="02 - parts">
    <mxGraphModel dx="567" dy="279" grid="1" gridSize="10" guides="1" tooltips="1" connect="1" arrows="1" fold="1" page="1" pageScale="1" pageWidth="1920" pageHeight="1200" math="0" shadow="0">
      <root>
        <mxCell id="DcG3RG0hzEKghCluoZCG-0" />
        <mxCell id="DcG3RG0hzEKghCluoZCG-1" parent="DcG3RG0hzEKghCluoZCG-0" />
        <mxCell id="DcG3RG0hzEKghCluoZCG-8" style="edgeStyle=orthogonalEdgeStyle;rounded=0;orthogonalLoop=1;jettySize=auto;html=1;exitX=0.5;exitY=1;exitDx=0;exitDy=0;fontSize=22;" edge="1" parent="DcG3RG0hzEKghCluoZCG-1" source="DcG3RG0hzEKghCluoZCG-2" target="DcG3RG0hzEKghCluoZCG-4">
          <mxGeometry relative="1" as="geometry" />
        </mxCell>
        <mxCell id="DcG3RG0hzEKghCluoZCG-9" style="edgeStyle=orthogonalEdgeStyle;rounded=0;orthogonalLoop=1;jettySize=auto;html=1;exitX=0.5;exitY=1;exitDx=0;exitDy=0;fontSize=22;" edge="1" parent="DcG3RG0hzEKghCluoZCG-1" source="DcG3RG0hzEKghCluoZCG-2" target="DcG3RG0hzEKghCluoZCG-6">
          <mxGeometry relative="1" as="geometry" />
        </mxCell>
        <mxCell id="DcG3RG0hzEKghCluoZCG-10" style="edgeStyle=orthogonalEdgeStyle;rounded=0;orthogonalLoop=1;jettySize=auto;html=1;exitX=0.5;exitY=1;exitDx=0;exitDy=0;fontSize=22;" edge="1" parent="DcG3RG0hzEKghCluoZCG-1" source="DcG3RG0hzEKghCluoZCG-2" target="DcG3RG0hzEKghCluoZCG-3">
          <mxGeometry relative="1" as="geometry" />
        </mxCell>
        <mxCell id="DcG3RG0hzEKghCluoZCG-2" value="App" style="rounded=0;whiteSpace=wrap;html=1;fontSize=22;fillColor=#dae8fc;strokeColor=#6c8ebf;" vertex="1" parent="DcG3RG0hzEKghCluoZCG-1">
          <mxGeometry x="790" y="170" width="120" height="60" as="geometry" />
        </mxCell>
        <mxCell id="DcG3RG0hzEKghCluoZCG-3" value="SearchBar" style="rounded=0;whiteSpace=wrap;html=1;fontSize=22;fillColor=#dae8fc;strokeColor=#6c8ebf;" vertex="1" parent="DcG3RG0hzEKghCluoZCG-1">
          <mxGeometry x="620" y="290" width="120" height="60" as="geometry" />
        </mxCell>
        <mxCell id="DcG3RG0hzEKghCluoZCG-7" style="edgeStyle=orthogonalEdgeStyle;rounded=0;orthogonalLoop=1;jettySize=auto;html=1;exitX=0.5;exitY=1;exitDx=0;exitDy=0;entryX=0.5;entryY=0;entryDx=0;entryDy=0;fontSize=22;" edge="1" parent="DcG3RG0hzEKghCluoZCG-1" source="DcG3RG0hzEKghCluoZCG-4" target="DcG3RG0hzEKghCluoZCG-5">
          <mxGeometry relative="1" as="geometry" />
        </mxCell>
        <mxCell id="DcG3RG0hzEKghCluoZCG-4" value="VideoList" style="rounded=0;whiteSpace=wrap;html=1;fontSize=22;fillColor=#d5e8d4;strokeColor=#82b366;" vertex="1" parent="DcG3RG0hzEKghCluoZCG-1">
          <mxGeometry x="790" y="290" width="120" height="60" as="geometry" />
        </mxCell>
        <mxCell id="DcG3RG0hzEKghCluoZCG-5" value="VideoItem" style="rounded=0;whiteSpace=wrap;html=1;fontSize=22;fillColor=#d5e8d4;strokeColor=#82b366;" vertex="1" parent="DcG3RG0hzEKghCluoZCG-1">
          <mxGeometry x="790" y="390" width="120" height="60" as="geometry" />
        </mxCell>
        <mxCell id="DcG3RG0hzEKghCluoZCG-6" value="VideoDetail" style="rounded=0;whiteSpace=wrap;html=1;fontSize=22;fillColor=#d5e8d4;strokeColor=#82b366;" vertex="1" parent="DcG3RG0hzEKghCluoZCG-1">
          <mxGeometry x="960" y="290" width="120" height="60" as="geometry" />
        </mxCell>
      </root>
    </mxGraphModel>
  </diagram>
  <diagram id="vX3OM4P0vGLm70u1a7Kv" name="09 - reuse">
    <mxGraphModel dx="715" dy="352" grid="1" gridSize="10" guides="1" tooltips="1" connect="1" arrows="1" fold="1" page="1" pageScale="1" pageWidth="1920" pageHeight="1200" math="0" shadow="0">
      <root>
        <mxCell id="o8moAHHPPj60j8DVjwNR-0" />
        <mxCell id="o8moAHHPPj60j8DVjwNR-1" parent="o8moAHHPPj60j8DVjwNR-0" />
        <mxCell id="D6Uup0e-u5sNCzEaemKs-0" value="App Component&lt;br style=&quot;font-size: 22px;&quot;&gt;&lt;br style=&quot;font-size: 22px;&quot;&gt;&lt;br style=&quot;font-size: 22px;&quot;&gt;&lt;br style=&quot;font-size: 22px;&quot;&gt;&lt;br style=&quot;font-size: 22px;&quot;&gt;" style="rounded=0;whiteSpace=wrap;html=1;shadow=1;fontSize=22;fontStyle=1;fillColor=#dae8fc;strokeColor=#6c8ebf;" vertex="1" parent="o8moAHHPPj60j8DVjwNR-1">
          <mxGeometry x="640" y="260" width="220" height="140" as="geometry" />
        </mxCell>
        <mxCell id="D6Uup0e-u5sNCzEaemKs-1" value="video fetching logic" style="rounded=0;whiteSpace=wrap;html=1;shadow=1;fontSize=22;fillColor=#ffe6cc;strokeColor=#d79b00;" vertex="1" parent="o8moAHHPPj60j8DVjwNR-1">
          <mxGeometry x="650" y="320" width="200" height="60" as="geometry" />
        </mxCell>
      </root>
    </mxGraphModel>
  </diagram>
  <diagram name="10 - reuse" id="vqLdgcgPV9AzyAq7xRXD">
    <mxGraphModel dx="715" dy="352" grid="1" gridSize="10" guides="1" tooltips="1" connect="1" arrows="1" fold="1" page="1" pageScale="1" pageWidth="1920" pageHeight="1200" math="0" shadow="0">
      <root>
        <mxCell id="iy44oPP573DrapjV5_FE-0" />
        <mxCell id="iy44oPP573DrapjV5_FE-1" parent="iy44oPP573DrapjV5_FE-0" />
        <mxCell id="iy44oPP573DrapjV5_FE-2" value="App Component&lt;br style=&quot;font-size: 22px;&quot;&gt;&lt;br style=&quot;font-size: 22px;&quot;&gt;&lt;br style=&quot;font-size: 22px;&quot;&gt;&lt;br style=&quot;font-size: 22px;&quot;&gt;&lt;br style=&quot;font-size: 22px;&quot;&gt;" style="rounded=0;whiteSpace=wrap;html=1;shadow=1;fontSize=22;fontStyle=1;fillColor=#dae8fc;strokeColor=#6c8ebf;" vertex="1" parent="iy44oPP573DrapjV5_FE-1">
          <mxGeometry x="615" y="260" width="270" height="140" as="geometry" />
        </mxCell>
        <mxCell id="iy44oPP573DrapjV5_FE-3" value="video fetching logic" style="rounded=0;whiteSpace=wrap;html=1;shadow=1;fontSize=22;fillColor=#ffe6cc;strokeColor=#d79b00;" vertex="1" parent="iy44oPP573DrapjV5_FE-1">
          <mxGeometry x="650" y="320" width="200" height="60" as="geometry" />
        </mxCell>
        <mxCell id="iy44oPP573DrapjV5_FE-4" value="Analytics Component&lt;br style=&quot;font-size: 22px&quot;&gt;&lt;br style=&quot;font-size: 22px&quot;&gt;&lt;br style=&quot;font-size: 22px&quot;&gt;&lt;br&gt;&lt;br&gt;" style="rounded=0;whiteSpace=wrap;html=1;shadow=1;fontSize=22;fontStyle=1;fillColor=#dae8fc;strokeColor=#6c8ebf;" vertex="1" parent="iy44oPP573DrapjV5_FE-1">
          <mxGeometry x="900" y="260" width="270" height="140" as="geometry" />
        </mxCell>
        <mxCell id="ZNbzQ8yHR_dce4Kugx---0" value="video fetching logic" style="rounded=0;whiteSpace=wrap;html=1;shadow=1;fontSize=22;fillColor=#ffe6cc;strokeColor=#d79b00;" vertex="1" parent="iy44oPP573DrapjV5_FE-1">
          <mxGeometry x="935" y="320" width="200" height="60" as="geometry" />
        </mxCell>
      </root>
    </mxGraphModel>
  </diagram>
  <diagram name="11 - hook" id="C6N58Sm3MY166ApOAJ-p">
    <mxGraphModel dx="653" dy="321" grid="1" gridSize="10" guides="1" tooltips="1" connect="1" arrows="1" fold="1" page="1" pageScale="1" pageWidth="1920" pageHeight="1200" math="0" shadow="0">
      <root>
        <mxCell id="MXHA2Y4Pfq7AaGpCcC7z-0" />
        <mxCell id="MXHA2Y4Pfq7AaGpCcC7z-1" parent="MXHA2Y4Pfq7AaGpCcC7z-0" />
        <mxCell id="MXHA2Y4Pfq7AaGpCcC7z-2" value="App Component" style="rounded=0;whiteSpace=wrap;html=1;shadow=1;fontSize=22;fontStyle=1;fillColor=#dae8fc;strokeColor=#6c8ebf;" vertex="1" parent="MXHA2Y4Pfq7AaGpCcC7z-1">
          <mxGeometry x="740" y="260" width="150" height="140" as="geometry" />
        </mxCell>
        <mxCell id="MXHA2Y4Pfq7AaGpCcC7z-4" value="Analytics Component" style="rounded=0;whiteSpace=wrap;html=1;shadow=1;fontSize=22;fontStyle=1;fillColor=#dae8fc;strokeColor=#6c8ebf;" vertex="1" parent="MXHA2Y4Pfq7AaGpCcC7z-1">
          <mxGeometry x="1150" y="260" width="150" height="140" as="geometry" />
        </mxCell>
        <mxCell id="MXHA2Y4Pfq7AaGpCcC7z-6" style="edgeStyle=orthogonalEdgeStyle;rounded=0;orthogonalLoop=1;jettySize=auto;html=1;exitX=0;exitY=0.5;exitDx=0;exitDy=0;strokeWidth=1;fontSize=22;" edge="1" parent="MXHA2Y4Pfq7AaGpCcC7z-1" source="MXHA2Y4Pfq7AaGpCcC7z-5" target="MXHA2Y4Pfq7AaGpCcC7z-2">
          <mxGeometry relative="1" as="geometry" />
        </mxCell>
        <mxCell id="MXHA2Y4Pfq7AaGpCcC7z-7" style="edgeStyle=orthogonalEdgeStyle;rounded=0;orthogonalLoop=1;jettySize=auto;html=1;exitX=1;exitY=0.5;exitDx=0;exitDy=0;strokeWidth=1;fontSize=22;" edge="1" parent="MXHA2Y4Pfq7AaGpCcC7z-1" source="MXHA2Y4Pfq7AaGpCcC7z-5" target="MXHA2Y4Pfq7AaGpCcC7z-4">
          <mxGeometry relative="1" as="geometry" />
        </mxCell>
        <mxCell id="MXHA2Y4Pfq7AaGpCcC7z-5" value="Custom Hook&lt;br style=&quot;font-size: 22px&quot;&gt;&lt;br style=&quot;font-size: 22px&quot;&gt;&lt;br style=&quot;font-size: 22px&quot;&gt;&lt;br&gt;&lt;br&gt;" style="rounded=0;whiteSpace=wrap;html=1;shadow=1;fontSize=22;fontStyle=1;fillColor=#d5e8d4;strokeColor=#82b366;" vertex="1" parent="MXHA2Y4Pfq7AaGpCcC7z-1">
          <mxGeometry x="915" y="260" width="210" height="140" as="geometry" />
        </mxCell>
        <mxCell id="MXHA2Y4Pfq7AaGpCcC7z-3" value="video fetching logic" style="rounded=0;whiteSpace=wrap;html=1;shadow=1;fontSize=22;fillColor=#ffe6cc;strokeColor=#d79b00;" vertex="1" parent="MXHA2Y4Pfq7AaGpCcC7z-1">
          <mxGeometry x="920" y="310" width="200" height="40" as="geometry" />
        </mxCell>
      </root>
    </mxGraphModel>
  </diagram>
  <diagram id="owRIlmFay1Ql-1MS50Le" name="03 - custom">
    <mxGraphModel dx="812" dy="399" grid="1" gridSize="10" guides="1" tooltips="1" connect="1" arrows="1" fold="1" page="1" pageScale="1" pageWidth="1920" pageHeight="1200" math="0" shadow="0">
      <root>
        <mxCell id="wnhWTlwjpR1loJEGXNcP-0" />
        <mxCell id="wnhWTlwjpR1loJEGXNcP-1" parent="wnhWTlwjpR1loJEGXNcP-0" />
        <mxCell id="wnhWTlwjpR1loJEGXNcP-2" value="Custom Hooks" style="rounded=0;whiteSpace=wrap;html=1;fontSize=22;shadow=1;fillColor=#dae8fc;strokeColor=#6c8ebf;fontStyle=1" vertex="1" parent="wnhWTlwjpR1loJEGXNcP-1">
          <mxGeometry x="540" y="120" width="520" height="50" as="geometry" />
        </mxCell>
        <mxCell id="wnhWTlwjpR1loJEGXNcP-3" value="Created by extracting hook-related code out of a function component" style="rounded=0;whiteSpace=wrap;html=1;fontSize=16;shadow=1;fontStyle=0;fillColor=#f5f5f5;strokeColor=#666666;fontColor=#333333;" vertex="1" parent="wnhWTlwjpR1loJEGXNcP-1">
          <mxGeometry x="540" y="238" width="520" height="50" as="geometry" />
        </mxCell>
        <mxCell id="wnhWTlwjpR1loJEGXNcP-4" value="Best way to create reusable code in a React project (besides components!)" style="rounded=0;whiteSpace=wrap;html=1;fontSize=16;shadow=1;fontStyle=0;fillColor=#f5f5f5;strokeColor=#666666;fontColor=#333333;" vertex="1" parent="wnhWTlwjpR1loJEGXNcP-1">
          <mxGeometry x="540" y="180" width="520" height="50" as="geometry" />
        </mxCell>
        <mxCell id="wnhWTlwjpR1loJEGXNcP-5" value="Each custom hook should have &lt;i&gt;one purpose&lt;/i&gt;" style="rounded=0;whiteSpace=wrap;html=1;fontSize=16;shadow=1;fontStyle=0;fillColor=#f5f5f5;strokeColor=#666666;fontColor=#333333;" vertex="1" parent="wnhWTlwjpR1loJEGXNcP-1">
          <mxGeometry x="540" y="354" width="520" height="50" as="geometry" />
        </mxCell>
        <mxCell id="wnhWTlwjpR1loJEGXNcP-6" value="Kind of an art form!" style="rounded=0;whiteSpace=wrap;html=1;fontSize=16;shadow=1;fontStyle=0;fillColor=#f5f5f5;strokeColor=#666666;fontColor=#333333;" vertex="1" parent="wnhWTlwjpR1loJEGXNcP-1">
          <mxGeometry x="540" y="412" width="520" height="50" as="geometry" />
        </mxCell>
        <mxCell id="Ofjvn1SzNkdvtWvDjNwi-0" value="Data-fetching is a great thing to try to make reusable" style="rounded=0;whiteSpace=wrap;html=1;fontSize=16;shadow=1;fontStyle=0;fillColor=#f5f5f5;strokeColor=#666666;fontColor=#333333;" vertex="1" parent="wnhWTlwjpR1loJEGXNcP-1">
          <mxGeometry x="540" y="470" width="520" height="50" as="geometry" />
        </mxCell>
        <mxCell id="u7va7MZAnJJEdShnZoen-0" value="Custom hooks &lt;i&gt;always&lt;/i&gt;&amp;nbsp;make use of at least one primitive hook internally" style="rounded=0;whiteSpace=wrap;html=1;fontSize=16;shadow=1;fontStyle=0;fillColor=#f5f5f5;strokeColor=#666666;fontColor=#333333;" vertex="1" parent="wnhWTlwjpR1loJEGXNcP-1">
          <mxGeometry x="540" y="296" width="520" height="50" as="geometry" />
        </mxCell>
      </root>
    </mxGraphModel>
  </diagram>
  <diagram id="bai2kqOiU4lJP_1xm9Az" name="06 - path">
    <mxGraphModel dx="601" dy="296" grid="1" gridSize="10" guides="1" tooltips="1" connect="1" arrows="1" fold="1" page="1" pageScale="1" pageWidth="1920" pageHeight="1200" math="0" shadow="0">
      <root>
        <mxCell id="RNhHkESXg4m0aKg0suUr-0" />
        <mxCell id="RNhHkESXg4m0aKg0suUr-1" parent="RNhHkESXg4m0aKg0suUr-0" />
        <mxCell id="sehXOKkeeMNQkeqoY8RV-0" value="Identify each line of code related to some single purpose" style="rounded=0;whiteSpace=wrap;html=1;shadow=1;fillColor=#f5f5f5;fontSize=15;strokeColor=#666666;fontColor=#333333;" vertex="1" parent="RNhHkESXg4m0aKg0suUr-1">
          <mxGeometry x="600" y="260" width="410" height="40" as="geometry" />
        </mxCell>
        <mxCell id="sehXOKkeeMNQkeqoY8RV-1" value="Identify the &lt;i&gt;inputs &lt;/i&gt;to that code" style="rounded=0;whiteSpace=wrap;html=1;shadow=1;fillColor=#f5f5f5;fontSize=15;strokeColor=#666666;fontColor=#333333;" vertex="1" parent="RNhHkESXg4m0aKg0suUr-1">
          <mxGeometry x="600" y="310" width="410" height="40" as="geometry" />
        </mxCell>
        <mxCell id="sehXOKkeeMNQkeqoY8RV-2" value="Identify the &lt;i&gt;outputs&lt;/i&gt;&amp;nbsp;to that code" style="rounded=0;whiteSpace=wrap;html=1;shadow=1;fillColor=#f5f5f5;fontSize=15;strokeColor=#666666;fontColor=#333333;" vertex="1" parent="RNhHkESXg4m0aKg0suUr-1">
          <mxGeometry x="600" y="360" width="410" height="40" as="geometry" />
        </mxCell>
        <mxCell id="sehXOKkeeMNQkeqoY8RV-3" value="Extract all of the code into a separate function, receiving the inputs as arguments, and returning the outputs" style="rounded=0;whiteSpace=wrap;html=1;shadow=1;fillColor=#f5f5f5;fontSize=15;strokeColor=#666666;fontColor=#333333;" vertex="1" parent="RNhHkESXg4m0aKg0suUr-1">
          <mxGeometry x="600" y="410" width="410" height="40" as="geometry" />
        </mxCell>
        <mxCell id="sehXOKkeeMNQkeqoY8RV-4" value="" style="endArrow=classic;html=1;fontSize=15;" edge="1" parent="RNhHkESXg4m0aKg0suUr-1">
          <mxGeometry width="50" height="50" relative="1" as="geometry">
            <mxPoint x="590" y="260" as="sourcePoint" />
            <mxPoint x="590" y="450" as="targetPoint" />
          </mxGeometry>
        </mxCell>
        <mxCell id="sehXOKkeeMNQkeqoY8RV-5" value="Process For Creating Reusable Hooks" style="text;html=1;strokeColor=none;fillColor=none;align=center;verticalAlign=middle;whiteSpace=wrap;rounded=0;shadow=1;fontSize=17;fontStyle=1" vertex="1" parent="RNhHkESXg4m0aKg0suUr-1">
          <mxGeometry x="717.5" y="228" width="175" height="20" as="geometry" />
        </mxCell>
      </root>
    </mxGraphModel>
  </diagram>
  <diagram id="CXDA5iy3RMSTZy4j65us" name="04 - custom">
    <mxGraphModel dx="1306" dy="643" grid="1" gridSize="10" guides="1" tooltips="1" connect="1" arrows="1" fold="1" page="1" pageScale="1" pageWidth="1920" pageHeight="1200" math="0" shadow="0">
      <root>
        <mxCell id="MtbFZLAjJCo8aDqhIow3-0" />
        <mxCell id="MtbFZLAjJCo8aDqhIow3-1" parent="MtbFZLAjJCo8aDqhIow3-0" />
        <mxCell id="5vBisK9FL0qeisiTuJpV-1" value="" style="shape=image;verticalLabelPosition=bottom;labelBackgroundColor=#ffffff;verticalAlign=top;aspect=fixed;imageAspect=0;image=data:image/png,iVBORw0KGgoAAAANSUhEUgAABDIAAANUCAMAAAB2ff3bAAAAclBMVEUAIkBCZXyfrLddcYcgQVn/7oA6UmX///+d/v4PMUvm6e309vdFhJSN5+t7zdUnWW+ImKZzhpY62QDX3OG+x89qt8GwusRYnbDJ0Nfo23pyfl3HwXKkpWkqphIegR4QVS5/Wr02zQQxvQr7ft+/aLm41PQPcWCSAABpkElEQVR42uydYZeqLBeGVQnaMpUuHbP06/n/f/EFBUTT1Gl63qbua62zTpmROnK52aAEZ83xnxQAADCL/HdsZRGcv89H+AIAsGyNY6uM8z8cCgDAGv5pZcAYAIDVzgiO7YuUBwAAMAtPW1UcA53HyCEMAMCSNHKdzwi0OGAMAMCyM7QttDJSHAsAwDKpUQaCDADAyjBDKwNHAgCwBigDAABlAACgDAAAlAEAgDIAAFAGAABAGQAAKAMAAGUAAKAMAACUAQCAMgAAAMoAAEAZAAAoAwAAZQAAoAwAAJQBAABQBgAAygAAQBkAACgDAABlAACgDAAAgDIAAFAGAADKAABAGQAAKAMAAGUAAACUAQCAMgAAUAYAAMoAAEAZAAAoAwAAoAwAAJQBAIAyAABQBgAAygAAQBkAAABlAACgDAAAlPHLhDOvfxMKY8JJBqCMdyASsXsdi/IZP8FKIQTDSQagjDegFHlfmSkXxe9HA6pUGaWIMgCU8W7GCAKqRPHrvxGLBCEGgDKeDYVh+PQfyca1mRKR/vaPpM9p7gDwScogvnThjYUQ/MlbwYUIlxc97iUoA0AZD3LZXRfWKIQQ6ZO3IhHRREyQbJPfioZJhRMMQBlPVgYpYYj8uRsRCnFb4Ul6XSjLsDxa/pkEJxiAMp6sjFhU7Nk9k+VkiyHalAFNhciWrIIhcuDDlcGbenepr9S/v+wujU088PoakF6jYf4Ku7oxlmB1Xe9UAYrrneqcBrlrmcRFFvAokZVdkBZhEJcyKeOf7zMTIp6OPdgm7yxFJTQVzADwOcq47jouRhKNfq3+Xe3HDVcKUUsu1H9BvzcL+M4xqwySggd9yyQTZSxEIoQobUXNIiH1guzH+xzPVGWxqWWiky7h0sFFJyv4YGUoQzQsIN5cyArhSgE1VgBX5Q8dYHC7gLcrBMTr2viASDVMiIjuVOek7b1gVhlSRBRQZBVRqgXqFatmu1Vix1yFVoVOLp/vZ+XxFLmQfCHKgDLA5yqDudigq/Bk0xLN7mIV0rQvavP/1XywJZdRttU2sTFEZntPKhN4lObSTlJEs3tkyGfTENNpyXyuSL0Z09wbq8VKpD/BJyujce0N1+ogG0zwgSGaXT1cY70y2naJzkRWtq4mrtLyThmuhTIdKlDkSGe1VM20NObyn3E0TSLymYCJV4kQSYgTDHyuMi4mdugVYpobgQk/bpShXHK5blNG3CnCZSKdMuxIq9JGAtnPc4vljBrKzYPGuZwbesGFEBL3l4BPVsY4Z1k7hRiZ3Cijy5c2V1qvDGsEaVomThm2l8MpI/55oiCaabJUItpaVDmXUiEepgmGcoEPVgYbK6OPOupOEbfKCJjuZB188b4y3HAq23ZwyiCT/3TKCGcra89sZmJr+tMv1Of+4AyO9Cf4YGXQvDJmo4y23mhrNCuVoTwgO0xt86OMbF2UsZz+jGf2V87W/3Qu/Xl/aPvzb5YB4J1yGf2aO75OGZFXGbMf5jKko5q/+vPpxbPdsnISsdCSQZQBPlkZ9Y0ILsMmy6wy/ADlvjKkiE3Ib3ovnDJsUOGU8UgPZj4ZHGy9L40nC+lShtGf4JOVcR21TFxyox+XMaMMPw1Sj2KVcbuE+sYDdWmHbkllkhs2yUHygdtds0k5bHxiBpezPawubJE4wcDnKkPV9q7L9FqTVQX3VXKjjKYbWU61Nz6j6V5Ppya9G8Oo6yHJhGifnpUKlxcVJQUBFY8E/TQ1NHzjLSY8EUvP3IqffUcuAC+tDNbdU+Z6QPT72ktujpXB9N0mdVMPukyovU9tJtZIvPxj92S9TEgp8iLx7jFRr6tCPnKPiTaQHFf3rY/lmijiNpgpcIKBD1aGDht0l2nNB+/daK2JcRn1bvgFI5qJIV431/kuvZmJhBVCiMRW51JEPBFC5PFDu3070LPcOogi48tWwVO5wGcr4/Y5fMQXEnyMM7opg6/OCrZZB/9H2/Qn44+mFdk4plgRNGwGT+UCUMZ/zU2istw+QnMuFZEOjfH7Qyi4EBFHNyuAMt5BGdoZmRcPJM8YdBULITA0A0AZb6GMgJV964bK51RslpUFlAGgjLdQBgDg/ZQRj5/jHVUZ/mgAQBkAACgDAABlAACgDBwIAACUAQCAMgAAUAYAAMoAAEAZAAAoAwcCAABlAACgDAAAlAHACmjTY0045oSAMhRhnudVnqf42607WpU+XG9ytKjyHreYdbsWz+4qkzkeVgJlmEddiftP4mVp+EdreMqfcrTe4yEjLPf/7JE3q970rkaL80aAz1BGwhV3z4V8agrFOH/5OQJITE3KlD4QJJA+Vm/yXCJKBheKSJR65+jOrsIZUEanjMV1ppXxQrtJYdifyyy0MRGbVEb06Hwo0X+ujNPX+Sv87do6mklicq9GC0tMJfP+yiDGH1cGT+Pg9ZTBwv6K6M8PGfWzqk02TP6cMk7Hfcvh1O/7aSEVSafTQqnZaN6INcrYOqEV+IPKcBMoPaKMuWb9/9cYfuhTepMvLp3Wf00ZJ2WL4/n8fdjvz3bf9/sFI3zvvxcPXxxsVUYQCsFRy6GMN1BG3M9WwJcmLvhjyqDD/tiGFHR2YYZSBntQGel4IqlVyggKgedLQxnvoAySInN1IQ/eSRmnPqJwjZFfiDLkeBbedcqIhcTojBdWBl3ry+7SuJpBTb271G7+1WvNA97oNdxfkesv1PYbTV3raZ41K5VRFvZEYkU3ZYj6X+MFsZRWIim5p4ywTEQeMX8NKYu0P7fiIhGyijbEtCzNpciLrC8jKxNZ2TLjoqiEqAoFNy0Te9HMTbsk7jbc+00W5WozyVPGoEx9+NQaSdnvK2WVFEmRsl9TBjsemUlQHO2is2pyHL6/+s04qUbI4dv8aLjfDyvp1/F4VE0VjVnldD7qIs52PfWJKkCvcJ4ucxCWbVIGDdszhB6Ul1JGN0WznrjZvNdzv+u35u9U765XsySwS9T7foH9/u5OqDFURp86TM1y3nXP9+kBqoQQiZCl2820XSCkPZd4IoSUQriRP4V6n6gF6y/voVo7SYQQ0vR+UDkoMxUONqwCzL7Iuo/7ESVms5LKbsaoTFWIbHdE2FmcmP5GMtz9B5Vxsk0KZYI+VXE4+NnNs36j/oX2869BEee9w2z40XzBhB7Ur3AOJssc5Ig3KSOo/CWZxNTar6QMUgEDp4BdL419r2XBL/2U8JfdlfT/O25aIbtrG5yYmeCJSC0izUplcBft24t1wBS5V2eK1g0scruZCplRQJEwGXiSIleFhIk9K7POJixO0rX7LkXJgoB4lJD91SQMAlaZMomICxH2e+ZaJpn9VWKMcU8ZJIWe9pHnzlyjMnVuT/0qxW78UtHuSMDS4Qyzd5TBY8f09ZeNlUGHvb72k4oCzK58KUdQQN92zUP73jsviHRjxfurnr70micVRrg1vvdH/+8+LnOiu3SlMgZf1DpFOvR1lKGMQKO0RPuedWJoVdG+ILug3jWP5jJsdwMfnAueMriNTCOzm66y2sxYapq7bs1i86WoT2GSq83tAkpcXMyGZ6s9lSs/IiBPGZktIjdr3pRpww+7Zt/ep7UNEy/6iddFGW6B/RGyUYVNR7C20XEaiWcilxF6SdFhLuOmzGGwsEUZg1RRgklyX0kZzgyWnRVCbdodjV1wccqoH1WGbY8Mk4ieMiK7vs1luDV5t6AfI1GYT4pxcn65XeI3KAZneJ/oHykjFoL8dsmNMtxYx8jJZVimC0nsHgxGe6xTRhw5+GplhKN2x8Gtavbiux2VcWa3scowLPWKGirjtszbnuiVysiE9HY3QQfKCylDNSnYSCHcfTIMKqwy1Ac1f0wZtiLmg4S6pwx3X4JVhut2o662MldN7dmVCVFsC19JCpnRoKESW5kk08qgbpVsoDpPGeRun7DKGJeZddIJ+nGRhRAR26SM5QvBRMNk2O5wlZ16L7CvNlXxdT/KCLw1hsq4LVP+XBli0EhCnX8pZQyDdacQnZ8YRBm1jUcanels+APKMIH98GLtK8Oda1YZiShN61229bMf7eNSkqXOj0Zbbm3jOllaZazXQ9r9Rl+v/8femW03CsMAFINrIkgIHAghy0P//yvH8r6QBNq0TTvWw0ygIGxjX2R5UYAM/pBRtPJ2HhnWraGQEelszfdT+wZpz1PRRzNIn+/+3DRbU9y7zYFI8biwPzrMCK0M2B4aAZUbVkass/94x6RKzfxFkXENGrsGhYAHm0dGxsQgyen8cWTI4PCt7x2zyLAfa42MsvT778YTgFeo1kYGREBVrLAzWjFSoT7yzH0InUdGgS0efNQ5yLAkU8iIdI7OaJGGR4fDQ+XEFiMDjCy0MsQULWztB9CmghVvqAR9GjBrZWwROofD4aaVEeuM/UsLkZGv7mUm+UFkUP/XDDJwlAFNjfOHkQGiafW+986xMsoZK6PTQl3bwhv7hyKvy3JVmHmG7bUHbRGYh9ywMgCNnMIfO3xkZXg6jZfG+YXjPDhEvHTEZL37U3U8ms1GjZhwi2CrhYb3kjkrg6uSUzLuWRmBzrjlL0TGkIZVX7ljAgt9GRffUQoX26dZP/sTTXsazPFzkGEcXhoZoe+dOb4MryDo5HrOFkmnAAUzLTBERoYLtUe/i+4gw66pUMiIdNrkBms8WV0OS5FRGyFLrQxjKcjvf2MnU8Tuze2cldFsmge+jFhnF72LhchIC9NeFxnMIEJVmDfrsThlN62MwHMaekQeIwNPtEFNcZAx6c+TRkY4Kch2XcbgL4XbyJdt26OdrX1cUSNk8IRDXdLspvuz9d2foU6bvHAcIPfb13N9GY4lIP4/agDM4YbMIcPM2LozYtLEpVd8BBnEH5EqujTG+jrIyE7BkKkmBdh5GQEyIDZQWDDu8hgZUJesD8Y4ndbV6YY1qGyysPJpUpgJG5DFHRVa3u2mQGDThCu1PTTZhLcxvohNlsworcz0i0Cnfphxe8BMRyX79IiJsARw4NTPqkZGOOpKzTzwo53C4bk59J3UOWuGVWd1znUwliHD79CMZXKGvhIyeGu/iKkG17PumVxlt8PM/vSRASc5lZyebG8E1GwOuhgZ+BUOzznIgLqceKrAzv4clV+zmEAzBOsZcC1yBWYlV6uwymnQOJ379vKxru60a6DQzVlMxIR2dBIlHuiugA9mdnvIIDJZ1M7+DHV28mlMz+BgdS4yUNR+w/nUsrSNaN+Ac7xlh2S31Twg2kDYiV9ELGCFHT8UP44bazk0cnUrVQfCLbp3VsejEYNK9BoQX6csjpquRwat3e8D+DPyk/w0MtBYeBMLy07m+HTFdWcsm/VlMLz0cr28mSucm2AxMojX8kjFpS5r/m+ubYV6zKu61dnkbCj7cbLeTd70qnGoxXTsTK0XGcbJ8yIWd/cbHRAo41DZa3CBSD/2tdMbYUKt46gtvLmILSYcV6pUlZmuWuVj3ZtlaZHOUWSkLCe7kKUf+ROUE/YpyDjiEjTegrcKGY0c7dhZHiBOdmLQVMCEiPUnjbgOHLNhhzcRZV1sDkdOkaMCg9LbHIyXI9Apy3haj4zgpioh47WQEQ2ZyuMLZNmNjsn1JBahXd3vx/kUnbqPDKwIftsuvS2FiZitwKjNphwQnUzlwXUcZT3oR0KOx2XtTYjs73ZMCBKIP8VeArlYpTa6IwW9/1hc3OLWdiOdk8wRCuPMjHR2lZhBYnp1o8hY1S6eML6MGbyFU9AdEyL33GqcnoacuNUodwUc5RU7t3Hu5SXEOThC1lgXB8jVa6ZX4+uUHbRuLTLCvhx+PlKjfyVk4IsNgkcw+vAGOnNq6bK0ZQJRRAsIngqMBcckSEP1aHUCJWFOaLT9JWXrYmvQ6PJQ50xG6MMO/srSi/bYo/twXz7Y0+AKOqMGouvpnZtCncGs/AXIIHU8yNSmRv9iyPhyKcp64vLdb57+zp39CZbVX1lYUXjMyMuK581ujBJnlUTb8oxpVdp/iYzHcUy+QLrfuWr6T8UxQb8uCztyt+OY0DqaHJO2y/gfkSHCVTD23R+LXzrv+IdK68uMptbr5MVxTLysRjNpWNot439Exg9JVRapEH67dGm9SUJGkiRrjK5UBAkZSZIkSchIkiRJQkaSJEkSMpIkSZKQkSRJkiQJGUmSJEnISJIkSUJGkiRJEjKSJEmSkJEkSZKEjCRJkiRJyEiSJElCRpIkf1PIi6r7fcggfd9Pfd+mOpUkqBgT1oy/UjHy5+62UDxtc6G0K9fXCXRdWmy9osm37BkV449sQDaW/VP3RYK+HOC/RUa1Zp8pNgr5ov1xin64952Y2ZOcVtMLbwwFsrS+6Et9N+8wG5WoXW41iF25xj+CjDXEgIK8k/fCFi2TJ4J9pKdy+H+RserbJb897VclBouOEqejyAi7hwz46b3kaNG2Bbvdbsu7MZ4+BySRdyDOJum26OgsMvKV9Tz/dmRQcjySZ2+U2JXVcpX0XYitg0SeCDTAk6LTvhwygLKnIkN8e/rVhUUJLEeGt1t+byottDMdE/rNyADmRz8cJRTqGzFZsLTy1cgIQzrcKlSJjNp5G86zZjsmr44MetjImC02qstMPIawiu8fmcarAjQBUAAXGXiCRshYqfX3IGN95PcFMq1FxtKGrUJDOwENH90J3xyuq/Bi/VCMt5a3GCFpusnEdjUy8mWuJZV3N1r2oy/fiyMDdpwWxyPGjmtsrNrt/Zu2YUDsSD4QRcJFhjpB4xdbJWS8CDKcsMndg+R9t5XhI2MsK/n0rr7t3fkyZKi8O9Gx2aO4Ii+OjMNmJ9O/tWbG55FByhI+iwyYQQbUzxiFSch4BjKIvXx6UGd/Fhn1vSCRH0fGuAoZYFPx8FEvjgwbMta28c8jY/zAeOASK2N1aX4DMuCMQZuvpk3A9fJ2upgQrecLy9gVrzAFzPCGi77jKoJAX1CWI6MYqrKenPip0A51PXR3kEHGquxzp0gp3qLPFMOAoZEHLuyWTminshqZQoa1rw0RBiG5l06uoaC2YxKlUyZrTb8lyjvNe54urSIfBowbj6JTF39murGqJzeKa9iOfZ3isSM/o1POlVf8iEt7U6ef99HEBtBOpkIWF/Mf2ufgVPJQJxPJKp6IjIMKGQtNo+oGbJvdZtccbVXZ807I7qCOqQxXb2XfYPjqHf9Xh6ylqMHekR0bPMYLmnmd8VtivPFT4jg4C02D93dYY2Xgp809SeHHkUFF1GYM3KyOMbI7Hqp0Xt7OZ3Um02f4sT2h73+7Y2qEyBjKsq4whrKuW5S3krrG+Me3kIER0quytLY5qUtnYKW18ZTpDZ0wCRX1qIrOePFM6qTGya3M4qGjsTKidKpkLTEEbuW9qKWKVudbS69TFX6/YJSpcMb0AmQEOuUtJT5V3AO2tPJbOoO8m54J1T86qcDWegxyz1VUZmQw0qmTNT4vyL22GWCjokuDCGKP7k1tOBzVCaItioOPjI0RYkwKT0NjLthl8zqxeMC3FxiTYyDv5kSEhWKJlZF5MBpvOsG/DRnADQYGGT2frvoYYcFOGgBXjosz4P9vTPVCRAh4OKtg8QDATwHKUmR0suXTompNhw1H/4nrQvKR0fKiggzyUkcF5/DFW1hbE5UKdC47qYh0DuKpNNdFZ/A96CsoFzfCGgYQhox2pmFEOjkxZLIWdzijvPNk51xFp1UAAL/GKU+uPKcBdSqeHjo5mPCREeoUIOpoRotp0g8Zy8F9aaHOMO+mZ9LpK4BS6jr0+RXodGG9oWGok5f4SDMogrlbd5BBCyNsITKazQ5/0ONubwCwhQwOmw3Vrf3glicWAu+YOGVBt0JDo+8AAK7ELa1QJ75Wv8YrA4NoCswhY5GV4XmbGYL/h5HBiQCBW0IcUwkGgQrxA/SJy9v1s76MIfxuarew61nzkGEqrGnevW7acMPjEOpkuv3kuugqqdOfddFaZIAmQ6GvCHWascdxsSshyvukTnRWhe/LwOZejwVEpio40eB8ZEQ6bTBlmHd/hjrjvI8KBP57cZDRaRW9ujJKpzY/Ot/WvoMMEptDj5BhbANtXOoTB2VdABoNB39AftaXAdZQCXwZkc5oYONdIyL8/x4y5q2M3g1ZW5YfGkF5IjIMGbS8aSBcVL/jqk+cDDIun0fGdMMrPNj66FVN0yKYyncReyR9ZEQ6zQiJ9mXokK1+4hwrwzxDa450dtocXT58Hubd2DpcOZlHBnTYo6jHyFvr4M1DRqyzin1oPjJCnVHetelNvebuIqPSCnMDF18nc4y1dhkyWG6kWIyMo3fBUfcm9rrVo8mA1Ng/QAY3WI7zyIh1jsFrLd4LHwsftzIG9921ZV38LDJ4l4IGCGHmL75RoZHB/3Bhn0MGb2mu18wxLlpbjz1kGOMC1KV5DFsfGZHOXqs2yFAty5+v7DXDymgmszptRVnszQjzbgd4J6MitHI5NISHIwfl3Ch0BqpZZEQ651yovos/1BnlXfOy88wZBxlgikAjI9RpAOu3gif7MrgNcXTrtDEEwPQi0EMqoAGPkHGYR0ascwyYbGhwDxnLfBm+avhp96cGg2loBiHon/CsjIu2R67o6byyTyAjQ19cZYcZeCP+x96ZbjeKA1HYgBpZrPbBAOnkx7z/U44ktC7YxiEznc79Zk66TaBAGF1KpSq1GrA673hPMio6qT3UezORfO9LRmTTvNmMZKiRSe35K84VmNEGsSFA3+Ziut3ziTxB23M6KJu2wUVivEqularrI5Re1iNsH/QlI7KZJWaJPS8jshm1XWvMzXMQHMmwjpaSjMjmxTTLz1X9ivDn3Fs1GLMVvYeKV/D9xi3JaMZOxj83JCO2GWbfFs9IxnNexnLAHPSBkvERdHYtFFI8yrRknEo5SfL2+3XJOGU34WtXhZ120FRJyXB2WF9diS5KgpiEb9O+BK1kyGc786/N8TIGE/lXlqPrtFcxPD977rf9RuPhepEMcYn5h0KFwKLpIU8yIptFIvvKk4zI5hK2XV0V8y05kmFlSUlGZNMGfC5eA+9JBjM8Kxm8e0sXouv1DhZPF0TwMktKRi+nVMex3ZKM2GboGP7zimScHoY//0zJIP7fEpIh6hOEq/H7dckQpXx5TU0Qnl41xZaXYfYg3jBjSzIimzT2MmTGXh6G75co7KCd88imvYphz6vAbftEB2MzuysZOgQg3t7mkKSXEdksnvEyPJtR21VgpPDfpo+8DM+mHUzmQfjoyPDnOvAQZSS99ggaDQnDm3NKMoieUunueBmBzSLojwd6GTW9/kmSYb2Kh7GMdz9Qyt7tmObF7E+yqK6RpVKQPcmInLPEFIUvGZFN4xE4364I5Vd+b3K8jDx0ziObdphZ73wVmLancimvGxNp6tWfmtH1zEQ2y0exDBbukMcDExn0mfx2OpJh4yVKMiKbV3Pjn45lZLXhskMy1sBkF8Yw41hFl5KM+dyy+7GM2GYZiPJxsYxDCtMOlIzSSIR6BH7ZiMXbadPLCCKnYUTkSckwLz+SuiueZESFmheToLEhGZHNRWuBIxk5ncrg0nI3/KlCBWTrOnPdt734YvHMKj2FjY+w+HdpyVCVdKkaX08lIpsssZKAP2MS2ozavn6LrKbktBn+vPjhz9Cm9XX8YeWxsYxwVmM+d9vHJr0MoySbkpGwGTT2OC/Dn74l14L9v5JxegumTLVSMJuXEUgGix2UMph3eSQZzD5DZMtn8BMYotckqaPnjPmzFqHNq0kLt7cuo3X4vDpeRukMnLKkTXNZF1o5CQ/3ps7DtrNEVMaLVrILcSK6ygkhsWPinDO2mceH+I9iaDNu+zowCm6AO8k6KYOkMukXddrRC6Kxn5IMHW+YTfjTzGq02t3wOiYz8ymZDW50bkaoPpI5sYzeTrckbJ6i0saEl7H+mXleRhF6GeWDUEb12tp2R0oG7+3vcrr947cemXysww6T/elLBntbU8nJmx2NMJXNQZ6TDFbd1uSqyvF+ZQ4xya+hH8HM8yhvb6Hrvy/qpZbZRaOGtTi8TNsUmZv8M8vdWyeyl8stL+O00Lpce41NUvCvU1WZFq5a1fROLmjc9kI1pHSKY9TIvVxPUa/hm2tNB6auepClYpfJVZnC3q3IJqmpPITYQ/QR5JS0GbVdTfZcNiUjW6+a2OzP0KbKRi0r/7H/XI3JOoqYdeyiP89M6cFs9pDXmK2l7iMXCvlgccehZcZtkIqwFnA0qyCIlK8ujHuQpM14GBZ5GcWaOZ65y+hkTr2J2vmfxOuDBLEd9v9KhnAWfsnCsjfz+e1D1J2Vp2QsoxS7vn+8/zJ7OAexpyRDVIdUt0kkNRqft6b1Mg2U2pc1qSldbrV6uNiN0mFaTNRwrV9YxIbceTNys4P+6kKbhUiHyqv64tw6zyMgFYcfxH+uslFWtL7lA73aWYPApugf8nPuuqh3Cl8TbRfXIKrEnPH9RTT2VknNLEVKRn0TLdWrPolijmEaavc8/KzDraq2bGaV2FI5pxXe1sLv6JC2Gbd9XanTKWsRt4tb5Zi02iqf6sGUpUXXOckvkZ+XHCYZokJEzG007SoZsvhjdBfDEF2/lZOm0qfoxXxK28mf5jLEzGw3qhCF/DBzVWj89E9phKRsxkPlyMsQy3AVXCNKRzKYKEFxXQ25k+dqBMtykT9BMqIp0/XzOzudNgYmH2+yCO3D/dp/v0Wb7g1M8kGuMuVUc5brzKNbnFnKnW72CZU1Y9YhLOTvB0fbs8HbJbQpfz2UxLl1mfvaJNFUL1nW6VAbIo2uMxeXVV39IfudMoBE2+OGnGS+pyjIkB8W+amyIRImz1pPbl2vXLrLFoCFNskkU0idahUm54xr3ZTQZtx24ah52R+Gq/MVTawwX1p0nVd5t3J2OkwyZA2ZmFHt1MCEjDKjop3tSZrWnXU9NWvORds4l7Gu1KUW0Fg/dITrzxwYMdUpgc0wpht5GadSLdTnxiuIW7hmd8rc4fUS3KuXauEPXy+DlP53+HBdXxLvwTc9XZZ2kmvVhfuHVyFW5vM2sfCsrCwjG/6WwCYr9yo0S7WU3f18fbRidtz2uCFB24M7IbdE4V9/PebEzYkOKf0twQ6sJJ99kuKTJox+dr0M0gcnZX24Lh8LNpA+PMY/SO/vpYOQ3vvaIpuPEihI4nYyEj4K3ucoyn97bf7kOy4XXC/LslxOP4Hp0apVwHp54rGo/pIVxsvq6BWuL844UgfKXloWGv+OyR9NddBC8j+Bv+vfMSmrA7KufOc8UIySvnaG7ycZcsnwsvwRL1/yH68t/K35yx4MMh3672axKbwxYiWVnyEZP+vFOeAmgK8a9L429IFkAPBD3bLXDoNkAAAgGQAASAYAAJIBAIBkAAAgGQAAAMkAAEAyAACQDAAAJAMAAMkAAEAyAAAAkgEAgGQAACAZAABIBgAAkgEAgGQAAAAkAwAAyQAAQDIAAJAMAAAkAwAAyQAAAEgGAACSAQCAZAAAIBkAAEgGAACSAQAAkAwAACQDAADJAABAMgAAkAwAACQDAAAgGQAASAYAAJIBAIBkAAAgGQAASAYAAEAyAACQDAAAJAMAAMkAAEAyAACQDAAAgGQAACAZAABIBgAAkgEAgGQAACAZAADwcySjDDdkG38/EpYVDA8ZgGR8Qwqa+xtyWji/nL7inGSilBI8ZACS8f240tp3MyY62M7MBno73hvgVuv8Ai8DQDK+mH7s2rZrbI/OxrZtx4Z9lWLw3r3Q2xc4NhVcDADJOPQ93PeZ/t9snM8rZku3fm5fl4yS0iyQkKA3s4pejm7d5WuGOwD8XMnoz4bZuBT87/2JZI0jIQ05keb5ECXp2X09iCQkuenzgyFIBoBkHC0Z3bj+ZxRiPLf+Tu153GeVOB6KJKeDv0cVxkKlT1DtdJEeD0wWPGAAknGwZESj/dY6HGvPDAXgGcnwrLI6cCAySuP+zvcq9pxlWh5pRrZXhACAZHxeMsgrktEHgYugtydHDPmuCGhG6aNhB0GKHIBk3OtEnRpANJ3u9P3YiqFHY3dq+JZuZp+RDN+E2GPuxFmIOnknPgm06SEYhhBKi7QI7JnguNLE6Mb3W1LODACQDN2VdRBiPnd6y/nctuKH6otsFB/s51Ay+nmeeX/nP+dVJrJ55oeMYsOGCb5P60ZQZxtRJabnZkGMId2V6b6RyYU+mmRBHheAZOyRDC4Iwhlgfack5NSdWy4FpNN7hpKR2f6+9vLRbmBpE+KYTmyZ10MYY9xqz//QslBSWgb+QZ1swPY8KytSTA80hkEyACRjj2Q04dyHVgjWKkUIJYP0fd+eR/5TTZPyDVwSGrFhwwQfyChBYhtDmWjAsTU3MmyONEpKN7gzMUsmhD8BJGOPZMzGNTBOxhj5Id1K/2QsIzLRxNHRYMbkGjZv2pj8vG3GP0meZgiTSq3ILBWlVYYHDEAydg1M2swVDe4vaF+h1Xt445DHkhGZmENXJvIyEpKRloZpd9I4G7ZywoVfUqO+BEAy9kiGDH+eR6MavCs3maRR/geXjKzv7TjkoWTEJjp9sk0vI4p2RpldiuXRFEjMdSsEysrsUiGVC0AydknGiYxyNkMVlDnp4apT707lik0kckMDL+OA8KcIqqa4n5xRIvwJIBn7JEN08pmrxqi78txo2LOSEXoZgYm0ZLhWSWKSNdmAml63O/8Gt/s3t8QTBiAZ+yRjzaToVSAiiAfuT+WKTIzJgUl/TwrKdFe+U5hW1kkoHdj9mwsvA0AydkuGGFo0STV4QTIiE9G0TCwZUexiSI5A9talsduD9TAIsj8BJOMOmer/RGdKOGHPTIlKoBD7y9IiE+QcioiVqO1gRrUvlJFUjO0ZVnPeGg8YgGRs0q89lYiyknXM0Mq+zjrTzbmYiL+xZnzVy4hMCDdDHpB1zpo8nZArYr0KfyqEpdI2d5aYsIXWD9Iuio2ZGQAgGaqnntuZd1c1MBHaIZbDONuXft/qLb2WDE37pGSEJtaiE1GKZuOgIiFkHE1+qFCDLBiD1KE87F2WK3tckXL9gsUBAfiLJEO4E1w0/mXvXJcUxcEAKkoRowKCKv4BCt7/ITfhGlAFVHdp9pyamm5oiMzYOX75clMtlHpcRrkEnzG0U5a9rpd2WlrDSGX0i9AvU5xwra5X1OtaRpqim1W4H+h5nTqIwgqGrmAhP0AZQ9Lw+x/etm/LuzOfvsx9EX5v6T69qqjsKqJzgd2PKR7EHR/DqlyAMv4qegXxjjOcrjOOQ6nMd3CEWDt0swLK+JPOOPdaCcoZgREP7H4x6Goj2PoIUMZfdca6JwX72oYd8vqbim0H1zPKAJQBACgDAABlAADKAACUAQAoAwBQBgCgDAAAlAEAKAMAUAYAoAwAQBkAgDIAAFDGT1nEzkbsNQ0o419iM30T1zn+I1ihFFDG59jR4Kdv8PHqf2mSTr0lSb78D5Wn3hqHACijG4h73oirvAdbrLw2RhrHbXVO8jFVOw/DtL1b80ghZllJGH7qjM5zrsp1UakI8CeV4fuW8cd/+3PTP0QH/+kn56HdM+UF7pAy7rZwTc3aHIfxRGWEBY98kBhlfUMZ/SKmbuECKGMuynC3JtGbpRyqYjz7E2X0GyZ2z0H39ewNZZgNk1SRDyrjCw2TO2W82sAaYM7KuHia7dYtvr75WxxpW0SR3nXJ+kAZfYP0NmC63xt6Jacro0/8UBnvlfU8CLsPVKbuYA0oY06P5L4dXxSNmzo8sS+e/KoyOkGL3N9/MLetjO8qI3mnrBcZTfM5m3/NhroA/09lHNqtGuXqq8roRBmPNo//XBn5V5Qh0zSJw3SCMlTMRAYUZqkMGXlb14tk0xKRK+vibt3Dc2X4+ufNDqwHz/PUxb5uvvj660FeXHW7fakKufSFYHtVUsOvekq0MnShXvmi0otWkbu9FJu9RvUtXvk67YvqraI9r8mPnB4Mych6ykjjLGu6QJrOkPqbR10kvSgjTfIwT1pllHcYrZ9YF5OFZo+KOuwkUpM8C7M4kU+es6K37b1DxYB5KMPvZSa3W/+i6n4319lVhk5NuG1eIip2eD8UpShlWNuLp398cLdVF8eh39Ph1yesKv5QyrDKMouWi1RC0kdRWVB1Syf/GrU52aps+ShhmBgVUykjCcOsrbp1PZX1Z/yjLpJulJGq2zNd4WtllHfkZt2Pwyw3SlHf57HyTJrK+pLyArPgJJEPfg/alok8iR3pUJiDMmQpCyUOt1aGqzds11vGy8fKUAY4SBUA1JVVSn/rWSqisF19xirqvfrpRapCDmULwrUeZiFaZSgbqDKjUgrqoVxbn1R/R0pHxT22LY3HkPpVt776Uj+lI4QzkJUoaqmMa0M0H+1ts0AV12uJdKMMZQt1aapqfNzc0WnxqAv0FepcVt+fy8JGuWxO6Atkkg2MGTP7fwIhBCNCYQ7KiLaurGqxVSmjzBBYZmhgKkNWn/vKCpc2anB1MZUy9LdldiIq77N0WBLZr6KM6gW84jZZPEN5lbVtR3l5nWCnl8uwhvZaNVQRP44yHiUvOodJGMrqbPw4sVE6pQhYOl9b9YwexWE2tDYoA2aijCbW96qqWQuhUyFNZUR1POI3WU2/8oyrA5Oyjh+Kv+sQQec5lDUO8nnDZFWfsAplyOIJimvdJ+2jXo9JMPRf1gQDquI/izLuldGJMvK2iKfKSDoaSupoI6lbL6OVcTbyn/IsTmQzYAbKaMVQd2vUypDPlNEEF7Kpsv62PFeMDn2kDPWjSGcqqvaJ/VQZZQhTKsO/U8bLKGO8MupP/ulRRlPd4+fK6GoobZXRtFTCcdNYrp0uE7aehlkowzKVYY9Shru9WCXNFb557WNl6DHjl7rR8zzKKKOet6KMjRDyPWWMjjKaVsarKKOvjKop00pGpz7zEda4LWFSLixNGW1nRi2AQWWYA8gPvYbGK2WU13mvo4zyld6KMkakPz+NMt5QRt2WSY3XSIr+knxIGkwzgXlGGXb3uzFRxqHGnqYMbSj5qyjDHpqV8Z9EGUXfSZzEvQyGPjHUY7IXAZUB5qYMf3ouw7sfCTpaGVUo85NcxmAV+zzKkIYHRisjCfMwzO6m0KfZwABSJqbBHJXR9Jg2QzQHlRFtvbeVMRhllE4ZHWV0lHE/K+2JMtoek2RalNGmP8dHGekzMzT50Cd056U5R/wBc1BGY4rGHYPK8O+now4ow6qHecty2IWu7MUpPRzMVEn9OOOijFZ345IZjTLqz/e6yzR5rYzYPMi6RQwr4+lslNgYMzqYyrCFoJkCs1BGNctUV2Y5Thm6WhfOsJppqa+VoZOexcoWttd66VK+aKsMrxpafliNjTL0UJKi2Pr49LqLIa6GbMbt6KqsMsYLZTSjt6omTVxeM0EZYZwo6uHiaZbURb0cn9EdmXYUQtyoGjADZRTDsi/VjLJxytA1Xd1Sz/5YHfS3rlcL5D7KKOaDuJ4xbyXSJehZa23DxN16F7ca3/EgyrBchR5k6rqRoTtVitsEPdbr1n8c5mEW6zliSSOAUB8ndT1Pc4WeAZK3s8pkVlzUtmlydZQ3ltDXqiv0jU9yGXnYmZSmBaWKyMPXQUZvuaANyoC5KKMamdnMBx1WRr3Iluc39b/gqTJW9qWc++b5bUJEz2WzZaOMiw5BtpUOHkQZVtuz26ZHyil17cI/R7GTr5SRpHmndzPJysO8Oy1N08YNxT3NcXFL3GQoZHtH9kQZq1QHGdpU5S1pObE1ez0G9NozxImGCcxFGXqQlf37W+zuHfJ+HdE3HkMXY0riPLwyd7fnIh0zDlN2rpLpe//LddK1fNmBxzyKffc/Yy/2rDkOc1HGctArc8+rZhmz2sNwtGyO/b0VHMFQUEAZv3DGeWYTPts+2tSIMgbYiF2v7ycYGtoKKANlvOeM9byqVhJmRZyRJtn4tf/ktd9Eu7KqH6CM/wfxg4zqdHaMBAWU8T8hjeM8y+Mk/aQQSe4TUAYAoAwAQBkAgDIAAGUAAMoAAEAZAIAyAABlAADKAACUAQAoAwDgX1LGxvrBhCaHSVIAy1SGVAWdJ66PF5xuJ/VnUx9b5fGxucDen9hUGGCZyjiud2I3rYKvRUGzOu2mPF6bV+xwBsAiGybF8vabicq4Ooqm8SH10bWz9iTOAFisMlT9Pk68fj14koXlAFDGBGX0duYBgOUo4zxx05wxytA7k7HkNcAilXGanMsYoQwlIjbWAFikMvYT44FxytiwfRfAIpUhO1uIf00ZqlgzeLHxB8AylGELMa06j1PG6maeuYo9uwwDLEUZv4gyOv2sjhBizzsHsARlrE7iNimZMVIZR3EytSR2vHMAi1CGcxJidxpvjZHKCMy44ij2G945gEUoYxUoZ0zY03O0MsxHZAdAgKUo4yr2a2vCfPXRDROaIgALVEavN/RryliLG+8VwPKU8atO1rO48l4BLDLK+IkymJgGsEhlrPrjMmSwkZ8rw+oUaw+UCQB/Rhm7Xm/JSbxuUoxTRjeVsRM0UwAWooxbN/3pCCFeNlVGKcPem6VaQ2UCwJ9RxrWbdLCHBnePUsa5E2TYKANgMcror8p1/ELDJBB7u/tjVvYDWIgy+qtyXQcGaoxQhrXvFXGeMrwUAGarDNtZ95fc2w0M21yL3e12O7f7mKij285UhjJGb6r73pijBgB/VhmysyNJnXcIBpQxsI+J3Y8xdEqV5TIAlqCM8zXorZYxuAKf7Tj3+5g4jlHMsd8ICVjVD2AZDZORqYoPuTISFGCpyvgJxBgAKAMAUAYAoAwAQBkAACgDAFAGAKAMAEAZAIAyAABlAACgDABAGQCAMgAAZQAAygAAlAEAgDIAAGUAAMoAAJQBACgDAFAGAADKAACUAQAoAwBQBgCgDABAGQAAKAMAUAYAoAwAQBkAgDIAAGUAAKAMAEAZAIAyAABlAADKAACUAQCAMgAAZQAAygAAlAEAKAMAUAYAAMoAAJQBACgDAFAGAKAMAEAZAAAoAwBQBgCgDJgVtv3d8qxfPadl8WahDPjPcXanr5Z3FMEvHtO6CbHj3UIZS0EGgfybT27tv1zFnb04/kBse7FbB/yioYw/ELbfdiMC97UQf/P32dl//cF/4oy1OPO7iDI+/dW0TJy3AwQrOAbWUy04QoxQxvGPKkPuflC9HSG+nnU4C0IMlLGStvPJ7WshDG5vlhLsyvv/Ye9s1xtlgTCsSpggu3m1UutX22v3/A/yBQRQxahp2m525/nRRhQTR7gZBhRBPoIMlk87JiR+jH6KmNmN0XtU9gIygshAZNxf7an5SPa8VsqA6/83NpY5ABd5Ijjw9APImPdmAOgjFIkUOJkn3OO8NVTHGo8d7UOONRiR8UFk2LL0kYA/BUiGSi5K9u8ho55XxDsh46DR4hVcT9CeYA1GZPwByCh8FWHRP4cMuviZd0JGdCxEUgOnmzcKw5+PjgzWds2p6d2tZn13arrW4aCjEe3VEa4qUpWhszn6Tm6eOqUrEYKac5HbMwjBorTKoCzWkUGSErLKdsipECKJIiozZTITkxt5yZOIJRlPwsARYsjMhKAWGeqkZTL8jEREac0FkSey8Q+h5VrBVIgaoFZpt8dkW2k7aa3RCSbmY53b1Xb9sLsd7kFPVu/RBm4TIUoAfTHeAVD2Tshee3qn4MgcClbOO0hLRwRKrMGPjQzSnQaZCk9UCVeb5tZ3p7Y1KZFNkds+weY/rbsaNAPgHKA05+RAK+AlwLgJmxb7lANk/oAYAHgUcxiSGGSJ2p3X6m+qG695O8shnTgKFCDNIHM/o4RcZRb6RInJMom/5j4me3MQkFpj9dGa+Xq3ox9ctp42+oiGrdyjhcqpL1C7312Or0XdhXSnPX0NP3TtJNsKmFKcx/XgyGCydFIWkbbp7baChSq0xomQuGiZ+n+iphdyanXD1wyeCGNMJjGlte/gUMq8cWZLMAfOZblkNXAWRgYFSFjECld+GQMgHHJagWoVATKqMFGSKNcROrkvS7eQob2J1EChVOeWiTyOYhi8eCKVeGQwxihAfOXKotRpbYCildaNWD8YLWA+16ljxsAy4aQcDOqyzO/RUrM5GYyxAvj4luTAC2nPxDkBW/bc0TOL04AKDiW77mUgMh4bGb1vy2wJ1tvEFlhb2JlN8M3i3lhGbshALQC46fJOmrAJMmykvvCJALXKlahzMF2Qh+hEPNTxFADKnC6RwczkAgpQs8g7JKWuZtycjvkfWx+IZcCyPQ/LWW1uPuJR3Fim9NMj5/doyeSpZ7CMZTDLFOGDjxv2XD+16/nBiq4FK2h5cAwG9Ychw5HB6uSLdmfKq0loHDK6Y8hgbhKhMBXLFmAynio0RoZjicwb+6su9GGxreNU28A2W1S746WbVhHwMohNyDUy0qGPpE9H/M84gAyWOOVbaO6isPm6GSFa79914XsUCtLGV5GRW9tSX2y27Bl2YMaBzCQsWIVCWmYANcEa/MjIkE0aCbZ5as+0rbPIkDs6egQZvkDbYY25A7BARuGKbe1KrHmYiWhHP1jEaZIBQBZvICMaGroRMqIRMo55GQcM3URh85k9bO5tOGTM71EoPrD4lcUEGc65GMFx257GjPnBS01hLUuhmJ5iBX50ZMyjdcTtYRMvo7NtXa/id5Po/XVkxK5Ap6bAbiJDfjZ9Yz/hYFwQV4t4XIH9thEy4ikyhpmSK8hI7o0M2qsRJR8cnpvPsGLElCUytnzFrY5JBpWx59hr22HPax2TVdcrgyzckWI0TgCncj02MvpZZbeg0PCgYWREVAfwm3YnMgpXIVNTATeRMe4mJ+6q0x1FXI0ClHNXZuZlVPqIu3gZzGvlgE4NsfZq0DRaMd/gx/U+PjpDRr8962X5YMwUGeNIQ3rInmT9MRO2InF1ckaB4c+/Dhlk+imADNVcqLay3YeMdIyMfV5GBWVhFR9DRpQDsOsdkzt6GVvhT0mMhi5MNDWf3sVGhj+OjOWEq4WX4exJDtmTrhtgNfx59Vk2eqc5Zqjv65iwnbGMbhqEU83nPmTQUSwD9sUy8kAN3IuMeObKLDsmd4xlcKfw03R0EaFYmk/3TPz+UMdk69ENsRilmMYy6sAs7X32LEaDSTNVPCTY6MngIOuDI8MVaV9826n/0a8gYxyVu97bZs5trpZ9hjAy0kBB3YuMwrkyRdjLMCM4XxLLcJZZUHVkPmXifup0jJExv0dhR45d8zKSmxF89Lm0dCtcmt78qDLqj0BG1MzG/CwpmJ+XMUMGWzoo9HpM35LCzQ7YRAbLls3i9SKe2p2sNkXeniL3yIjHTNnlZbAPvj7DgcH1LgLmU3NhxvydIWNxjwJUXgyFxhPW0UDTvwsZ5OAbMwrYeuqswHkZD44MWds7VXRJ39qeSW/64FEQGawZppKTxrebzMzmWH9ThSpHTNhI+iYy3EAd9U93XC3ilINQo4Uygz2uGr4tB98x0WG5mA+FdpeXIY/S87/o7ebtBysaQoTMF0k8eyoskTG/RwEtenLM1F1qqT3MjU1rdggZ+bEnQlLYfOgswSdZHxwZqrU76QfL/LyBRg0LNjQKxjKofsqqVwMBdHwSnYmttj1ZJfhiysQ6MqIEIBMis0WQlqVMKMt4pYiznANAKcrJYym8SjIoMudl1FBWtX/GZI4Mkklx4PJvPcJdJqoSbp1N0CvL9M2pNa5C0HzhWLJDxuIeLUUWAdAcoKxEZiaIMwHq2rl1mrbsuQhD7VMN9VbYpcJB1kdHxmLMb9juWBStdEx6Pc3g1I99irZZJE2+Q1Vl7t6XtQMZUVrCaOJPPB0hDBRxUpXDbGVXEwtFkZpGNRhkZPr9X7xi0QoyfMzf15pYn7a++R1XvbYulazoVs1HT6MIZwAZy2HtQFRxHnTRlw+V/Zo8G1/Htj11cnm0fidsmyo4l+vRkRGZGYDjGk42M5BA0rXiwuhh315mOfgSPTp782fgBMd/RkQoZfewLlk3X78ZrVjco2XXZPEIKYkneRg9OlVbfEKoEr2MvwIZqO8Va04fn5ae3P09ncK9reCOKgAKyvCeIzJQH1C37WTsUH7nGQ/JdmDittPi0keIDNRHXIy22Xq4fW8Dft8oAUk+xxmgeYXjrIgM1M1q/BvQUChEBmpLfd+iEVCIDBQKhchAoVCIDBQKhchAoVAoRAYKhUJkoFAoRAYKhUJkoFAoRAYKhUJkoFAoFCIDhUIhMlAoFCIDhTIif81zujSmD/rLERmoB6pn2Z6XlL/9+S/qKjJ42LejIzIevd1t6T9zrTHfsxIMe3r605lRANR5/KB3AZHx4OquLxX1BXq5vHyRjzEnxtvra8jJeHr9rF/wHvpCmfh+8DzlI7/nGJHx4Gq+HRnP5+cv+R62WF/l9ekp6GS8f9ZPeHv6FUo8/IUfXGoTkXG06FB8V92oY9JPF8Il9y+MjPz3DchYrLawXNYgiIxPdDIQGQ+KjOaEb6tbVbu+CtrN+nE+fwMyslkvJAVOFsgI1OBPdDLCyHg//o0ZxIgMRAYi4zZnYi8y6mX//+3p95c6GavIOBpufehl3hAZiIxvQgYjJM5LYPuQQQPOfAgZn+lkrCLj6HkqDH8eKCdq1eHOLyJK5Hbj3otNul6WenUE9Rn0YsWtWViw69SqxfJvt8aNRAhBo6goAUpTHElSQlZ5X5DkJYdSFGZ3LuIorXhWefRTncNuE5FErBCc++VUWVFzyETuG8m4yqBMbg+zMGqu1NT98QXKy1ZHtMMRdJQ8sUSv12fWaSuV/+Jq9+Vil11+uZx/Xl5szX026exy0dfycrn8PJ8vSuY67Tl+mJEShYwfz+efzyNn+8fzz7M/Z+Bi85pPl3KdmI8KIdQdkrL3IAmsGx/wKMYUYW+/fz39fn0b7X2VCW77XW3KAxxjXl/1iMjb76df7sTvr2rrzSOD6d3sQ8jIH3nJ+i9GBh3WHXaLk6t1yFVSb4hwaohEiEox9UKtSqy3h8XN6cmpXXX6AIpI6OJoesEcIPPLuKvhfchUAo8N84sEeAbg2jWbw6zSTIGTcshiqgWRn3UOd9IcdBZ+u8d5MrYY1i5qx6ueDRvOFn3kjTO2ROeMs+JqxOezqZT/2U//SSAoXcyO8/nHUN/OZx30vJytflqfw3x4OV8sMl7kXnmEHWxlz2ed8HN1KW4OXIgMhFvpdWq+2C+Cbe0ZGpd8f3ubJ/3yToasyk+/fqs/7y72ITckJN4tAPTm09Ob81Ckj8JUFscilUXpNzPIeJfQkZnG3sbyV2ypgAqRsZMYg/9AekMEqmHBWlsLiGlESWMrTDPQhPRmETDGWHNq5d/VFoyxHPIc6jQGbl3ahEWscMWP6zXMGU0yZpChB/xJbX3fWK9yzlI7Q48C8JJqUIjhFALUdkRyTm2R5wWLWLKM0dnamjqt9SmUJ+VsIf+rL/ifvbNdT5QHwrBAzHRIVSiUoqJeev4H+ZJPEgDBuu9u3Z3nx26FQCWFm5knE9jvG/VBL5MXGDYdJFB3R3focnO80zsWCO56Rw2LFhybcWQgYpuYePscQYbahm3NFhIzm51asJn4E6Wg3p4Wu5ttv/sQMYXMP5BFVVxBkHH9ULHA5XTt3NIWFpebbYPni1r/ccXOUG1Xny4ufGnxIWtJL7eTjTLUTi8dZr6ljJCx3IYwJEB7WzzaYIMZZBzVqsbcJ7mrOsDlXkYOhfyTMPO6ztr8fXIT2nKAcJ+VCR5QmFO4NmTITUtucxz3qlJ3AptdoF1QToWcdXfjxCVuRNsVqDpmr7rDP+SjCzP0p8NyL+PTXOarjSHD19tGfR329haNImPgZYwhQ3ffxpgaNoJpF0QTfyADaztyMNZ9oZeBsMgxDIOMS99zuPQbmeDi3CHjJj9cDDL6+zjb8OP2lMmaLOMfIUNdALwXdOjPuF835jphq+4e67V4xP7MAOQpyfQ4fmQJgQIisyDqmVGV/UEYQrgzOQust8T0lF3h/crCuXQTXyp2wrlIDHWewhU65adj0AtN8Kbmh5Bhr+b2fzSE+LKRwfbbyPi0C/ROt92C7YT7V60CQox1X4gMBkvGJf0gY4CMk73M+xbIzUeGWnc2S669ls7+fGJcRvpor2xl/F5kNL3z+WCuDhduuKCCG2S0fNgf8EFk5NqUQM7NLc3d6HNzvYscgzM4dhti9586pcsgLrHIkFZJ4HS6uyO6EOaJ5I05FLQBhaRFWOEZYuEhZNjowl7MzIHBcuEJZFinxGU/u4nMxENGNdl9ITL4ouqnm0+J68f1HAYTFwuT6zhLFDJUo4s6AQaFpL8CGSUAlBEhY5mO6+MEQhoXjYdRhvZLjwE1FiBDeO1jKIyHYEf2uQCAOmcDZCT6hM2MCeJs+iEyWAEARca7W2Jlfon4fpUOa47K3dR9oJKR9tDb/9D1RnPc993Nx5BhrnObl0Q+MtiTyNjpTVoMvUdK7zaWGSYmttuyye4bRBnziUk46HqR1ubJTWttr//zRenshjgup9v1ev3wkXEbS2V+JTIYT0qgUq7FVkYziYx1gAwXZazwoC6S5gEvIwvG48rORHD3skwNdtg4wSEj0reyym2fuUyF2QbutFfmRM1dNw48/r4r6zQZg633x6ax88yk5cnXDVP/KdTi0bb4PjJ0RuLyknc3hGLh8QQyjB+ye/M0GnIxg4rMup1j3dery4AF6f+tZ0qe/cGPy4cntEy5nU6nq4+Mc2hd4C9Hxl3Hi5AxiDKahVFGhwy5VFZq7PER+zOIgovcqmM7l5d8gaNRRuxSGfPTMMpQX0veLcyISQqV+yXse/anHQixiYnkhAwx2p7RAyYtMfRI8zOJiY4vvvq5xDCreCrK+Hq3Gj9WJmswstrxYaz7eshI56ufLsNCq4ukxs0i4+xkiKHLK05TyPhfogzNShoxWeplHPteRriGDxKTruXhm8jIoJi0PLIpL2M17mVEvZ7iAkoDhLnbRimcRi8jtEdo+0BmI9LIOK5RD5g4K/gpZKgL3Q1l7P4fL2M27K4gBSgq5ng67L4eMko7vr08yHDX/Tn0MvrX/59ABkUZi4Sd3Rk6fS5lGY8yejnNg4lJMjmqWRjWO2RUOqhInNWW6jXjUYYOQ4RvejznevKwU/ZrPK4lTbkuY3EYvY+M9Wo2M2HOY0BnVX4aEvyCEZPN28gDNKIs9/9CWa8bizlkJHOD02NBhiHJaZQojhSTyFj1yy+WIYPNPj0npoLxpc7POsxM7Niqu0yG9icOkdFPb2aiDEz7SMdVAISWFHpWtRs6tSuMtzESZWCYucgWydN9c7CHzsxxKg+jTU6OirRuRXMHGXz28RltZvLezQqxpHDssMUVXx0ydoElYWMJtnHIcLUenz2DxNvKK5SVsA6NibHuq8PgHWdrGW4T5VXWqjh7JVsaD9eQKUNk9M2MRchgMOu7lFSXsTwz0Zc7PzI/32D7rvozjDIO+4ONTw7eTlD5icuQIe9P6mTlpb6N5yI3tzpznla6MhxLSwZTKMpTc9YOogwudHFFIrwARe0sqb/7ELm1zs0O6y7/aGS38LVBBDed1x6/H6yFyEDTaJobLS+2Xeaw04UZuDUlXZIhqInhkIGmeIPZLd41MbpSLokKWSXOLDtU+Tm+f3qZCDiHSOJAlFmW5RGuJrvPeKMM5xLMiSDjbIZYu8dZ3Eyp+PkUrHBuxxAZeO1vsgAZOQAU9//WBc1kfYQZazmxzAYKcpRATVTD8B5pkSGbHtXIYuPHJnLZVKxRFSmIoqj8MBBSOaPBZMMlABSV/Fx5iXVdiu7mUMkWNUDNVqNRRqZ2UXkz3yRv2k0EfPv+IQs9m6aF59HNMlEpGK5tzWxjWhzsAr7fy1FZ+W8T7Oa4X0+Si3XTRUxIsGkZokq8DRHePj/bUGTjkGHabAwRZOOv7du2S0zaJdt2E5vjqHkrW7nTbhdxcB3x1DjBaTLZfZiCKKvO5WAzBugw71DjId4Q6kXC4SRHUS4ry4rz6Xo92/zjdrt+XG83bz9yUOUqN9HzVBYhIwGYczcFPWLngQtDDZl2ky/VZ3fCj9RlHHsbyFZq+tV+wtEwQxOBnVGoJZbskZ5FWXSAiNU5XHToz1MASG2d5tDL4JU66dOsuzL1wG0dPdc17VGhud6ZiTf2PmDV/Dy+d3X2Vk2vh5vpMGP7FsxW3239WWmKD+3HXdusexbXu5q79mmqaOUGm682Q7HIeFdz2zbdoeOnv4E6mMLhQTWI8izLJKWTye5jang8zb3chj/iZFxOas6ZTwC1xE1DRTXnrP10dgbphz9LbbjJMi+jmL1vPF3v9y8hQ15uPLgDIp8J5RkftEDOH4v/+xuwyHtMnLI/WW+Ps48LRM7Z6rFNZv0M8x3YEy1UI3avdzxj0yzYhbtju+HmbOfts7+BWoSDDXp/9vGkvrjTfb0uziCdPu7TmJOBl8tgSfA97fq7/XV5MNdMZ4lAT+V6cVUvXfL/sKZmfvw2YZZ5QfwDG8bTzJgaLvkDYvNTSKR1w5CQQch4Ce36QcbvV5fKZ48NTmeehdrT+fxTOjifnw6DBdCrjwgZLwKMr7e3rz/9JUoo5FgJ8vhRtzh/gZGGePAk9BFFcZUTMggZP1/vb924xh8M3VNXPJ/9fX2cvvIIKiFj2W2hzv+VQ91t33+CV49JVadpXeW4IhEySCQSIYNEIpEIGSQSiZBBIpEIGSQSiZBBIpEIGSQSiZBBIpFIhAwSiUTIIJFIhAwSiUTIIJFIhIy/RyyKqBNIJELGMkU1TD/QhUQiZJACcQFpnFM/kEiEjEWK51/oRyIRMkhWL/1CKxKJkEHIIJEIGT86McmoE0gkQsZSZf/Wy01IpL8IGX/kmbI52Z8k0o9HBivjFYsLKOzbUFdJXAgQ3SPA87Isc/1a1VS9YIbnZQqQVuZtM7xMWCzSfMUrYd7wvsJcti4z/9naOPeg7eixl/KQSISMPyAOgqeQCoDCvDJYAAj1imW0+QJAtcoAAIDraADUBsatTKAqIAXIU7CvxmQpgNqH507kYu7l3JzquEikF0AGiJKpV3WatCBJmAwT3OvoECMoIkgTnoJCBsu4Ci5AMB0cQImrCqBCNIMeJRRcNRTde+9SmHsLXkTIIJFeARk1mmAiyBy8l3FyEIWMOdKgBQrIdZSRogw9CrWRCiuEHS71PBGJjLupCS/mwhASiZDxE5DB7A95eM8H7NqoACGFwBatdRyiLQjtXepBDxSQDX5Rkt4bEEmKFKBmdHaQSK+CjFXvOu9WyB/V/Z+HiUWpGZAMkNGugXhw+eO9YZgcAIqETg4S6XWQ4aIAnpWFECJARjgnXb7fUzaYiDJWrJAEyPjyr4E8ioFKuUikF0JGbfzPCiCtq6oMkOHHDFEKUJRVlU5GGe3HGgCg5o98lZzsTxLp9aKMGEQyTEw8ZDABJfMSk2gMGW2zpAQQ/KGvIujsIJFezMtAmx5MIiMDgTNeht1OPFTPSYOsJNILIYPpERPnW0wio7QcuB9lmIjFsyvmqtATqOnsIJF+PjIiP3hwY635FDIqwwEsJqMMdMjo4oZEzM06y6kug0R6BWSIyL+ihb7XJ9ANk4TIyPUKrEG3HEYZXOgJKwElZku5WsDQTFYS6QWQkUJaFW6OSQ4g4riAqjRL8kKuLOyUkxWmAHVWCpFp22MYZWQAUFRqnxgg474ZWtEgK4n0CsjgMQCICrsMAiDNVywVtpJcyYUIrAI9MUWXh494GbxSc9LSzLMv5qel1UC1XCTSCyCD9es6WWQc0amN0LS/42gi573NZye/U5RBIr0KMn6EcoD8P/buRblNHAygMGANv8Sd4fr+T7oIEHcnpPFm6vR8M9utExvc2JwIge3Q8AQBSMY9gYhwagZAMm7fmaLlOCtAMgD8mmRUNckASAYAkgGAZAAAyQBAMgCQDAAkAwDJAEAyAIBkACAZAEgGAJIBgGQAIBkAQDIAkAwAJOP/YFTOIw2QjLsSrXmkAZJBMgCSQTIAkvFCYRvFfeGV9eYzUz/6ROYuy1KtM2v5Wt6kOm3cm5knw7eS4YuZ1mlu/5+YJk0TTzV6+BPAOyfjEYtEInW9fmaqqSTyn94g03qWLhWxF7TW/nqxsUORwZAMXzeZ/XaS2j/5kATgnZOhRHrlGRuOJRmliDz/XDNjTKK1sdb9lMR4pnE9MCbXma/TRKX2K77WmfEarRtjMs0wA3jnZAQSjVt+GK/JeHyYjNNchtFzBxrdePOOitZpOix3Tob9azIOSjrd8RwB3jcZZilFtdkxqaUK7yejc3so+fLlfNolGZJhbDKy8TbZeN2G5wjwvskIRfxTMjxPfXyrfTKWwYVZZipyPX0tt90gGcCvSYYvEl4kw/tKMlLd+JNpaDElYz0/lGQAvyYZ5fLR8H+eDL2RLMlQJAP4fcl4vCAZqW4SR5EMgB2Tj5ORnY+CkAzgdyYjFCkvkvGl6c9OZ3+SDFX4PF2AdzsvI5LeDTeWZHx6kHVXBHvJ/3oylCy1AkjG29zfYtpwd2d/fnoql9HTvsichUanYzP8zNxPRikiFc8XkIw3S4bpRaI6lja6e8L4vGeSNlnqThDP5ovzAZPE/jXNXECuk/FplwCS8Vc2o41F4mJ39ueHL0ubqpBqrfX62tXxYpa7yY3Jh8nwKmHHBHjL98sIQ+8w/Rl+fiOVK7MtT/7Vl6hGy/FdgGS83x3/ykHWV1AiAU8XgGTcVC5nhAAkg2R8KpiP7gIkg2TcEMmDZwvwvskIKo5fACQDAMkAQDIAkAwAIBkASAYAkgGAZAAgGQBIBgCQDAAkAwDJ8H3e+gogGbdVIj2fFwKQjJvKoJKYZgAk47aWN9kESMZ9D94yDyAZJAMgGf+Lgk8lA0jGfQFzGQDJuK/lgwwBknFfz9v/AyTjvkg4LwMgGbdV7JgAJOO+QCKGGQDJuMu0InHFfAZAMu7xaxEpeGwAknFHKdI+QsNjA5CMOypO5QJIxn0cZAVIxpdGGSQDIBm31cfzMh4lExsAyXgmOBwtCUQiHiiAZDxRHKY/YxHhLA2AZDxRSr27XIlIyCMFkIxrD6kOlyXmgQJIxtNRRnu4zIkaAMm4ZsIyPkx/tiJ8HBJAMi5VInJ468/oMLcBgGQ4QVscpjqVcGoXQDJuO86GAiAZAEgGAJIBgGSQDAAkAwDJAEAyAJAMACQDAMkgGQBIBgCSAYBkACAZZ+r8wYm8sB0gGc/4InGwi0Zx/NASACRjGWUUbbx/j60w5jPeAZLxXHh4J0+aAZCMjxw/pTnkjfoAknE/GV4pEe8gDpCMp2s8fvRZf3xPcQAkY6ZEjsdZQz6oBCAZT4QXn5YYMQMKkIxr/sVnDBQS7arCwwKQjNlD+ouMbPZMwkgqwwMDkIw5GdHpa2o7JdqKCGeEAiRjyUNwnOw0Io/lQkAyAJKxGWZEItFh5yTeRCKspGbHBCAZbkhRRKcV7k8a54grQDKWYkQSFX74fMcEAMnY7JdIfBpFKF5mApCMZ8k4H2QNzyeRAyAZz5JRnk8iB0AyphHF+byM/evS/IIhB0AyZuq8sv1URinCbgpAMmbm/LLVYveyk15ECh4YgGRM4uMY4vC2XAHJAEjGqjocUDXVvhCKHROAZDwfZdSHQyihSM/jApCMcQjh1xKbfTGq/dxGyamgAMmYPEQk3g0yAukPp2S0F0dhAfyTyQjr4LEvhArMaceFl74DJON2VQ47LgBIxkcIBkAyAJAMACQDAEgGAJIBgGQAIBkASAYAkgEAJAMAyQBAMgCQDAAkAwDJAACSAYBkACAZAEgGAJIBgGQAAMkAQDIAkAwAJAMAyQBAMgCAZAAgGQBIBgCSAYBkACAZAEAyAJAMACQDAMkAQDIAkAwAIBkASAYAkgGAZAAgGQBIBgCQDAAkAwDJAEAyAJAMACQDAEgGAJIBgGQAIBnvwIT8DF7F50dAMn5/MfpY8VN4jYe0/BBIxl+0cSeJeflCVfXPPs1NWb7452kqqQ0bF8n4W3RaJ+dnaZp9Z5BgojcqRt8/Xrm4QKR8+ZBNajYukvHjVJ5fXbhOhtb5N1ZVv9NTvJLilYsrXp8Mm+CCrYtk/MgoWa1bfq71Oo+W6s7F42rH5HvJKOWdJjI+SIYJvz7zaIr9jonyX7BTEYowB0oyfkKitXeRCU99kgT1nWQokYf3K5LxkPjbYzuRVxw7KiRi8yIZP52MRqfr19OPf1V+JxmF9B7JeG0yTPxWGcbvSEa+diBbBxyvT0b8+p35fz4ZXsAMKMn4vrxJtc6adfbSdJlOM3e5yzL7feuwZ7IUYfxmts1H0ug08zfJ2C9z4A9rTZu1KKpLtU6bZUbkIbKbyeiyLBuundhrmetlmiRLdZp18+384Vv235Yd/2WdW0eTmel+rNfwx0Xs7le2u5/nCYI2ivtiSUZY1pFI1LotPKjrSqS23CqKPpa4Cp5P1IzXroMlOXXdi/T2a0s3VFBJ1PpuHd6jj2vlFZXU82JVUcVS1YdDtf7+p8qJciTjz4YQOk3tH+7JZrfK4XJj5qGEkx72TJb9kunb2Wb71uMimiUZh2Uu11gOs+TLvcjd78Nqdzez8crNuKbrZZp0Xua80EQ3/nwNt5J0vqfK3e+8ma7RbdYyXsndxNf7K1wMIUQikd4djSjt5ViWAx69yMz9e+rpFhKHzwdYVr/uoi3c9v6Ip2UUboRjL9WB/XMqjW+vMK7FPzy31j0TU0nEdCjJ+PIYQ+vOeJ7J3SDCpNpuUrkbTBhjEq2NtdxC7fdLjFKq2SQjGZdpbzYn47jM8Zis8cxyaNakulH2XjRuCNEehtDGdLrrdObnc6hOy8ym3KguzZcWdruVaHeLJXVp6nueybQ27ib+OFxx4458LJJJtoeJ9mMMkVp5xm7Cxfzb3ZYgrN3hHmNMKfHmx+f5pf2OHx2auN0NGQRrMowxoYi/WUQoEhjPlHMAKvv/cMyDP+8ExdLan2cYRPthxvY4q60bZ4SSjK8PMg5TmN38haUMh7kMu2eSnGcqujUZdvt3t8svl2ncVtycVuae4b0Ep3ua2eWq+San+7kMWcwaLtcSd4vxW8oFwCXNXyPYeIexTXP9U3LaecMP4/1chtlMxVzPZRz2EY72s7+HuYx+3tTLae3VuK5xatOI/MfemS43bsMAWLQ4kqGL9uj8uTPe93/Gijd4SIkTbxt3gWl3YkcGKcX4hIMUQDMlup4u5XIJHCRCBiHjWVntHdanLLs4uRkhwzgULDAjhAxHCguVRGdnB7WrPERyG0+XHXU6i8H1QOk84+ih8wGUJsLV+yNDABlXDB5wdIVxdJTI5S4AidOfCHl5ZMB5EflyggxHG2hrpsYuFTIqpZXrI/JuEV4eB1M9UjaDkPGFwKTHy4T8/X51t9wIGUIb/ByYKEKGvf87Q0t0+ijGWK3MQ4RrwdocMuSxIHh+nnt4sfIcMgyP/CoRez4oYnGxzCCyLtiQWdwauAoxMiaPjHu+YnKOjDMv4+6WV2yKWAgZhZ4QtHWb3aQSxnu054+Q8cX053V21GDXK9Pi7TpCholMwhsvQob7IHjHP9TpAwCbiRAqLdnxrAetlXWBP5TOU6c/V5HYO9doYBgZPIsMlV5FKnbVZpCDevJdxwEBMspla9q2PvYy4L6M6oivehmXeiy1bGrUFBkyUKrr7Z4wIY33SAgZzwqfdZkBbKASl0gSZCgjDeMSjIwhRkais0clCgMPWHWlAtxdejnNumTnqao7g4iONzFM5/wSC48UGYVQNZme2dl5mfO+QF2EyGBNXY/TsjSHyLi3dbsty/J1L2PyJRQ1SgYZBdwa9Wv+UbxHQsj4SnQi7dWlLDsnB8hQkcka3nfPkJHo7JGX4U2RS5O3FZNLsvgzREZuntIVma8+yki8DI+MAy9DvmDzFWVn3RjiU8jgrVkZMR0ho6zrG3wcmJx5GUs93q2wA2RIT+O+7fgKw5M3WyBH8lORURQwJ3mHwDyLKDJh+/+iOApMDnMZcehSRBtgO/c6TQCEyMjN0/5iSHIZosDLVg9zGfZiDOaA9YMV8WjBmUHGrW7hPJfhtqB/3cu4RfXZA2TowCnwKmhjGiHjdcww9sMzSxASZKzXWUTWFKQ/TdLBmmKic0UOAItgNDsjKeNcBh6RHy6VsMrjiomvsVimHSHDuSEsKicZl/9WofQnC5DhKhKHXobL6warqpDOj72M0mVQPkJGET2kKNyXVt2IH4SM51ERm+AcFRpzd3S5/ivKByJkcL/+0pjinBYvmTVvCKbhA5UkmRGtjUjmCZGT49KlNlCyv3DsSJABRQAZmVFNs55bXbfgcwN6lsyQYDF4AJS+ZYG9t+YTARMDnRkvA4LHZ0ATJjEzyAA3v8thKoPXNYUphIynZdZrJaUvzq3Bqxwk97tOwKxo4MgZiG/MCBl2HaZf/ZnonPURzMHFLLdcve/A4sdlRMiIdYqr3jvC7PKLzqyBdzqF/g0MV8OpGBnQz2pI3iMHRR0ifO21qrGl3bThV3b15127HbChBd9gqieVQaGCQ9WgmCHUmcvljPUGToXKh6jP6U0nKTLu7R1PD8GLB4mY99otTPITkCE3alyHeUDbPTr1Dtr+pa1vHnrva8xXZL/Q93p7SN9rbIhe6+xw9iDQyQfzeraQka/RG8q28Pd51pvj5iBcwjrVrhWlYnCrv+XON6RTn4bfxxIjg0llAz5Cau3VvrwZAQDZoWLDZaoXXe6UDkC93aa2vSEi7D+Py9RoBEo8LLetHi9+/0eokze7tHW7/7shqDTTMtqDLvKl3P825ZEhaypyyHB5Z/RYrpKQQcj4iujKJF7CxNU7/Yo85U5XQDmOTHAaJCp3Kg09TpHGOnVN1W8hZWYWKBnKG3zjHcJ6akanKRa719211/PwMxUD3pWWCUx0pRedqJkY2uta3Fq8HAqWtq7b227E2hr5IveCyV2leDeH2mi2aK3VKI+4wG7XLKuT+xKqzzywUW1Vs58o1cuxPApM2KaGHAPXZYkIMVJgQsj4oqshOMTvwIfHnKdIBE9HgQ9ei2SnNvtw5uFqd4GGVYFMPI/MvOKJxycK8bwgUlGFmUswrwF/irMK0AsTAx7rzJ1rVUE4zPkfZB+SR+mRKNRr4wQKCSHjvaX8Vknwo2eG/W1yi7fbVzUtBSVk/N+Y0X7jYVSEjIi/TXQt7y961BcJIePnCLuRl/EigSWOfRZ6qh8hg4SQ8XlpaCUoIYMEI2OY6SKc+h2U+yRkkJCQEDJISEhICBkkJCSEDBISEkIGCQkJIYOEhISQQUJCQsggISEhIWSQkJAQMkhISAgZJCQkhAwSEhJCBslLhFOv0v9QaHstIePdpGpGuggvkmXcxv0//vkDyqSzJgkh48+JWMX373J/bxNCdnv1Y7pG/djjY7WNPsAjA8Z6ol35fxcyYFay/iHt/XB8y4Jr7rE6a//MXKo3IkY5vvS5WlAHzdReg4xbVVUnIOL7b8P2KrDR08L+f8jgbF0ZP7Zb9ej/P4QM02AVPSncPwL8ABnPzAXeqTd6+dpvCf8TyIgbz/LyV/xodAi7QgK1p397ZAAP3H0+m54i3UF0wDlfn0YGCPEEMgakH3VOzQYmT81leqduQGfIgOr5ICMKTL6i4gNkwENJdYYMajb9/sgI2ziD7Cm2rqgvWfFNM1UyXz/13D2ukdFdceu287GemUsZ9/p4W2Rcvp9GfIGKCBn88fhdlr8fD3aGjKjbNMm7I2PWrU59I9V/FRnGy+C+IWTRX7uXIWN7K5/47ZDx+/Fb3mV+PR5whgxok3iG5I2R4Y0Viv8MGSgyET4u+fZcqvdq7XGGjOX79r68GhnchiSPR3mGjB1WlAH9wcgQKsTwfd4LWIdr77qjroNuoLyLjQzSQLPbdQy4iWtspqFO+xH3ziAH6eUY66HObr72A7PI6Bwo7FBMzRH1li342ssWrWgusU4hp4VO/VIHSzJAKgTdqnVGl6tHTVujyzfvxyul4mAQPswFyEa4fqZynvIIOL6eMThvW90slUMGu21t3Y4XO61J9nhu9n8n4zTxcmna/Z3jm3c5KXHETFTIYZamtoPAdCluY3sp4NK0F6ekqdvtUh0gY/cunLdxioywhlJQh6YfhYxO9WyX/5g/kmwGL1/P+hs7xD2a+8QdAJkP7b2GFBmRTvORqx0VNYJej3Su+vVskOHJZeOSTitApqrOaueMnUuik12jaY1hXKLmxXmPKkBmGg6b8eXbJzDoN0R+EKG6S+MjhFMhDq9ndME32eK5bhf7LZnU69q2UATfCPri3Ke6lZ2dD/2Guz4+aEYfqFAd7OUobakPaC7ylYSXbVu/T6Nt5ChTHhmOFFUQmaTIKGr0ORjrhtKhPwcZsoc7yHrFYO2qV63Rd3vT1gsA8o4uxRnNHP6FB/Vll4ZwgIxYpwJRxwtgZlQAmK8DGiTR2al5yqkYSxsMuVxcAnwXhIx9UKlCdnsf8jqFOhOp00IwXpMBMFzZPpLozCH7sR0U0qZ5/vJJ6xfqVHvIDrJPsZcOxg6iwc5TXk8Qcw+H1zOUSZktv7hvCbvL6bDGOkkAsNQTvp43BvoTR36GvHy4VJFRUbd3KOCiM8RyEUclQTPKLveLpo6iCS+bWx4Zj8cvhwx+igxcZ72fkY7kX0dG0lNsNW8IX5OIKibS75gZYOpw891neWQkOpkzbcjnMmKd0HubFcGkgpEAIcMWVcB6Gck87S9c+QVSi9qPkV6MQQbYRM7sphNdPusbsOvBIPssNBrSCw3H1zPOuJQmjqoP/fl87nI7NT4Iq5uhCrA8nZTfASrtU6kRma5MT6nyGBmSdBVKahwhY0QdpktCxo9CxholD51RFMN1zSJD3+p3aghnVXPCidiQI519mpEMkRHrdKRwULAORVAvwcjo42nFOoW1arDxEE8XBAzaO+j0EStyULKXzyeHzfDJII4Q9qqKODmUu55RcrDJpz8x8vLIuNXjV5HhPlqpUfdjwf7M9IQya1oCZIAsru4Oxm/90xkyJpT/hKkeKZvxowKTHnkM6J63OhuOkFHo9J2Lzp2VCH/LDb7tiU5cIs0jI9bpbNVDQeOHBzaLkOE5ZecS6/QZVOsJZAomg5476NWmbpKAfAZ8+fwgs2NdOAhHnpYNTK4dnJx7pgyx5JGBUwDLATKazyMjVDHZG7+28Awy7nU9VefIqGQK9BGVTDLICFtM087iH5f+RHGGdKi1+BVSCTLkX7GzVQRp//oT3jxCZCQ6Bc5S5pCR6HST8VDQMUEXJk28Yn/zXp2thjpXd1qzsU2eDUzQq/46mzNB8VEQpiFkGNZFg4gYGSr9eR06fnTuibQ20PfIgPsyNjK/eehlsMumDngCGaGKpl5KLa08KoOM3dB3/Rd2goxSxiSlhscZMjYUmJD8MGQUfFYVAXOjW33xwt3jcsjQeX1mv/FWeA4ZiU68djOLjETnkCJDRyZD4K9AUKgQcRwS6pzdCTq7rpMtaT4800Dw0uUuX4F8m2uRGyTxMgpdxEUllcz1jAz7HiHj3tbttizLITL4uBvztCzj15FRIynzyCjYJOslTXmWy5Apmw9zGbTN5CcjQ35L/cIDWRJwcooMG53vNrC6T2S9jEQn+4SXEerMIENZcxiXRF6GiL2Mf9o7sx1HcSiAArFwHApCRBLy2FJ3/f8vjs3qNVBTNaN01TlSL1kwiRUf7Otr45a5DHbWdh3+Ul1l6F7GUoSIVV+kl1Fv9TLGTlszh0Wj9en9QLxehv63Vd7AxGnvqpvCAe2nehmXGZFQhn76UFSWeP1J1l9TOGRrxuTnbkDwlyhj7DKc3biD0+SjB03tOJbblYhlrEbIt2IZufdqEMsYRibuuMR+VfgDk6DMN2vM0IRRt5gy3EeR6ovFMtyTiKgyJrFmqfr0LsGFq4xluXgqlpHPQZrLv49leGOFhDLMN3zIKqWMKS/jsJGXwcK011fGEi2MteaUMqY5gDrSjhxlBGWqY3iIqwy/zGVmwpWCcMclXvizdz+LX+ba11leOQztIK2MZO65Wtu7O2MSnOScUsYyxROrzyxvL1bjfbjKWIIbqV5GO/+cnF6GXeZ2L8PPjE0qw3ysMqqMxRRb2Z9uZ6hs8ccLKUP5zTqyLtTpJajeyp18S0Um3HyFoMw+PKR3jvDLXOZY3qwxjW7O4RTx2e+YqNpPv5jfPLdNK0sk6BC7yggmRIPqm0U1vzM4SdjLUJ4yYvWZS7mOmS5zk7wuyrgH4Vun1S1HFNazTpkxZXgN140NR5ShVmWIqDLmiRI3+hlRhjNAFFIyTHkhZdzGLGXVzL9TMcXhxLr0Yr5gT/OMx2EYb7IzpnTFMbdTP3Ozr+D5+iMKylRTdrTqb/4RIouWOWZEZm9HN1nLX8pivXoe4wtizf70y5yGAsJKgQ/yFryhiPbQ0Kjyad1/UH3Hpcw6fpKglzEvCO6tFPigPoe5iOVbVvJhUk6X7M+rrMzHKU+WA/KxhY/1WU4vmCNUtMyYMpwizPvHuObBnDyiDHW6jic7rZXoKePXEMNQf+a1JglluEtMTJ76Ay28ijKG9RPNrVlnAMaGaKYBamW1zfrW1MNv3SRgmxVk1qqUcz2Xcbaamj6krlNl5ub/Zr3bekFtxkKaeJnzY7uXIY52fkdf12alhvl77i/pj6DbeJ8qc3yHOe/yIYRzfVPma+rvai3Za6aqmIZxQfUNi0OGw85Z9CRBL6MZirjZK9/C+jRtvbN7/tW9OFXzeKOUUt7bh+wKWS1t/irl4/6oulkPp7bQX+60RmvcMtuTRr9Lc4gWYVKqZKcfjtf8UBl5NczKPJalLqEy9Ijk9x/957d4pgxvW64DynitWMaYlWWtqxyuy2YXHavL/zbOAk5pi0NTP9ZrOF/d7NfHQm5HSyphmdPc5E1ZI55xXZqKlzmUoGVQu15S9mDHm/98G1eDrSHS4HMO73C+aW5nc83L5ewoy1gVS3X51Wcmh4YnRBY/SRjLyKciLDEF9Sk6e+oyyzspZVeK+VdSmsdVoXQjXxeJmKuzrMaplPFBl+t2/YiXWaxTqJdoEYNWzONHnhqYFMPuwFVyJevYz9DWENkzZdw9Q3QMTF4t/CnOQvnPqKfvEedzcIQ//lZn9ymxfYjwj3AvPmfx8W+mnp8iLLSVp43T+Ic4VTP4yj/t5iffUZ9eWqXyNtAU016s7o541gatqpyOEMkyY5TuHq+qfP5NlH6/clp7sAwuvEuMp4zW3xmtGsdd8DrKAJti0xnPOG5sEfbD6GT30Dy5j4l52QtdVK7KSkkqKMp4aT618yTK8McUH7yPycGsqXe4/F1bpaGMH8jlExtPogy3hzDygTeo+/MlaoAyvhco48s5kQmKMr4xzuaj8BUoYp8oAwBQBgCgDABAGQCAMgAAZQAAoAwAQBkAgDIAAGUAAMoAAJQBAPC/KuOQs6gHAGXsRemCrtwFFwBl7FSG2Vb6hDMAUMZua5zkgUoFQBl7KbiLNgDKQBkA8J8o48qNYwBQxn46YhkAKGM/FbeBAEAZuwnuq50JsrsAUEYKMdxv1+IuK4IbACgjrQz33r5SyopaBkAZCTr5KF2FfOamowDwzZVRdtoR3WqNVlZMoQCgjCSXTkpp3deSO9YBoIw0d1kVeYkmAFDGHpQklQsAZewmmGQFAJTxtJeBMgBQxgfKc7M/xeWAQwBQRoqTPVsyPJZ3ahkAZSR4uOHPXJfNUAUAZaS4u1vsCJQBgDKe4O/KVUh5pZYBUEYCf1euq/SCGwCAMuZhSFlI6W6xU8mOSgZAGTGUlNLrZJSSvUABUEZCGdf7xduT6yIrgp8AKGMvd+5RAIAyPtLzoIoBUAYAoAwAAJQBACgDAFAGAKAMAEAZAIAyAABQBgCgDABAGQCAMgAAZQAAygAAQBkAgDIAAGUAAMoAAJQBACgDAABlAADKAACUAQAoAwBQBgCgDAAAlAEAKAMAUAYAoAwAQBkAgDIAAFAGAKAMAEAZAIAyAABlAADKAABAGQCAMgAAZQAAygAAlAEAKAMAAGUAwNcro6QmAGCbclJGS1UAwDbtpAy6GQCwr5Mhs0r/1eEMANgyRielrLLGiEO2SAMAngmjHVTRZP27BADYxXuf9TgDAPYawyijbyqqAgC2qBqti+zW37Q03rEGADzzxbsRxq3/B97OexnDGvBBAAAAAElFTkSuQmCC;" vertex="1" parent="MtbFZLAjJCo8aDqhIow3-1">
          <mxGeometry x="80" y="80" width="794.15" height="630" as="geometry" />
        </mxCell>
        <mxCell id="5vBisK9FL0qeisiTuJpV-2" value="" style="rounded=0;whiteSpace=wrap;html=1;shadow=0;fontSize=16;strokeColor=#d79b00;fillColor=none;" vertex="1" parent="MtbFZLAjJCo8aDqhIow3-1">
          <mxGeometry x="130" y="148" width="740" height="30" as="geometry" />
        </mxCell>
        <mxCell id="5vBisK9FL0qeisiTuJpV-3" value="" style="rounded=0;whiteSpace=wrap;html=1;shadow=0;fontSize=16;strokeColor=#6c8ebf;fillColor=none;" vertex="1" parent="MtbFZLAjJCo8aDqhIow3-1">
          <mxGeometry x="130" y="178" width="740" height="30" as="geometry" />
        </mxCell>
        <mxCell id="5vBisK9FL0qeisiTuJpV-4" value="" style="rounded=0;whiteSpace=wrap;html=1;shadow=0;fontSize=16;strokeColor=#d79b00;fillColor=none;" vertex="1" parent="MtbFZLAjJCo8aDqhIow3-1">
          <mxGeometry x="130" y="240" width="740" height="100" as="geometry" />
        </mxCell>
        <mxCell id="5vBisK9FL0qeisiTuJpV-5" value="" style="rounded=0;whiteSpace=wrap;html=1;shadow=0;fontSize=16;strokeColor=#d79b00;fillColor=none;" vertex="1" parent="MtbFZLAjJCo8aDqhIow3-1">
          <mxGeometry x="150" y="389" width="720" height="220" as="geometry" />
        </mxCell>
        <mxCell id="5vBisK9FL0qeisiTuJpV-6" value="" style="rounded=0;whiteSpace=wrap;html=1;shadow=0;fontSize=16;strokeColor=#6c8ebf;fillColor=none;" vertex="1" parent="MtbFZLAjJCo8aDqhIow3-1">
          <mxGeometry x="150" y="611" width="720" height="30" as="geometry" />
        </mxCell>
        <mxCell id="5vBisK9FL0qeisiTuJpV-8" style="edgeStyle=orthogonalEdgeStyle;rounded=0;orthogonalLoop=1;jettySize=auto;html=1;exitX=0;exitY=0.5;exitDx=0;exitDy=0;entryX=1;entryY=0.5;entryDx=0;entryDy=0;fontSize=16;" edge="1" parent="MtbFZLAjJCo8aDqhIow3-1" source="5vBisK9FL0qeisiTuJpV-7" target="5vBisK9FL0qeisiTuJpV-2">
          <mxGeometry relative="1" as="geometry" />
        </mxCell>
        <mxCell id="5vBisK9FL0qeisiTuJpV-7" value="Videos" style="rounded=0;whiteSpace=wrap;html=1;shadow=1;fillColor=#ffe6cc;fontSize=25;strokeColor=#d79b00;" vertex="1" parent="MtbFZLAjJCo8aDqhIow3-1">
          <mxGeometry x="910" y="120" width="250" height="47" as="geometry" />
        </mxCell>
        <mxCell id="5vBisK9FL0qeisiTuJpV-10" style="edgeStyle=orthogonalEdgeStyle;rounded=0;orthogonalLoop=1;jettySize=auto;html=1;exitX=0;exitY=0.5;exitDx=0;exitDy=0;fontSize=25;" edge="1" parent="MtbFZLAjJCo8aDqhIow3-1" source="5vBisK9FL0qeisiTuJpV-9" target="5vBisK9FL0qeisiTuJpV-3">
          <mxGeometry relative="1" as="geometry" />
        </mxCell>
        <mxCell id="5vBisK9FL0qeisiTuJpV-9" value="Selection" style="rounded=0;whiteSpace=wrap;html=1;shadow=1;fillColor=#dae8fc;fontSize=25;strokeColor=#6c8ebf;" vertex="1" parent="MtbFZLAjJCo8aDqhIow3-1">
          <mxGeometry x="910" y="169.5" width="250" height="47" as="geometry" />
        </mxCell>
        <mxCell id="5vBisK9FL0qeisiTuJpV-12" style="edgeStyle=orthogonalEdgeStyle;rounded=0;orthogonalLoop=1;jettySize=auto;html=1;exitX=0;exitY=0.5;exitDx=0;exitDy=0;entryX=1;entryY=0.5;entryDx=0;entryDy=0;fontSize=25;" edge="1" parent="MtbFZLAjJCo8aDqhIow3-1" source="5vBisK9FL0qeisiTuJpV-11" target="5vBisK9FL0qeisiTuJpV-4">
          <mxGeometry relative="1" as="geometry" />
        </mxCell>
        <mxCell id="5vBisK9FL0qeisiTuJpV-11" value="Videos" style="rounded=0;whiteSpace=wrap;html=1;shadow=1;fillColor=#ffe6cc;fontSize=25;strokeColor=#d79b00;" vertex="1" parent="MtbFZLAjJCo8aDqhIow3-1">
          <mxGeometry x="910" y="266.5" width="250" height="47" as="geometry" />
        </mxCell>
        <mxCell id="5vBisK9FL0qeisiTuJpV-14" style="edgeStyle=orthogonalEdgeStyle;rounded=0;orthogonalLoop=1;jettySize=auto;html=1;exitX=0;exitY=0.5;exitDx=0;exitDy=0;entryX=1;entryY=0.5;entryDx=0;entryDy=0;fontSize=25;" edge="1" parent="MtbFZLAjJCo8aDqhIow3-1" source="5vBisK9FL0qeisiTuJpV-13" target="5vBisK9FL0qeisiTuJpV-5">
          <mxGeometry relative="1" as="geometry" />
        </mxCell>
        <mxCell id="5vBisK9FL0qeisiTuJpV-13" value="Videos" style="rounded=0;whiteSpace=wrap;html=1;shadow=1;fillColor=#ffe6cc;fontSize=25;strokeColor=#d79b00;" vertex="1" parent="MtbFZLAjJCo8aDqhIow3-1">
          <mxGeometry x="910" y="475.5" width="250" height="47" as="geometry" />
        </mxCell>
        <mxCell id="5vBisK9FL0qeisiTuJpV-16" style="edgeStyle=orthogonalEdgeStyle;rounded=0;orthogonalLoop=1;jettySize=auto;html=1;exitX=0;exitY=0.5;exitDx=0;exitDy=0;entryX=1;entryY=0.5;entryDx=0;entryDy=0;fontSize=25;" edge="1" parent="MtbFZLAjJCo8aDqhIow3-1" source="5vBisK9FL0qeisiTuJpV-15" target="5vBisK9FL0qeisiTuJpV-6">
          <mxGeometry relative="1" as="geometry" />
        </mxCell>
        <mxCell id="5vBisK9FL0qeisiTuJpV-15" value="Selection" style="rounded=0;whiteSpace=wrap;html=1;shadow=1;fillColor=#dae8fc;fontSize=25;strokeColor=#6c8ebf;" vertex="1" parent="MtbFZLAjJCo8aDqhIow3-1">
          <mxGeometry x="910" y="602.5" width="250" height="47" as="geometry" />
        </mxCell>
      </root>
    </mxGraphModel>
  </diagram>
  <diagram id="LW2BibcSERE67Nz0Oc_A" name="05 - inputs">
    <mxGraphModel dx="1155" dy="568" grid="1" gridSize="10" guides="1" tooltips="1" connect="1" arrows="1" fold="1" page="1" pageScale="1" pageWidth="1920" pageHeight="1200" math="0" shadow="0">
      <root>
        <mxCell id="NQW5nkMdx4vZuzjPpbhx-0" />
        <mxCell id="NQW5nkMdx4vZuzjPpbhx-1" parent="NQW5nkMdx4vZuzjPpbhx-0" />
        <mxCell id="w5Ww9ePDF5P5mWdbAL3H-0" value="" style="shape=image;verticalLabelPosition=bottom;labelBackgroundColor=#ffffff;verticalAlign=top;aspect=fixed;imageAspect=0;image=data:image/png,iVBORw0KGgoAAAANSUhEUgAAA4oAAALWCAMAAAA3aJ3yAAAAdVBMVEVHcEw52AAgQVjx8/QJLEX+7YATNU8AIkD///+e//8zWnDf4+fK0dhec4Z1xc0rTWWS7/FLi5q3wcmmsrxfqLlxhJWE2uCDlKM6c4ZLY3iVo7AOTzDm2nocfSBwfFwpphLIwnJJXFKIp78ywgiurWzKzsKPlWQnT/63AAAAAXRSTlMAQObYZgAASMNJREFUeNrsnI1yqjwQhs9AjPxplF9hHEdnnN7/JX5JSEISUKG1n7V93zOnLQgrhDzsZrPw7x8EQT9BpVCdhhEEQS9QmNYSQoFiDQ4h6JU01j2KGZoCgl6rnUBxh3aAoFcrK//V8o+GkTUEQf+7CGskgvU/MU5MGVoEgl4llorx4j8BJEiEoFeyKCgUKDZoCwh6pRqFIpwiBL3cLQoUkbGBoJeKKBTREhD0WgFFCAKKEAQBRQgCihAEAUUIAooQBAFFCAKKEAQBRQgCihAEAUUIAooQBAFFCAKKEAQBRQgCihAEAUUIAooQBAFFCAKKEAQBRQgCihAEAUUIAooQBAFFCAKKEAQBRQgCihAEAUUIAooQBAFFCAKKQBGCgCIEQUARgoAiBEFAEYKAIgRBQBGCgCIEQUARgoAiBEFAEYKAIgRBQBF6SyVk0dZA8VuVZ1IB+uUM0b6x8l9yOpuo8E8tu90xuqgCit+pNJJi9zpgU5G3bGzWtM81GPSNlf6OvlhF4eDoaH9qod8xBhRZGDVA8VtRbBjXPda6aOp+mGWbn97Y2dQthqYZ+6xBIpqq+iUoOiQKFFtxdgN5XK2N4m9j8Qei+JCoaRTTH3RdkjaxF9hwY2dTnu1rg57N/44iPezLA3tyZJK47UAd6qZX8l1aoPjpq3gJvozidID6ahRpMvSkJoqo1X30GbFu4tzou6FIyrhXaa4CZY8ce5DQB83nXb85KPJ2DilQ/KSOq9OXUbwZ2b60JYtoyJ6wAT9OSnjXf7wdits43m33Zc1/aQDLePuAxDhmj5ovI4tR5CF/DhSB4h0U+cGYXGBupQW/BcX2/0VxH8eHPjysy/XTUKR+rDkPxWRqK6D4XiguH+mQBSg2xhWS6MEJ/USvSO46xe1oqwkUyTIUKytXugDFH5Uh+D9RvHycV8fzh2nly/W4Ol4veul8WlOxxTWwN1idrye9wfm84ga4TvNQbLNcjwWarOudTCb+dfadsUijrLEuCm2yMMytzE7Lt0iLocMHXRpGad4sGGds8jAKM8sG6zJuQt3JCT8k8Tk/tE5HqK0bnzJ53PnGtRnmGwtFx6bsoPxbsy5wTpWfyeZ5KO63e0XT9qBWHba7eFeXVnOVdbzb6uU6Ll3mtluxA/+5LXVWh6/gawaD2zqOa7EFm7YpLnv3KRQ75+QJ+xsoktOq11HB9yH+5v8VV6fV9cLR5GuORK9ZyeXVUXb6y8roMg/FwLgUEqqsaT+7lNk9MYpCvsagyHh3DfkaQ3HXb2HSrolYFtNU4ez8Wy72EDa052vD3majXZ9W53WtQsWnrP+4sXsRxyqKCoOia5N3vLw/cHOYjdhDbJEGz0Jxq8Gq470ZCsY1R8k4uoPgii+bz2vH45HYSJlK+J+73bBcDlvQaZvj+HQuis70RhJGKf0LKHLyuL8j3NNRvXwi3A9qFk+cyyuVxH2sFXrCgxLuDVVLUsoDVP6TkpkBaq77/kbnJAOuwkKRc5XxoxLduO/ClDsSJvt1ZzpwRde001hzqvNA3EGL2det6vcNNmljvrWga1Jpm5TSIsqtM2tUwMW/TH2rOHA7nOKH1fHD4iYUir7NdcYhJOsg072Nb9Bw87R1y2vujRU3Ru1MFNVQkB7qvQGr5IdlhogHTqrjfCilPGi1r+peFLDRUu9BKGVxnIgt1tM2xY0q+RSKzlRQHkVvXIEzH8VAE6aGAUQjeF0dtQ+8yj/O6vdJfWAPHBaOFQ2BhZ386CwU8yjtA0A939uoFXpET/UHheqyiZndmz1ezPS3E2+FNb3ujBVN32qd/Gk2oMgZLfQpJpM2W/UB0TmgxoynyMwA1fLW6UwUzQribbGP68HJbffOXWw6bWOFst5YcWSzHTE2E0VqD8WLP4Li1cSdJvqk2vldHPKuq7N2m/SLaRuqnAoJo3YSxcA0vvI4eg/T780cn54Q/sTEcG5HxHbPsY7LRVEfTufkTy0UN/qGEBhoPZvmS/UZ2LOVMwPUwqiZjWLt5ijjWB3WLk6G6JLTeHiEYjmYclEc26yiiHwKxbUNH0uj7C8EqEfl6wY0Vdi5Vu7RoPihPrmIYSX5WgZVdXB3cs5CsTUuTvX9Ib2tKBiiWRXCkjAKq2VXjEOQJ07Amhq4qmkUm34T5xZio9hpF6fTNiObpqxL16Hw3+mGPDeDOhWgbu1T3cc74+QMfAcxoIxrjQWZRnHY1UNxbLMadcG5KLrFb+88szEbRROPap0Nmsc+ch2hKNM2q+uJfAHFtvcEhZNgs1CsjKdQKHJvo0ZHisFhFlinUhKR+ciqJZdNJlCKdrhBZOpLBrg8FJm8RyTu/L41VjQ+T6Po2yTmfm+SV2JcKXKufubi6Wmb3ZA/5a7t0MtJnZKDSIrSG14xKbe1SNzcQHFsczNy+DNRfDhX9AtRDHwUj3roqKEco7gOxGRGn7z5JIprGW+SMEqmUezMsacmHnXHR6EJEQ2UtJFl/sUC19jm0uBmIFOrmEaxPx43PrW94nAwCkXf5lCxQw2UrBB3kbCZO1Zck0FzUVwn0uXtDgOZXobU+DYzrHRRpHLqohTTFdMojm0mo+rc+Wmb9q+hSMYoXt2/JlAUUerHcWWFtotR7ESX9XqbhWJjBhkKRe45Kq1Nv74wpgcuWJNFyzLfpBUcVDoDZL7kxliRH1kmvrK9ieLIK7o26dgryk7bpZHL93PTNr3LK3d6ooF7sL1W4u9bT3lFUse12JLs73hFz2bw2cmM5P7zdL91rPixcKw4bDnMIy5GMRGhS+HWVFgobszFUSiOcnFDysV7pqaKllZqiHkFYg0E1xOjWjtCpcyrP7VQ1Plcg+LI5misqLt64S7fQzE0yhagqDwb6Xmqb1kv43jKKyaxysXcQnHKZuinPmeiOM73/AEUzx5gHzqjGjxCkVoOdXnhG19Bwii4gWJrbqcKxdH9tdM4MH9YkVrw0Goz45LqtOdmIpfpo8jNV41Xf2qNFU06VKM4smlC2MrrgNRN2T95rKgzMwqewzAvP9530ivuNaE3veKEzcLLUc9FMXNauG3YH0CRXLwamUAvayZHKJKJYebZy8M+RrGJ8o13nSwUzfRcon2cP/FgCDR1oXQiYE2jezX+1PPBZFSnZc/6DQeeebcFyysyzVMzTB92/g0/cJgk64mA9YsZVD3hkOiAlAy49Ke684eI2iMH5hM7FJUoMmXbrCWxTfrI5kSgOQ9F98ZbRe8cri6otjn3RJHTmai4U1bAXaxqGxfFa18hR6/W/KKaa7xdbjNCkbd2Nho/ZlaHlx8mptqGqXxMUFQ6Qg1Zj1G/ogrl446ksXq0qIWLbo4caZrLK8xS3et1cJsMcxxtb44EFmz+81EWiqKWhqnuk0zaJGqWrNP9K09ltxP1cE8rfFPcHHQRGt1tA8VZbZjc99mcRCdr5BZJHe+CgduDOXemcjGiFMCcft2Xy7FJm2P3NhdFtwQ1GwoPfzeKQV/LbYpOxfJZpEivZBLFQGRPz9dhB9mYx37dx2wUZQMPD+KmXBw7/rPHkfKPsyIXHkh1840szBaFqNSM8DJRR13I4yQiVcn3CO3sR+C8RmWUPhWFoHnB7ZhXPnRiTe74Um5XVIWntqcdvqEVBy4qWdNUVYyLMlluszEjP99mq0+kv4UEYndxql5JyZdQpLs43pZ1XG4VHLKQ23sYURR771RRKpUVpbVYHuYZRU5UVIXXauQY12W5i/e7IW5NpBEzNenadEcaC1D0qjWKKHrjBzWWPJlBPuTUxPniLB81ZxPzimdZ+321A9vgurJ3moHixmcmct5ARERiM+ys1A7L+pS/5pd0soTa9N9Wfh5llXN7vRugdnL2IyyYhZY9u9FvJLfpqOWwW/ssvOkPcYsQBlKThPFtBrmcAdVGSJXJ/fN2/TQUhXPj5Bw4HH0ESQWGYmZx6PMHuabW4CUSQ76FFUX0T/arVf1CnXCua/d7+tTqhM0+bUUXoujH9DT66gNn74KiHDG67UMvD5IdwSUgIxsXumCsOEPj1zkw7/0N/vscgpZRL8/64HsJa70zIYn/2s7xNg9aMwlGazybzFseHfjXn1ccveuCsMQ/Ve+9X5SN3o/h7ETUYRP7/GjiHLpvU0zvkEUokjxyn/xPoihb/xUUv19plL7iPajhW742Tb4sNP0lb3yjDoucOvcVr4VYtFHkJKaBn+jaAMUnovjwPajfIPaeJf2/6z2oxE7dPH4Pavcfe2e43KoKhdGJMigkQU2pMXWc/Mj7v+MFBFTUqGl6m/R8a86cSYxg2mF1wwZltPbb3aUDFZ8jBTf8z7/S43s+Ooy0v6y/st6E9Mbiox9t1DCyDzLq2pwTqPjmfLxxEhz4rs1bP4oRKoI/A3nrNXBQEQCoCACAigBARQAAVAQAKgIAoCIAUBEAABUBgIoAAKgIAFQEAEBFAKAiAAAqAgAVAQBQEQCoCACAigBARQAAVAQAKgIAoCIAUBEAABUBgIoAAKgIAFQEAEBFAKAiAAAqAgAVoSIAUBEAABUBgIoAAKgIAFQEAEBFAKAiAAAqAgAVAQBQEQCoCACAigBARQAAVAQAKgIAoCIAUBEAABUBgIoAAKgIAFQEAEBFAKDia0N4cCCKutc0+6GrZheOJgSgYg96iIe6ZfGe+DeH+EeM+dyn6QeaEICKvRC4D5y4xOln9+6YxpcfMDFND18XNCHwriqSQuR5KasuoslSH/hGJ5KGJvK0b6Kx5vnO7NMz2g94DxV5RxfAcmYQ/qT2PSsev84pPYVqnsMIFtPn/+oytB/wHioyT+mPlaysKMmKrFNTVITyYrUqEY8WPDulh7GtB6gI/mEVS9HiQ17EWDU4p2Is2lZrHgTQKE2PgwPHNB5VGcXDLutyp3dFBxUDRfA2KnppSGceGZwjexHzMRW/woB3SL/Gpc7pfstFLvFx6ZRDekT7AS+jIlmpYi8IJoGK4nsqkjDeZZM9RxU7t8xoHJZP/0DaBvyKikK0bZMKYVs6Kcqc5UJ2vUEuS1Z27x9RMVJV5KKngc64slK0RzIhhO32Vr47mkZBlNxPy7VlDpDu03hhKPg1FXwB+HEVczvIo4xZJ3PG8rKX/CSFeq0PVjMqFlIqkaSmrUG9UOLp9+7EKjdVdAWj0mZ+hA7AvMsEVXP90/20Iht7qNE+3d8fxH5ifh+8hoqClTpuREVuY5gysSDKL8botIplkFGlnVjShlX1ihqnrWnK97yi+iLmDEKpOlKo/6nrGoczGclMguZz/qe8HCf4jNMDvR8VoSJ4BRVJFw29NZV1VE6ryDlXknHOedv3I+qVElofsAHIFS1cMkeynAaD0mCsGHY8STqdTrmk6ZxZp3SG052h8HFrThaAH1NRDrufTh/usqRuMqMsVo4VuZvZIHl7kWhiuBmoGAfZk2xmZQ2fT8ScP6aZX2L6tY/VhwTtB7xGB5XJ/mjKB0PihAq7n4sqFiz3fdnKnh5tV3FSuWz74rdjOpeZ0XH0hGlF8CJpGz30K/2yGWWPrFrcGcrBzBCtVFGy0lZRtvoW4eljFcMsTTTfQd24liAh+7n1chE/nlJM8YPXUDEhlcnDlFkyjIE+vbl5MkOwYSKHSB8mZ1U8hb3IdHoMp0LcXIeSTENP6b27q05I24AXUVG/qbQ9mT1BFI7oMRUlK30V3GZtllT8GE9mnKe+/2caJ1vTNnfj3hkqgtdRUY/BciuTCNI421UkRbgKrvATI7MqKsVIINZp6vt/zC8IP8VTpOn9lW1QEbyWij5yjVeTbo6KVWgeD1ePj1WMwth1nJy1oFvnHo7xwsI2LHwDv6Ni6af8rIqk61W24XGkzWYVSR5G1nK8WlwES+XCMRuZlO648Y7Fz8WHZZwwrwh+RUXBcmIXtxkVeS6plUv68NjOQAj6oIr6Y1OEu1WonDFTW9bdZ2VX80TOrMvEItRxgmbbElQdWk8Lp+xxZwb4FRU5Y0zInBV29l07WQpRqv+tFLRdqZ17AxljeZ4z/S9bp6L2LDdVCD981JWqA6XTi+aM6evKzrJD2Bc9jwd28aapDFXn0gR+nOJxb+A3VDQrtVnJk5K5uyTMszHy7v57Upgj/r6K3tTEWhUTO0HSdXUz0V6lMyOyR2aHgZfRLP/m+X3ytdSdJbiLH/ySignJeBApKA8fbkF59N3lYCTLgioiHnhBs8GRSyjaObirItr/wA1NMab4wS+p+LocQxc/Bi7qZzM+f73oKd0fIyxDBVCxH0gvYW9xkLrZ/8hNvvSQ4pHEACoGXELZPnvpzcv5py56OqMJAagIAFQEAEBFAKAiAAAqAgAVAQBQEQCoCACAigBARQAAVAQAKgIAoCIAUBG/CACg4qtC/sKzayie+gEV374RH+I/0IwPMR6GBRVfOeBVxdJjpPRTOL55kabZWqRu6if/oMc0xiN4oOKvIMpq+aSKBQ+aG8fE0MTmevWP6CDX2wplmt2u6ZXWTMlyu/q6yG53++7P3/+emiN2vIKKYePmAx5+QBOvZFHNP9Q0Z09RcbTzxnW381+57r2e59pT8bYzTJRS+j1VxWt4lc+Nz0UHf17Fig14UEVetsVL/h0Vk6CDGoUPkRy3X9XEk56KazqSvQ4qqeu6WVTxGR3U/vd0f1UOaOhQsdfkeGlQFmnEgyZqC6UUOWPyOyomJCg03FJgYr/UQMUH/pLUyyo+gbGKUYzdPaDiZGz8RneJ5HZbACLz7FsqJndV/BoHkqbXd6wf0ueZKpI7I9RRH/ec7tHSoeKDKs40tax75D9Jfk7Fqc2oAhV/LSoSUjfXXbNFxSjF9h7/moqFyFkpI/+OJ1yWLJdkVkWiiuR+lygiFCShMleF1HspSFUyQZOibDeUGotcuMJSVE5FVSkrZWY/zzKhR5aVcOPLQhi83uq12XdHCCfxMdycyjTx6yAqkua2uzX2J6tdcrS5WknajGlzT0Vl1O5aexXrtoj3slaliTrn1mVE66tN/zjdzIHb4DL97+kYbqNFI7T7P64iFYyxnLHc/gkWrCgYK3M2v5tpVJoSzG4DR8xON9RkZnSZkhX6YyGZHRuO93D0ex2XNrDlrBAsz5nde04yaXazKvSx0hYZ5I14l0qq5vunSd1LwmgVlYhaiXoYirwIrTHXOyo2urg6xanYtEXqnlP6Ircu8XrV2qn3TV33qjBfg0x+z8ke6ufyfnXgzVVUBnBi9nmK3HumN4CS/X2KByrSnIlIb9XofCJEsKpkkhdWRWVHZqzi7d7G6khBFlQ0fwuyvL2QZEwSajaaU/+bSEkVVaciUW9zVuij7tBpobHW2rLaqHAdqnh19hHF9Z6KetaRJKTx9ukS9UBFVTsxxRp3QH9Y39ykpv2E1JMTlsnAvn7nG3tg/XEVuTXObx0sbJih/S1PByoWdtfEzNmrCxmnKlNHq5ephrTuRNo0ye+qmEf26xSJ2zRO2Op472uQ+bHi0r6odadgq844Kk70FYcq3oIqRgNH77k7s1PyNjssnObS3xN9DxX/uorC7dVdWNv8Tt35jIrEp1iEP0O0XVOnYmWKc6OiMYxKs7mijOZVrNyBsu2g+vrLrnd7X8WJvVJDFWunTjMdFZdUbHpVzKk4rNNf1NfTrM0e8X7e5hj/yG4+4HVU9M3ZhceRJaGKXTCUfpZQtDlSaubcJ1RUgbEwY8liSUVpurR9FcXTVXQRazIqkvsq3pKVKjZjFf2L26rs63CnV4LFN39bReLtiGzHdFFF9bpqkS6idrE1mVNRNy3pdxmfV7Ewts1ERX5XxaVd4OpeJuX6WFS8blZRae/HjL3hpE7CruigImv676gY+QSkGxsuqlj01sGVYYfznopt6pUuqkgfjIqn5bFiPTBqe1S8+fzOkoq+mqaNgeTWzSrWV5N1XboD5Jim2JP131GRbo+KSpbCUW1Tcb4XvC4q3lfxY2HV5lOi4loVu2p0IkdPRg6SNXVz2+0WM6gxmvq/OFbM1o4V+cTKm7UqkrnQ+4yxomq65IfHius7qF01tZnKvI5i4HVpwc4HFoT/UyqWLmFazfUdQxUpGy9SW6tiNhd6exlUkTw4VowW7vHzUn0rg0o2RkUyWujdlbrbRaWDdXzkeEbe5m+r6OYwvJOLKg5zNGtUjPz8vrRquoQPZ91qm76r66KiCG5fXBgs1r0VMnXfMnK7HxXr/pvBxP2KqFjPTSMurU4/Du74+kgXYj54dxXdXRPSLdleVjGyS94iWaxSkZasrHQBKhmT7g9A1lbbrbYp2rxOTpK1Y0XZfquIrks51naJjJ/qt2LVw2FboKINXmTQq2x2q6NibZabKtwp9lkC5LowvzhYsUDSNMV9/f+xdy7KbeJQGJ6VZHEWREmhhIW6jj1h/P6PuJJAAjDX2Onk8n8728YOVonQp3N0gXxtFc3+tacfP57ml/xuVAz+sx8xG1GboPL8rN94fv45FxX/M3tLn8wH/v3RtD5p96g+//vrh1fxuTmNJ7cHdRwVfzw/mY2x+o9n55stRRf7q2u9alnF12Y76Gtve+gfnZ36ZPL1tdkcquknpeZD7aKg0Va/8lHxT/MR8+fvyago2l2qzX64pgRdxMvaFGpBvN+vRFDxy6sYMONhd3/9BhWDxH7k6WdvO/i/3V3Bt2NF8au5i797gI29rV+//OVVZD/taSRBMB0Vn7slFNadut3E83N6eHWr4mvw0jnRRiYto/6OH9f9M7yJwrvkd5C+NC+cmy/dR/7MTAX9NjHR9gDtd5obNV4W09NkZF6MBPXrq2iue7L3KgsW7pxFYCETw9fy9pDdjU0mg2LK9dDxe2CA+L1h44t5rka/hLcp0R8b6gKXC2Hj/Qo5YePbd1Dx6/DhnpTWe+7N6z+bH+vIIsrEaEoKW2+g4mdClB/sBoYuT91z4//tHj5+7/NdAVT8y5QfK48zs7R245t5fMDmzLYsboeOeLoGVAT3hUU/E3THtEuOnTdQEdw9Wnx5fX19ebnvYY2YPYWKAACoCABUBABARQCgIgAAKgIAFQEAUBEAqAgAgIoAQEUAAFQE4NupGJbvcfsebtgBYKeKFVGU7yu9VJbuvr+0eYP1Cs1xEQDYpWJZKFr5DUtjYrJ0d41HzRu9X0TDdxYJAMaKQZBTtFNFnmh65mmGzxiFiwDsV5Ht/I1E8ZS6cviYoxBP5QTgI6gYFMTxOxwAVNylYrjzl4NtUjFQlOJCAKi4R8V45yOKtqkY4sGcAOydtknfQcUgwswNgIq7VCx2PuJ9o4rV4DCR4LIAqLhMtntdcZOKg+WNkFOEaRwAFRepdj7jfaOKrP/A6pSIsAMHQMUVtSgXj1dREsW9yAsVAVRcHSxy4lH1aBWDvnxJRAoJKoCKyyQVEamHqzjc/IaVDQAV10wkUnnJHq2i6CeoAEDFVSpSj9/4ZqdtsA0VQMVdixnvsq4YfrBfKgrAx4+K76JivnOXOQDfXcVivK4YFskDVFSDYssCIRJAxbUop0avl1PLbSoOh4o5IV0FUHGFcqRWSkTV3SoOt6CqlTIBgIpBQjSSaHlnzCYVR7fxZ0RU4MIAqLgEI5Ijq+5OUEU0DIKmTDyREUDFRcZ38SdEUXCfiiIdrVWGtPP+ZAC+mYqCxdHo1uF8ZZtMTKQ0Xb6ZmZd9FbWJEdtVJgDfXcWKiEZ3EmbExYqKK89BrW72fms3scgIoOICeVqNt6etPQlDhpbec1CbNzrXkmzsHZ6LCqDiXtg7PB8qwaMYAVT8EAikpwAqAgCgIgBQESoCABUBAFARAKgIAICKAEBFAABUBAAqAgCgIgBQEQAAFQGAigAAqAgAVAQAQEUAoCIAACoCABUBAFARAKgIAICKAEBFAABUBAAqAgCgIgBQEQAAFQGAigAAqAgAVAQAQEUAoCIAACoCABWhIgBQEQAAFQGAigAAqAgAVAQAQEUAoCIAACoCABUBAFARAKgIAICKAEBFAABUBAAqAgCgIgBQEQAAFQGAiuBTUz62uES+z2mKsGRQEXxhMoofWRzj6j1cFBWnx54oVPyikaVIPumZpxTJB6sdsfc4TUo/bR1Dxce0gWhDXyyJOEz0LvKHuyiJyu/U6j6XiqwcIN48tomLIk5mP85po4riM17y/PEmGr3Vo4sMP2tX90lUlJd7es+YBrzRBJY2H+f5PSoGZTVInmQYfoorHo6DDQsfENAkpwIqfioVj4fTPcMzZYiI7N9v7IdZRBRVRWaKEXeoeJOjpZ/iikdUjd/IHzFyJto3rFvtR9mb+1qo+P4q+th4T4aVEm8aTc7j4NupWN5U3mNUDNRY8WURM7XmmSBiUPFLq8h90xPBR1Px/cNAenOaW1UUa1dlz9C5JErXL1QIFWe4XM+H4/nqa/xSHw/H+uJenU+BNEfUrH/A4Vyf3AHn80EXoJn3scwiijJ3DWKVB6xSxFM2q6IsFOepb06VSlUYiNykofpMcxWGKalSF0VR2OQ9I9EK1Q5zMhU7FUWh/GmEKpYZj/IgSXk7voxVqvR/7jSFfsGJm7eqN18KXbumtq7dzyav+o1jfWoq/HSu3TfOZ1vp9VkEJ3MNetVpX8/X7+inD5VSRJE58Xi6Ps2PlspAVhHxzNaRiBUpFhQRpYPLQLuia06rUVR9o0XFfSqK06Hh2Mp3NV/r/9vrfjrUF90MTOsR7p2DfX042mt2OXguc/9IRUSc/FXNKS05RZyIyxkVk4iIcyLXLpT5tGhmZmyBFeeceG4OihrRsnGgyFx8KFzcVLZMXjY9eKq9JMq5OTXWNiRD2eVSjrereG6r8+B6nYuvPlNd4uK/o7+yP6yux7r5zNWdSN1W8Jltyk/L7sTj6fqU5nsJi4jITpIqKkwtpJWpkWxoTrbnxy1obaInfUzm/AVV1ObVLBA60kn3+iQCeXUunnSjqKVtKFfXYkwEFToath2nlDpB1X9KMX99ctMFu5ahBSITEMv+dRuoKDmpJAi0sK0EQhZUVaTK0s7AVUSVkJH5vOSUNO9kbEVFirRlIW/+oZJISbvgLIVqmodkjCW9qUgpZUbp0k9Wxp6ZQy4nc1amN2t/kKY6Baubrk34Tu96OLfZ/tEERKElFl7nkwykr/GJYDSclpRScip6J35Tn1KmVGrNytymlMpcmsT2UuWwrPkMXcZTpGtbaRRUnEltfN/bXDTfMuq27egYWLftoXZu3gwzlseKfko8awKYiT7ZTZc7ULGwaaido2f+LXs0s2VUtoE0tinrjlBEPO0JMaFis2AdNtG5tCE5t/9Q1YW90RL0ylhRdfFneaDrg18XBdtTrVsDfSW69MIfefL5hpjNOqJgcaw4UZ8pKXNI3NZh7kbTcvijTBTt0mCaY2ENXxZECVScovZ5p88+pWsyl4F5rslc3RGbp20Kd3Hd4pfvxLPeEnJfRemnWJSPmzmRWcRm9iONO6n9Zjv4EAUnIu4HpFMJqntDWRWjJle2Z5i9TcUi8yzPbgin02Wcx7u81P3tK5O5I4+H8+rkklpUcao+02aKJbY12dShnVEZTXHms+uALJtGubnsiZ4rWlj3/e4qHg/1SE132dvw6FV0+dPFjHLEHhW7htImpLnraasZFbvOu/KSFE0wE2EyrWIQyNwGqUzOqRi7MvmjVNyOyzaEmY+RE5Xn6tcfKVsV5WF1fvp2AnWo4lR9pk14arYCLKm4dyJeqtn9cvbyMKg401mfRrMMtW8h10kV7bTNwU0AblFR+YbSLkSvqhgTtUOPTuOinzhNqmgaVh4RpSsqFnaV+W+pKE/12c7bnLppm8O5Z2Nbsb4O3ReiS1QvK//GWoI6VZ+DTW3zKhazCerSNOrM1E1S5hFxCRWnh4qnUXy7DqW8VTFgtW1a161jxW5ys5VyVcWiN/CI/AWOglUVzSpzO28wr2JuG9tDVBQdM0eYjutc13VX0eJqq6+WgwyV+Umaw0jF08SI4GYIwBdVnKrPtD8tPK9iNr8NVUxT0tKkq+RYzNgWFY+9qDinomk+pjnVG1WM/KVpv1pVMSfKHfFU9zyvYiDaWcK/EhVXp21OrssaVDQ7nbvFoab2rr2Kv4mKazldfLubbKDiVH1uVDGd9Wp+2mZxyw0WM2bHitedY8XuyC5vWlaxS4X4xrFiObE7aquKLvT+lbFiyj3TKp7HI8Ceo6d+hnr0tTmOimw9QQ2JwiUVp+pzo4rzG8JDPgmt3CKCJf4ZziPBrq6zZmsq9mcTllWs3OappM0dV1VkExPi+VYVV6OietwM6obZmuu0ir38Q1e17PLTm6goDqPucjLxqJZUnKrPbSru3Q8u07X7jSPcrzidoI7nBHwX7Jy8UVFMDDPPo3nY0WDdrfoWrZOrKk7dKLccFUXFelMUjUSRa0zFoH9vT2ebisWd9/Q44braErdz11q+U/dqHBUnl49u+il+E3yyycRkp4rZvjsWZTS/kuHbJtYV58KivfLidBZt3mk3ZF16u22GKtbNDjlZ9xpI21jmNqW0d03EbufbuopJuybBsnybiinx3LQgkfP/2TsXLUV5GAAfS63cBEUdRUDg4OH9H/FP71BAQZ2d+XebszsqQJHI16RpIGI2+8SdNnozpESRHR4FvEOYh2LKucWvRuArrhmUS9N2y1nsGbedPhDGidXQ21coEpEkR9rJDo8MclyunChEpvQ5C0W0LMhC8yye2DzyXtb/34wi4rncKthOP1c0RHrHoyjSiwo20Dsw/eZ82YQjheAXCumdhGIe/DmKmy3Lww5UluohdOj9jMkUij4NoDgh3Up0y4TucAXjkCgUQ9eh7cgc1AGK5wAEGoC/W33FujQrPHjxl0A0VtrCMKAVOad3HlHtRb3oRvlm0irStDn4jfL1g/jN2ZwjgNN3kkTd42ToE4cs0V1mzE+imLjhkttK0ucPkIr/see8LLkzQ8TWq7r3Wd0WMDKvWLHU5HvXsUUsYTmfGjGyp3y5wckc9k2juIlDljxzJr1QZTA9VjyxHWAPee34AT/mVaEYn+gmYbyZQPGqg4DKeBC20Lm+2pXXLB+8xeBu1HoBnVns2852M2kVqQvSn/8YjYYYg1r+VAOl874+iZHmPoHiaenDbdLTc1rtXfwPR4x9hZP6SVeIaoQHbdQPr1bkL76Y46W7IL//6M6RYyJ/8c2DOE7RO3ccyqeNoM4SQ1fkeZCUPFYvtYJm5Ib4/YdqLNZn+g2PhLJ38Vv5zdI+zTJ9Lv7Hn0OTut8wBYgdN3yva7MoWvk2mZHaNseJCD5LDvqevJjYce0jia38ThDbGROHs9g5fDY2ef6eCUC8PSSpRdHKr5Pbev2BJwNZsShaedcoVjdktWBRtGLFikXRihWLohUrViyKVqxYFK1YsWJRtGLFomjFihWLohUrFkUrVqxYFK1YsShaFK1YsShasWLFomjl18lfc0cUSlOLopX/rxzm3CicZb+/Rwnd5fVDLIq/XG7tv/MAwuTJ08K5NKvfzqLvuMH1ZFH8u6ReP3yE859wtaId+hkSi7IcgS5bNd/2Dcpm5IBlWSxs5uomrzyRx6L4mwX/PIqx5/0ZFE+mTSxWY/avWRXf9hVWY22vFrP/YtmdX4ciRrVFUGvDcFBJ/XkukI/+PIo4NuIa/uDxjaMoZqvV5k+jWP6jKN7Wa0vgpOTf8HCbnbf/8yhuzecND8vqjKL4nUZxHMVmMYqHwalYFC2KP40iJjNRTIcFMsAA4s2MZb8OxfOjAq6/GkVsoJi/stuSlR9o/8/o4v+MIibI3x6c60wUk2FJvDHsyu80iuMoLj/k6bXyfp9FEd/u+TrXNTJwW63zStX/bquaVSHOdUXwuoKPldyjrWjplYrK1GmGSXiiMzeOG4ianeQcOk7SrSef0IIrB7EahYcNugZu2ClmcYItQlXc7RymG/8QuMEVjzcxdpDFI7IbPbX8jsRpd6MxVUWX1i07eT04bKueJuqq4gWEqmqcRxJF8gtfoki820c77+uIzOX76MhAi6LI877gb3ThK2Qb0FgsUSTHL2hDq89nnx8QmtLyN93SJX31XcMwYLV+EnnNopFnD48MC3t0ZmUD47hOlDUrmlWjP7P1Kx3/LEoWDM3K1UpFSnkbBdYo0iVN8RaKqRv8OIqI11tRtaVoLSlWTkr8andaHZAvEajSWja83gq/JtdSpkwjLRGTiIrxfJgf06JHDiwlqoN1ncBh27H1rgOb0AWysiah5VpoIalUDbNPLtsiHG9i5CCLpZVnyjCqdb1SVh4Ki5NnW8hr/M5VoVBUypl6QviXdxTvIvGOAGjeDv4JRvfejr85eoxJ31NykTaSvyGe5wsULzvahPclvhfeizYv04MlN0hC1zmlMR5Tny6GHigjOSzghovikYUColaUNeU/ZmJBoWwc/9xgNfaEbelfNQjlH9Rn2Lfot0G3KZbOY/qv1d35JIqsuh+G/j/nj7DGHMI6l2Dd4VKjBlFVDLzxN+QmKkthQmARAcGTfk/qhin8yrHDC2EShxV8SlVNlhPvYNE2OAsUwb7FG7xVYMFFkmJWPw4J8ByXVpW6yuLYZhPDgwxOfavEn9jiRiv90M4KcVXRlyrPGWNMPzV7yqnW1obqoTt0ho/goD7QDoCGexwBkjsfTjWSXqaJIiicgIPaaXMERS9CG3wBFuVRvD3ekKPnkamxEuvkYsfxx9UHRzu5Dj0oUT6dM8Nd7xpFEdTBhTRhsLLE3WBPkWG+nWAV4wzMIZi8TGYJ0HXZBoMhxArejNvNdzhIfx7Fdp2TrgplOWJVR/cu3mC5QNcgxrPDNj6takhoyA3x353XK/UlWKqIrmgSUOSV/0RJTxohYJcIDsSWiSi+QmQRFrOJ4UGG2lfyOHomTz2nfRDiJvDWK0lT92oj1n11PB4rIoEPcMOJ8+WCnbCSJorDseIIihEWBPK+T24RKRtsiKPq1IaT6jPGitdZPl3fKJbmylLw1RiB2KaDckOpazjRWFk/5aByzzVbvZPR4wc/PlZERkEHXRm+kmWIJXm5WFMN6yLNQJEXhg5YyS+iKqeEojySWcE6lnWkY0Faoq8Q7hWpkEEw0cTwIIPgxkHJkzRKUeX1TpkCc0hf2p7ecM//XISi8lAj9aotGXkZRSQXHHkTok3gfNQ6K4VL8sbUZ5jBWdXDe4SYKGqLaXDUMaWZcEWblXRx8WjYBr+O4pYV2kU/jOLNKASP1DUl8RqgeOsUTp0bQfWFo+n7/Y72KkwZAJb4/SsDyd76yl/OqiWfk3foo2g2MTzI6yIcgZa+AINUEfc+X93CGHgZioI05Z8qyqR5fANF4DzqGUM8EVvtohhPqc+wiskcQ9KjjzuXY8bPmHrso8haEBnlg2mKD6BIoxjBa9WvPohia9gz7WlJSBWKsgA4D9u09UKrmHaD4q4Yo6mOlQVlDukQRe6QYlULUIbtFIqq0zaaGDnIS9HlSkeomFNarRF9yUWXReQWt1etouBH+qcAy165rpd3URQmFizvhYsEfuigbuWQG0+p7wUH1XAbWdhG01iCc5llBfxXKGYFi6Hq3YwWBnMXH0CR+OnBfa185QdRvBv2TFtJWRVwgCKs4vXA60Uoon4vZIbjUl7QemuiyCtfxypuTpTHaqJoNDF2EIOzjox/7ZpOVNzv95zrAFFlwf98Tc0gFmfOtnjDKgqTFQm4kIqLEgHlB1D0vEHUdRDlZrFqJBNoxtRnOKjnGZGOgUtashhppsmUUsolTQnSs4q4h/bnURRD4/+fVeRX271rCBaiCD3vSYr2C3B6cKTxM60imWEVjSbGD7IobAPeOp9SFA4qjAgxgrdgGBHvwuDE+XTrG1aR20MsAiwKwI9axZ0X7aWgyRDq4Qzq4+GyUfUZVnH7vNj3GB+MxkJaxUJKJkg0YzB9FPEIitknUPz5yYxbd65s062QOxgrVv0AD6n0BTdnrIh6DIxfD3SuAptjxfPjsaIRlFFNTB5Efw1HyXUquox7QWNg8AZcteu65ktUCOsdq8gAusjAiqYs/shY8fgwcNr9ieg8Ynia/o2wgaL8KRYYRdFQIyYezMCpMnHZlFXcfJdV/PkpfrM4tZqyUK7rFIrdAP5Cq4gGCf2djjbuoYiEkQtliOAk1kyhqJqYPsiCaE3VC9uALmrAEE63vXFlqHjzO1aRgXJUbH1J4C4fiaDu+Z5fI13A+Rx3As4O6c4JjqnPTHwLnqVQT+GRaeOHR0eWk1aRGtIXUMTb05M8j+1rAYVPzivmxtSEJBDreUUzbDMMvvan1Z6iOJh42BDNERIopr25i5OegUw2oyiaTQwP8vJAGouxIpzyrYKTBie15T2YXIEeoVg9u30RPFS8U5FNOYehmLwIsMhOoxjpt535kL1G0ZcLkFgwHCKC/+AQfSkaVmFEfakMs46PHYdSGEYR60gqFubRDJwWvQ2GDupg+nAWigc4VfxkrPjjOaj0Plf6e6D7TV5UlDhcSefMRJGIlEykM0xoHgpbh2aiCKSxwvLowP0hEiTcGAbigohFhhtwxYnDgRsSFl0QV4OJ4qCJwUFe8t5rrgvRX4FbSk8ar/P7WgwiWXdEkwXbSRRbvtFkMhKdzN9rswWfvgizZGL0GHPTFu88zZ9Im0FEgEkzdlhym0SRZc35Ct6jSHm7RKTzI7j6Jj3ALLiez+dtvJlUHxGD6lh/3i4xilgET7NGmrZCgJSVMoutFPhNWcVNI1YVJZ6NInbcZz7S9edvksIsBsiynrG8/vJ7pQOkJoo0qphX3S3UTvl63As40UTiIAz12i1N3Kbpx7xbTmlyaXKg3bQvr4MAltDdiBzYiT1Om1EUB00MDvKCblimN9B3E0aPiGmNXGaZ0tSbewuObCu1UeUgoA0Q2fkQFoc1/fvucQCsjsMJAO2iaKcX0eTvY+R97TWKhHIZSWtIs1KjIwC9UyjS3O8vnYNKeAJ5p1EKUvf6vMoQVoIm1XemeaqJo7rV82PVFsMZfRofbTqgFXJJqT8WzaosRRZq0TT/sXc2zGrqWgCdRzJh8yUeEBHbe+/rvM77/z/xkgACiHI8reDUtWZ6WlTRg65mJ9nJttk2/9OjjuZ//ulzTj/VKkYyadCvyDafzLBuuXzu73/r0fFP48+r6Jv/f2/Sx72h0N+nN43+x2kY3JvGSkRU2b6KObtVASpPL/8lp/ZZqk/l9jL7jLjy/RsB6uQU1y/yhQknN2vzX3PJrWlbv5+X3Hh3seyilZ9tn/t7n/99+XW9ZvLn7zsR6ig31Nu5TO6wP7a53Ad9GkSl7rZg34p1ap9w7FTcO733fRuoP+xDgl04mlMaBmVpUpZlHnUph7OXr7C3SH+J43th3bUc+q9mznC4MsPdcllW8Vd7pNs8ty73e9gwNifpzvEpFSuRhVg6fpFV/N6P0bdVL+0Aob0fnr46h/fYasE0HL9oWvUncMM2Ok2nz7j/CqNTzL7I4w1jeyluLqe9bJfh3T/Nj7vv4zDq+tn3nY5+ETOzf4YZ/m76+tpcXb76JOPHGG/+W5vcuXxeNXxnRt2J6/6aHT79drUR4/iGb9+a898bDtWPbuZYLKUZ+7mUL6Hiy5EuzkT8Ueh9EG77Dqqy6oO5B76Uobr56F+cXfit5Ivfp0KkTA0qvrmKejdtFFen309iaSxm+klFNyO7b/+8zBVWy+OjubAl8buraE7HYL/1HsahbRS0r70k+tQew4OINX/9/Zc/NcecllmOim+t4r4f59y0WbxknP55Vz75WioNKrqwJ3ubve4Ph9NLXPJzFqkoyysfUBEAFQEAFQFQEQBQEQAVAQAVAVARAFARABUBABUBUBEAUPH3o8PK4/MHVNxaxLN6bF0rACo+g0wkK1M+f0DFbTG/vt83ACr+Ol+sMAKAiqgIqPgH4i0XEQNAxeej32tzVEDFr7ty49+/CyUhHz68rYplXPlJplTWTeilRaZE2sJNVro4izPjalYot5GkTs6REhUXur3/7JdRfZfJ+23dwzwSifLRJGG6pG/MpCK8sYqZFGeRSC41nEoRUYOCYEZEJPVc8RhXks+V0LJ/mr1tTa2cfX4Z25/J5RyRGm26aaK+BtTtt8KHD2+sopJC+14s0pjilbZSShqL6gqGmUyqWPKqaLdDL5LaQd2VDDEiKvULkVq7tqBkKFLW5zBV3O+fXogs7aYeoyK8tYrNxLqZFOMxqhcjE2dJIqOdzstm8sE4h5tip1XTbpaXaYk+Jk1E5O5G6aZcqpEH8GermF+ax0kbdR7omjmbRrJWTfFu4/5K3futmh3Tu7LeQ3Qs0R3T4khE0SgCKroI0sze4VS0FnnjKoBt1e8ZFUORKLkapPEWfmfJmcsAVHQRZFv2M8niSCkZqhiPnuPqLyi5qaLrGKoseaAuRloV0ZcreQP8SSpW7bhN5aYy8lwNVRxGpjoXUXGWZ7dV9NO8KS79yPSjUcJkBqBi1yqmSjLvKkAdqpi3UxbhHRXt3edoYaDm+q3QWQRUtEGlbcNKUdq/p6KWtib0gopN8/lI/gxT/ICKrrFTo37hLRXDblnhoor2rkE7tzgoE7FeEd5axbjT5twcN3MaOrqhYtr5VdxUsesheoP9MRYmM5rfm3lFeGcVxVYA1rE0A6hl0+iZWPph03GAqiTWTd+yeeS1ilnUZA1kg7UWi1P87YkA3lZFJRJnSqToWkOJy0ypsu0T6jhWouK47J5RiKj8HEkeuxTTaxW9SETFeSYyiE+XE99S9puEN+8rhpGIRF0o6VmF7Chq2ajo0sFlmBZXuETvwipn5gPUInZPyQZ9PxOJut8VrFjFD28/bGPCYWhowmY9k7kZL3rt4+/07bwqnTx9aZEUq/gBFV8C2wmtPGwEVNyaVIkIU4uAitu3i0meMbUIqAgA26mYxyR+AryAigCAigCoCACoCICKAICKAKgIAKgIgIoAgIoAqAgAqAiAigCAigCoCACoCICKAICKt5mURQVAxW3YBx98kICKqAiAig+pyA7EgIqfRpexRHmq47i/zdzpCqa73S4IjvXP3elyjo/dfr/r9NT2Pu2bwz7YH+rjw06fjsHO+B/uJwAqzpkYi4gSVYpcbivulYUKgwudit4xCPb1ceuZtvel5mj/2tXHx+DD3r072J8HvgGAinPkIon203zwlrQSkZu1a7Qxpg5Q65+mjT/rw53n++G+80zrXVC3g4fwo1WxljatvQxrj/d8AwAVZ/C6Kon54C1FslAieNxX/AiOTsrati6w3QVH+5CTk9P903eNqA4C+o+AijOUXTHgZPCWEjUsRLykot53kerucvOuCU07FU/uOaFTkRlJQMUZsq4Q+FBFXxv/8yr2jeHh0hOsVbTNqnGpAKgIqLhI3A3QJI+8pZGKpyA4NRyCYx+g9g9ARUDFRS6h6NdV/OiHVAcqHlARUPEBoq7q2y+p+NFxQkVAxa0C1DAIrrqWqAio+BiZqBkVHxq2Mf1c/yMqmiJhXgNQsSMRcUW5dfbIZMbOTVX0R8cvqBjdS+kBeDcVtZKolsPL5JEp/kMTk3pN4+m1KW/e4ePzKoYiIiSkAip2KiYiKo5FDbNt1JKKxqaU7o6db6d9sLeHwd6FnPp4rG84Hj/uqeiJiOLbAKjYR6ORiERp8tl08EaknZ262Heypbu9Oxykgwd95vd8gHomQAVUnLRxoZkM25jlYU6ThsPwUnvhg9FmJpLwbQBUvGoc135LSiK+DICKm6uYdktCAFBxSxUTUYyfAipur2K+MHUJ8KYqhjFdN0BFAEBFAFQEAFQEQEVUBEBFAEBFAFQEAFQEQEUAQEUAVASA11HRS0K2OATYXsVKRJ2REWBrFdMyYzsngJfoK6YibI4PsL2KftRsAA4AqAiAiv7CVt8AqLgKhtoUAK+gYkptCoBXULFiG26AV1AxkZirDvAKKtIqAryAip5Izhw/wOYq+okSiQhSAbZW0ZRKRMgJB9hWRR2JKitm+QE2VjERRVcR4BVUpJ8IgIoAqNgQThPfvJKVGgCbzCvqybEUfA6AiquPoE5W8ZciQsgKsP68opJw3HdktxuAV1jFHxOgAmwRoKrJKn7FvlMAa6uovSoTNVrFn4rkfAwAq29JLGrUVfQLGfcdAVBxBRWzPJnsbJMzfgrgv0D5mkgSPgUAKkkBoCIAoCIAKgIAKgKgIgCgIgAqAgAqAqAiAKAiACoCACoCoKJOqmltb/ZVBFhfRSMi2WhzjIoV+gAbtIplriQaNowmloyaUQDr9xXNZCWwdZGLDLC6in4u5dTNkqsMsLmKfijC2A3A6ipmV/sLn0XRXQRYW8Xoqg3Uio2kAFZXUV3vasr2igCrq6hndt2vxrd5hqsO8GwVp9UTWz2TYRtJtRqANVRMZ4LW8vLvVEQUwzgAz+4rRhJfuRjLeeiqRFx2gGermMYiamJjNsy4OYtiQBXg6Sr6RSTTSf1sNIRqCE8Bnq9iJupchXoSoLI+A2BdFY3MzOeThgqwtoqeiJl5DaYvAFZvFa9UTEkIB1i9rzgzr1iOZi9MmTBuA/B0Fa/TwcddRR0Ji4kBnq9ifDVsM05BrY/mupMAqPi7JzPKSe9RDXJtmmwbIUIFeLaK55F4vlsipccPIEAFWKNVHE9clKK8yQMYTwV4sopeeBYJJyZOlhIrssEBnqyiEZFxo5iImsxtpMz3AzxdxTgvx9Gozqdr+gtWKwKs0Vdc7kuWXHSA7VXUtIkAr6AiAKAiACoCACoCoCIAoCIAKgIAKgKgIgCgIgAqAgAqAqAiAKAiACoCACoCoCIAoCIAKgIAKgKgIgCgIgAq/sveuW6pqYMBdC3IigGQmwDi+z/oSYBAEmCmp2Mdp937RzsifETM5stNBQBUBEBFAEBFAFQEAFQEAFQEQEUAQEUAVAQAVARARQBARQBUBABUBEBFAEBFAFQEAFQEQEUAQEUAVAQAVARARQBARQBUBABUBEBFAEBFAFQEAFQEQEUAQMVnkwre7SchS64BKv42V3Xj3X4SeZxyEf4FFdP6D9x0O/XPVp9xePL1FFcVj6jz96sok6Tab2379l8x8Zo1T72eSsXPb2IoXPybVEzTaLvTpqncVNx369qk+MqZlPo5OfH63LfDqPj0bnKnYok8P1vFyNGvT/r173uS2Pc2bQ8aVF9SUWZquPwVKrqX75cbqA/vesr0GXelRuXI87NVrJJ6/bve9PtUtS+peFO5+DtUzFT31fA39Yz2bxR/vSTwNirKJLEPRJXc/5iK8mf1bH6EipdBZdjz3iqKX1fxUqx+pU6CfIaKIujY/FZZ30FF8R4q7q9U9JO63/+eilHbJ0lf1NsbVxdV0rfL47IoCvO85h60UK1p92Ki9GP2rXRU9GKapNcWVeWe9K53qPo23ervwy1lqk/Q6sBmr/okZtlWpqQ2UxeFFHWh99gKdp/Kla6nrKeSVkV0EuLgJLv6PuQqa0qrorg+sljFebcckeZ5rlSWN3lzXU7RNbEyh5xrbfbOG1tMoR+YkHrTdklMkPwhlnNc5S3OukvZxPFiveimYx5BLzX3JmplhEtvpKJObUlVmX+Wt14U5oGukNH6/MLdtlDvNlmuchq2+21ZTTGrNYEGMZc9EmeD2aE3W4rj9ulUzKUw9XHM2r6SZUuVpMW0wb6yS5vMZ63tAUVazXvI4xD7k+za0Vo0pdVqrIrx/Fhlc8hRrVxtI3He4TxVdvP+9vWLLYRVUTZzkKycz9HkKtMBY7MtWsa8VJyZQ4bzFqo+T4NMb6OiqJJCVxqh04G0UpiqG9mRUiGlrJJa/yuF3WGeLSxtejS7lI6KOqYJUfarWEHMi47Y61qkRehXB4zW8t4vmpRBU0pIkSSRLkhZLCaFMXUJTJKVOn/aO0Vl9jC2CXsSvYdsk/UWol98NA0E18chdifZoZ24ikt5W9+O7mouZ7dqI6WM1eBcvmgwq/nKXMWnekdRVDq3In3sTTVOCH3WbJxiZIvuuTQlaaTIZ8Ob2dJoCGZmO6fWTHcNVsO9jYo6z0Rez8JucMdkvL6iqcFmX1G7PUHpqFjbEP2yxy7mEsLU/bun99q/GZfbu4POTUlpUtv9LKbfR9IKRsue98V/K3FvyzmftV/+34U4uhgepU12t+DtGJyu7mFfUX48mhm0Cvy+4rgopGW6Tg/NfGGnMl3qx3QLEGvODVrW+kjplAsV30tFv5KtUjim+Spa63r3SFfFyh5p+4phTFEl7cWzogjTTqeU2Kk4FaOdT7QrZx0OIlVbQ7rwdrCveTWvPQtxdDGC4ZRlJj4cQXXr/PGwTe53hv+PimuPb5gmCscpOXbTLsP0lFAnwb1lE9f4wyLAyxuoVS29Cr9U4Pu2lM1XcamgkVdvHRW3zqSt4mHMaN1ZV377f5GetaTWkk2pNJpX+OzKqQXr7+JIxdlz0a66Lw3SnYq7EEcX43gYJFQxdbL6sYrNh0vdP1Qxtv3Occq9exVNa/URHWfx0W3149I7DdtMYyW1fd+0JfV9QtshjlWcq7CfKBwVy1DFXUxd5UtbxRefp+GR1rljuy0p64WzovWgnNOYS7GpVG3FqOYsXqzPtIcqhiEOL4bHmlc2FctHk8WmG3amorg2+bTH76oYKTVcJ+a2w4GKZthGZfsl5QftfngXFS+y7s2wZCvDAdO1FxmqKCeTvPapq+J9FW2p4ruYW0Nw2zc1MibVfcsq5U7Fuz+iGpYzMjMR88hLoGLiCLhJuVcxCHF4MQJhOl9FcVMqzptbc6riOE1l3G7xb6uYKofoUEX90AztqjyYRrzu2/3wNipexKU0NvZiSQRtbTnJihcziOm3T10V0/XPLSv6Me9rxb47VVzcjQf1eucfP1LxsJxmKWy1Js99VtxUPMmKQYiTk3jvxOCreFvGcU4bqGWsmuhrDdRSqUdnEScq6hDXZjcu0z3/Ax+o+OSFb3ZAXyQHY4WhinXSX4KBDEfFKGyg7mKWu76ijdKvDcH9AKMX5bCcl7lLuAQP+orOMqGzvmIY4vQkziCk31cU1s1TFQc70PP7Kop1jnJ+eKKiKUUczBzeWBD+9iquPak+aT9VUXsXFX4tdVQUa15qT2Ju61jbYOR0a7DuK43vxVE5/eDOCGq7JEfh3SvOVNxCHJ5kfHTOsE3uqZhag05VXD8d4anoxvx82CZYiXSu4uXhZ0F/BkVcB8Zt3khF4Q9lmPq56xUV4VB+kbTBuL87mVEsVVxW6yRBENPOXax1XlzCBuu+s+iruIspwqRsbyB27mIdTrJO7lTchTi6GKO7hKWzpVxW25S289g5KnqrzZpFDpE5W8fdsphAxcFTqvOWBxxlRbkqnPldRfcTi7c/8aFIVPxd6qpe5uuX2if6aSGM3rIlhMW7SG4eJPtEkjpDKu3S2iyOY5bLHsUihVyWgUbVliXzsAHnq7iLWfRTAXTM5SZRzcMvW0x9ttJpi+9V3IU4uhjTmjMnzeRyHqyZG6jx/NGuq7NwTaemScv58g3zEzJXKj+OeaTiOLdJRWQ1zqdiDbfjrJjGD7nkai9/etdUuKvr4NtVnNZ+tsU22DEtD+2L3l1UKqskKQqntSYT14u2r8zyUf1Pb9POFLNfG367mLWZNCgquzzUzKhUhVmXXpVO7XPqSdqbJ/veX+jqxIz6KUSxLTHV0fWWfluDKvvliFYcqrgPcXQxHsqV6KpU3NyyeFjejk6p+PbQGS9XWbT5GjfNMqWvNVL50MTmiOE45pBpzBrSLLs6sppV4UuOS7PpoZon7PcqDkqprGmyaUWcl1sjr52Liu/UQDWfiDA61s6oxbQ6vHXetWieaahdg6WbNC12ofU0WSnva+rcxUz7aQpvra3tNKPinXSwS6qXTOssST+KKeZJmW2pQJXcp3L0pX/E+lL3DdQwxNHFiDIVO6Mmo6nQeRmta1CnteCd2W0tfWSyntm4PWgi/fqG45iPbapi7dnJaeOS7PTD27Ts/Bad9BXLZlpxnnmdwTIw70oD9d2GbaK0DLrvcvcVELJM5f+LGb7JYUxRlsHjNPKPyT/9HH8Y03sl07BNWI7os5fxCxejFMHz8vAUpbePE0SmcwQpT2MederL0bs+0Rh9cm3CixOM9lw6xcK3dxxBfUNk/qXv1PjsOwb+MbSJN/9qNiy9QcVfRORf+UpiVPTIdikw5gufUfGXXbyVqPgkxiHYUPLtGqj4GlDxYzpW3qDia+gLbvoftzm4BKgIgIoAgIoAqAgAqAiAigCAigCoCACoCICKAICKAKgIAO+sYjryW0EAb6DiY/1OFQD4RhXHIQ+/YhMAvqWv2PlfSwsA36NixK8HAaAiACoupPyQF8A7qHjl64QA3kHFLviNPQD4FhWH8LtoBbP+AN+g4i2YV0xj93dhAOBFKj6C72Nv3F8oAoBXqXjV5gkvS6IiwDeoeBliFWdbf7HM/B/ABIDXqFj6P2p7ufBTXgDfoGKpPexG9AP4ZhUfX/rBUAB4koo3fuYZ4D2yIioCvIGKQ/g7z+PAchuA16sYLgfv9KG4CPByFcfgU/y5PpQmK8DLVSyDPc1qm4GLCPBqFSOlvMU1Uh/Kr9QDvFzF8FP8qeKzxACvVlFE1yz46HCn1JVrCPBaFc3y0+DTiY3KWH0D8GIVu+YxBptiBm0AvqOvGFCqmI9IAXy/ihdB8xTgHVQEAFQEQEUAQEUAVAQAVARARQBARQBUBABUBEBFAEBFAFQEAFQEQEVUBEBFAEBFAFQEAFQEQEUAQEUAVAQAVARARQBARQBUBABUBEBFAEBFAFQEAFQEQEUAQEUAVAQAVAT4rx07wAAgBMIwGoXYpcWo+990t9UdBt5DB/j5DEkRkCJIEZAiSBGQIkgRkCJIEUhLsVkCMrWT4jAFZBonxWUKyLROis4iZB/FXur3XFqEvBKv3nstcwfZ1/B3AwnaWH+Cs8TdgWR3lIjHDpDriZ1izGoKyFNnRLz0VF9h7sEiLAAAAABJRU5ErkJggg==;" vertex="1" parent="NQW5nkMdx4vZuzjPpbhx-1">
          <mxGeometry x="280" y="119.99999999999999" width="706" height="565.74" as="geometry" />
        </mxCell>
      </root>
    </mxGraphModel>
  </diagram>
  <diagram id="jtWSNsiA1GVEhbjTunfE" name="06 - outputs">
    <mxGraphModel dx="1155" dy="568" grid="1" gridSize="10" guides="1" tooltips="1" connect="1" arrows="1" fold="1" page="1" pageScale="1" pageWidth="1920" pageHeight="1200" math="0" shadow="0">
      <root>
        <mxCell id="BmrX_kal2ZN71QC47XM--0" />
        <mxCell id="BmrX_kal2ZN71QC47XM--1" parent="BmrX_kal2ZN71QC47XM--0" />
        <mxCell id="dnKXIfUHRH8xxdi7BkOu-0" value="" style="shape=image;verticalLabelPosition=bottom;labelBackgroundColor=#ffffff;verticalAlign=top;aspect=fixed;imageAspect=0;image=data:image/png,iVBORw0KGgoAAAANSUhEUgAAA4oAAALWCAMAAAA3aJ3yAAAAdVBMVEVHcEw52AAgQVjx8/QJLEX+7YATNU8AIkD///+e//8zWnDf4+fK0dhec4Z1xc0rTWWS7/FLi5q3wcmmsrxfqLlxhJWE2uCDlKM6c4ZLY3iVo7AOTzDm2nocfSBwfFwpphLIwnJJXFKIp78ywgiurWzKzsKPlWQnT/63AAAAAXRSTlMAQObYZgAASMNJREFUeNrsnI1yqjwQhs9AjPxplF9hHEdnnN7/JX5JSEISUKG1n7V93zOnLQgrhDzsZrPw7x8EQT9BpVCdhhEEQS9QmNYSQoFiDQ4h6JU01j2KGZoCgl6rnUBxh3aAoFcrK//V8o+GkTUEQf+7CGskgvU/MU5MGVoEgl4llorx4j8BJEiEoFeyKCgUKDZoCwh6pRqFIpwiBL3cLQoUkbGBoJeKKBTREhD0WgFFCAKKEAQBRQgCihAEAUUIAooQBAFFCAKKEAQBRQgCihAEAUUIAooQBAFFCAKKEAQBRQgCihAEAUUIAooQBAFFCAKKEAQBRQgCihAEAUUIAooQBAFFCAKKEAQBRQgCihAEAUUIAooQBAFFCAKKQBGCgCIEQUARgoAiBEFAEYKAIgRBQBGCgCIEQUARgoAiBEFAEYKAIgRBQBF6SyVk0dZA8VuVZ1IB+uUM0b6x8l9yOpuo8E8tu90xuqgCit+pNJJi9zpgU5G3bGzWtM81GPSNlf6OvlhF4eDoaH9qod8xBhRZGDVA8VtRbBjXPda6aOp+mGWbn97Y2dQthqYZ+6xBIpqq+iUoOiQKFFtxdgN5XK2N4m9j8Qei+JCoaRTTH3RdkjaxF9hwY2dTnu1rg57N/44iPezLA3tyZJK47UAd6qZX8l1aoPjpq3gJvozidID6ahRpMvSkJoqo1X30GbFu4tzou6FIyrhXaa4CZY8ce5DQB83nXb85KPJ2DilQ/KSOq9OXUbwZ2b60JYtoyJ6wAT9OSnjXf7wdits43m33Zc1/aQDLePuAxDhmj5ovI4tR5CF/DhSB4h0U+cGYXGBupQW/BcX2/0VxH8eHPjysy/XTUKR+rDkPxWRqK6D4XiguH+mQBSg2xhWS6MEJ/USvSO46xe1oqwkUyTIUKytXugDFH5Uh+D9RvHycV8fzh2nly/W4Ol4veul8WlOxxTWwN1idrye9wfm84ga4TvNQbLNcjwWarOudTCb+dfadsUijrLEuCm2yMMytzE7Lt0iLocMHXRpGad4sGGds8jAKM8sG6zJuQt3JCT8k8Tk/tE5HqK0bnzJ53PnGtRnmGwtFx6bsoPxbsy5wTpWfyeZ5KO63e0XT9qBWHba7eFeXVnOVdbzb6uU6Ll3mtluxA/+5LXVWh6/gawaD2zqOa7EFm7YpLnv3KRQ75+QJ+xsoktOq11HB9yH+5v8VV6fV9cLR5GuORK9ZyeXVUXb6y8roMg/FwLgUEqqsaT+7lNk9MYpCvsagyHh3DfkaQ3HXb2HSrolYFtNU4ez8Wy72EDa052vD3majXZ9W53WtQsWnrP+4sXsRxyqKCoOia5N3vLw/cHOYjdhDbJEGz0Jxq8Gq470ZCsY1R8k4uoPgii+bz2vH45HYSJlK+J+73bBcDlvQaZvj+HQuis70RhJGKf0LKHLyuL8j3NNRvXwi3A9qFk+cyyuVxH2sFXrCgxLuDVVLUsoDVP6TkpkBaq77/kbnJAOuwkKRc5XxoxLduO/ClDsSJvt1ZzpwRde001hzqvNA3EGL2det6vcNNmljvrWga1Jpm5TSIsqtM2tUwMW/TH2rOHA7nOKH1fHD4iYUir7NdcYhJOsg072Nb9Bw87R1y2vujRU3Ru1MFNVQkB7qvQGr5IdlhogHTqrjfCilPGi1r+peFLDRUu9BKGVxnIgt1tM2xY0q+RSKzlRQHkVvXIEzH8VAE6aGAUQjeF0dtQ+8yj/O6vdJfWAPHBaOFQ2BhZ386CwU8yjtA0A939uoFXpET/UHheqyiZndmz1ezPS3E2+FNb3ujBVN32qd/Gk2oMgZLfQpJpM2W/UB0TmgxoynyMwA1fLW6UwUzQribbGP68HJbffOXWw6bWOFst5YcWSzHTE2E0VqD8WLP4Li1cSdJvqk2vldHPKuq7N2m/SLaRuqnAoJo3YSxcA0vvI4eg/T780cn54Q/sTEcG5HxHbPsY7LRVEfTufkTy0UN/qGEBhoPZvmS/UZ2LOVMwPUwqiZjWLt5ijjWB3WLk6G6JLTeHiEYjmYclEc26yiiHwKxbUNH0uj7C8EqEfl6wY0Vdi5Vu7RoPihPrmIYSX5WgZVdXB3cs5CsTUuTvX9Ib2tKBiiWRXCkjAKq2VXjEOQJ07Amhq4qmkUm34T5xZio9hpF6fTNiObpqxL16Hw3+mGPDeDOhWgbu1T3cc74+QMfAcxoIxrjQWZRnHY1UNxbLMadcG5KLrFb+88szEbRROPap0Nmsc+ch2hKNM2q+uJfAHFtvcEhZNgs1CsjKdQKHJvo0ZHisFhFlinUhKR+ciqJZdNJlCKdrhBZOpLBrg8FJm8RyTu/L41VjQ+T6Po2yTmfm+SV2JcKXKufubi6Wmb3ZA/5a7t0MtJnZKDSIrSG14xKbe1SNzcQHFsczNy+DNRfDhX9AtRDHwUj3roqKEco7gOxGRGn7z5JIprGW+SMEqmUezMsacmHnXHR6EJEQ2UtJFl/sUC19jm0uBmIFOrmEaxPx43PrW94nAwCkXf5lCxQw2UrBB3kbCZO1Zck0FzUVwn0uXtDgOZXobU+DYzrHRRpHLqohTTFdMojm0mo+rc+Wmb9q+hSMYoXt2/JlAUUerHcWWFtotR7ESX9XqbhWJjBhkKRe45Kq1Nv74wpgcuWJNFyzLfpBUcVDoDZL7kxliRH1kmvrK9ieLIK7o26dgryk7bpZHL93PTNr3LK3d6ooF7sL1W4u9bT3lFUse12JLs73hFz2bw2cmM5P7zdL91rPixcKw4bDnMIy5GMRGhS+HWVFgobszFUSiOcnFDysV7pqaKllZqiHkFYg0E1xOjWjtCpcyrP7VQ1Plcg+LI5misqLt64S7fQzE0yhagqDwb6Xmqb1kv43jKKyaxysXcQnHKZuinPmeiOM73/AEUzx5gHzqjGjxCkVoOdXnhG19Bwii4gWJrbqcKxdH9tdM4MH9YkVrw0Goz45LqtOdmIpfpo8jNV41Xf2qNFU06VKM4smlC2MrrgNRN2T95rKgzMwqewzAvP9530ivuNaE3veKEzcLLUc9FMXNauG3YH0CRXLwamUAvayZHKJKJYebZy8M+RrGJ8o13nSwUzfRcon2cP/FgCDR1oXQiYE2jezX+1PPBZFSnZc/6DQeeebcFyysyzVMzTB92/g0/cJgk64mA9YsZVD3hkOiAlAy49Ke684eI2iMH5hM7FJUoMmXbrCWxTfrI5kSgOQ9F98ZbRe8cri6otjn3RJHTmai4U1bAXaxqGxfFa18hR6/W/KKaa7xdbjNCkbd2Nho/ZlaHlx8mptqGqXxMUFQ6Qg1Zj1G/ogrl446ksXq0qIWLbo4caZrLK8xS3et1cJsMcxxtb44EFmz+81EWiqKWhqnuk0zaJGqWrNP9K09ltxP1cE8rfFPcHHQRGt1tA8VZbZjc99mcRCdr5BZJHe+CgduDOXemcjGiFMCcft2Xy7FJm2P3NhdFtwQ1GwoPfzeKQV/LbYpOxfJZpEivZBLFQGRPz9dhB9mYx37dx2wUZQMPD+KmXBw7/rPHkfKPsyIXHkh1840szBaFqNSM8DJRR13I4yQiVcn3CO3sR+C8RmWUPhWFoHnB7ZhXPnRiTe74Um5XVIWntqcdvqEVBy4qWdNUVYyLMlluszEjP99mq0+kv4UEYndxql5JyZdQpLs43pZ1XG4VHLKQ23sYURR771RRKpUVpbVYHuYZRU5UVIXXauQY12W5i/e7IW5NpBEzNenadEcaC1D0qjWKKHrjBzWWPJlBPuTUxPniLB81ZxPzimdZ+321A9vgurJ3moHixmcmct5ARERiM+ys1A7L+pS/5pd0soTa9N9Wfh5llXN7vRugdnL2IyyYhZY9u9FvJLfpqOWwW/ssvOkPcYsQBlKThPFtBrmcAdVGSJXJ/fN2/TQUhXPj5Bw4HH0ESQWGYmZx6PMHuabW4CUSQ76FFUX0T/arVf1CnXCua/d7+tTqhM0+bUUXoujH9DT66gNn74KiHDG67UMvD5IdwSUgIxsXumCsOEPj1zkw7/0N/vscgpZRL8/64HsJa70zIYn/2s7xNg9aMwlGazybzFseHfjXn1ccveuCsMQ/Ve+9X5SN3o/h7ETUYRP7/GjiHLpvU0zvkEUokjxyn/xPoihb/xUUv19plL7iPajhW742Tb4sNP0lb3yjDoucOvcVr4VYtFHkJKaBn+jaAMUnovjwPajfIPaeJf2/6z2oxE7dPH4Pavcfe2e43KoKhdGJMigkQU2pMXWc/Mj7v+MFBFTUqGl6m/R8a86cSYxg2mF1wwZltPbb3aUDFZ8jBTf8z7/S43s+Ooy0v6y/st6E9Mbiox9t1DCyDzLq2pwTqPjmfLxxEhz4rs1bP4oRKoI/A3nrNXBQEQCoCACAigBARQAAVAQAKgIAoCIAUBEAABUBgIoAAKgIAFQEAEBFAKAiAAAqAgAVAQBQEQCoCACAigBARQAAVAQAKgIAoCIAUBEAABUBgIoAAKgIAFQEAEBFAKAiAAAqAgAVoSIAUBEAABUBgIoAAKgIAFQEAEBFAKAiAAAqAgAVAQBQEQCoCACAigBARQAAVAQAKgIAoCIAUBEAABUBgIoAAKgIAFQEAEBFAKDia0N4cCCKutc0+6GrZheOJgSgYg96iIe6ZfGe+DeH+EeM+dyn6QeaEICKvRC4D5y4xOln9+6YxpcfMDFND18XNCHwriqSQuR5KasuoslSH/hGJ5KGJvK0b6Kx5vnO7NMz2g94DxV5RxfAcmYQ/qT2PSsev84pPYVqnsMIFtPn/+oytB/wHioyT+mPlaysKMmKrFNTVITyYrUqEY8WPDulh7GtB6gI/mEVS9HiQ17EWDU4p2Is2lZrHgTQKE2PgwPHNB5VGcXDLutyp3dFBxUDRfA2KnppSGceGZwjexHzMRW/woB3SL/Gpc7pfstFLvFx6ZRDekT7AS+jIlmpYi8IJoGK4nsqkjDeZZM9RxU7t8xoHJZP/0DaBvyKikK0bZMKYVs6Kcqc5UJ2vUEuS1Z27x9RMVJV5KKngc64slK0RzIhhO32Vr47mkZBlNxPy7VlDpDu03hhKPg1FXwB+HEVczvIo4xZJ3PG8rKX/CSFeq0PVjMqFlIqkaSmrUG9UOLp9+7EKjdVdAWj0mZ+hA7AvMsEVXP90/20Iht7qNE+3d8fxH5ifh+8hoqClTpuREVuY5gysSDKL8botIplkFGlnVjShlX1ihqnrWnK97yi+iLmDEKpOlKo/6nrGoczGclMguZz/qe8HCf4jNMDvR8VoSJ4BRVJFw29NZV1VE6ryDlXknHOedv3I+qVElofsAHIFS1cMkeynAaD0mCsGHY8STqdTrmk6ZxZp3SG052h8HFrThaAH1NRDrufTh/usqRuMqMsVo4VuZvZIHl7kWhiuBmoGAfZk2xmZQ2fT8ScP6aZX2L6tY/VhwTtB7xGB5XJ/mjKB0PihAq7n4sqFiz3fdnKnh5tV3FSuWz74rdjOpeZ0XH0hGlF8CJpGz30K/2yGWWPrFrcGcrBzBCtVFGy0lZRtvoW4eljFcMsTTTfQd24liAh+7n1chE/nlJM8YPXUDEhlcnDlFkyjIE+vbl5MkOwYSKHSB8mZ1U8hb3IdHoMp0LcXIeSTENP6b27q05I24AXUVG/qbQ9mT1BFI7oMRUlK30V3GZtllT8GE9mnKe+/2caJ1vTNnfj3hkqgtdRUY/BciuTCNI421UkRbgKrvATI7MqKsVIINZp6vt/zC8IP8VTpOn9lW1QEbyWij5yjVeTbo6KVWgeD1ePj1WMwth1nJy1oFvnHo7xwsI2LHwDv6Ni6af8rIqk61W24XGkzWYVSR5G1nK8WlwES+XCMRuZlO648Y7Fz8WHZZwwrwh+RUXBcmIXtxkVeS6plUv68NjOQAj6oIr6Y1OEu1WonDFTW9bdZ2VX80TOrMvEItRxgmbbElQdWk8Lp+xxZwb4FRU5Y0zInBV29l07WQpRqv+tFLRdqZ17AxljeZ4z/S9bp6L2LDdVCD981JWqA6XTi+aM6evKzrJD2Bc9jwd28aapDFXn0gR+nOJxb+A3VDQrtVnJk5K5uyTMszHy7v57Upgj/r6K3tTEWhUTO0HSdXUz0V6lMyOyR2aHgZfRLP/m+X3ytdSdJbiLH/ySignJeBApKA8fbkF59N3lYCTLgioiHnhBs8GRSyjaObirItr/wA1NMab4wS+p+LocQxc/Bi7qZzM+f73oKd0fIyxDBVCxH0gvYW9xkLrZ/8hNvvSQ4pHEACoGXELZPnvpzcv5py56OqMJAagIAFQEAEBFAKAiAAAqAgAVAQBQEQCoCACAigBARQAAVAQAKgIAoCIAUBG/CACg4qtC/sKzayie+gEV374RH+I/0IwPMR6GBRVfOeBVxdJjpPRTOL55kabZWqRu6if/oMc0xiN4oOKvIMpq+aSKBQ+aG8fE0MTmevWP6CDX2wplmt2u6ZXWTMlyu/q6yG53++7P3/+emiN2vIKKYePmAx5+QBOvZFHNP9Q0Z09RcbTzxnW381+57r2e59pT8bYzTJRS+j1VxWt4lc+Nz0UHf17Fig14UEVetsVL/h0Vk6CDGoUPkRy3X9XEk56KazqSvQ4qqeu6WVTxGR3U/vd0f1UOaOhQsdfkeGlQFmnEgyZqC6UUOWPyOyomJCg03FJgYr/UQMUH/pLUyyo+gbGKUYzdPaDiZGz8RneJ5HZbACLz7FsqJndV/BoHkqbXd6wf0ueZKpI7I9RRH/ec7tHSoeKDKs40tax75D9Jfk7Fqc2oAhV/LSoSUjfXXbNFxSjF9h7/moqFyFkpI/+OJ1yWLJdkVkWiiuR+lygiFCShMleF1HspSFUyQZOibDeUGotcuMJSVE5FVSkrZWY/zzKhR5aVcOPLQhi83uq12XdHCCfxMdycyjTx6yAqkua2uzX2J6tdcrS5WknajGlzT0Vl1O5aexXrtoj3slaliTrn1mVE66tN/zjdzIHb4DL97+kYbqNFI7T7P64iFYyxnLHc/gkWrCgYK3M2v5tpVJoSzG4DR8xON9RkZnSZkhX6YyGZHRuO93D0ex2XNrDlrBAsz5nde04yaXazKvSx0hYZ5I14l0qq5vunSd1LwmgVlYhaiXoYirwIrTHXOyo2urg6xanYtEXqnlP6Ircu8XrV2qn3TV33qjBfg0x+z8ke6ufyfnXgzVVUBnBi9nmK3HumN4CS/X2KByrSnIlIb9XofCJEsKpkkhdWRWVHZqzi7d7G6khBFlQ0fwuyvL2QZEwSajaaU/+bSEkVVaciUW9zVuij7tBpobHW2rLaqHAdqnh19hHF9Z6KetaRJKTx9ukS9UBFVTsxxRp3QH9Y39ykpv2E1JMTlsnAvn7nG3tg/XEVuTXObx0sbJih/S1PByoWdtfEzNmrCxmnKlNHq5ephrTuRNo0ye+qmEf26xSJ2zRO2Op472uQ+bHi0r6odadgq844Kk70FYcq3oIqRgNH77k7s1PyNjssnObS3xN9DxX/uorC7dVdWNv8Tt35jIrEp1iEP0O0XVOnYmWKc6OiMYxKs7mijOZVrNyBsu2g+vrLrnd7X8WJvVJDFWunTjMdFZdUbHpVzKk4rNNf1NfTrM0e8X7e5hj/yG4+4HVU9M3ZhceRJaGKXTCUfpZQtDlSaubcJ1RUgbEwY8liSUVpurR9FcXTVXQRazIqkvsq3pKVKjZjFf2L26rs63CnV4LFN39bReLtiGzHdFFF9bpqkS6idrE1mVNRNy3pdxmfV7Ewts1ERX5XxaVd4OpeJuX6WFS8blZRae/HjL3hpE7CruigImv676gY+QSkGxsuqlj01sGVYYfznopt6pUuqkgfjIqn5bFiPTBqe1S8+fzOkoq+mqaNgeTWzSrWV5N1XboD5Jim2JP131GRbo+KSpbCUW1Tcb4XvC4q3lfxY2HV5lOi4loVu2p0IkdPRg6SNXVz2+0WM6gxmvq/OFbM1o4V+cTKm7UqkrnQ+4yxomq65IfHius7qF01tZnKvI5i4HVpwc4HFoT/UyqWLmFazfUdQxUpGy9SW6tiNhd6exlUkTw4VowW7vHzUn0rg0o2RkUyWujdlbrbRaWDdXzkeEbe5m+r6OYwvJOLKg5zNGtUjPz8vrRquoQPZ91qm76r66KiCG5fXBgs1r0VMnXfMnK7HxXr/pvBxP2KqFjPTSMurU4/Du74+kgXYj54dxXdXRPSLdleVjGyS94iWaxSkZasrHQBKhmT7g9A1lbbrbYp2rxOTpK1Y0XZfquIrks51naJjJ/qt2LVw2FboKINXmTQq2x2q6NibZabKtwp9lkC5LowvzhYsUDSNMV9/f+xdy7KbeJQGJ6VZHEWREmhhIW6jj1h/P6PuJJAAjDX2Onk8n8728YOVonQp3N0gXxtFc3+tacfP57ml/xuVAz+sx8xG1GboPL8rN94fv45FxX/M3tLn8wH/v3RtD5p96g+//vrh1fxuTmNJ7cHdRwVfzw/mY2x+o9n55stRRf7q2u9alnF12Y76Gtve+gfnZ36ZPL1tdkcquknpeZD7aKg0Va/8lHxT/MR8+fvyago2l2qzX64pgRdxMvaFGpBvN+vRFDxy6sYMONhd3/9BhWDxH7k6WdvO/i/3V3Bt2NF8au5i797gI29rV+//OVVZD/taSRBMB0Vn7slFNadut3E83N6eHWr4mvw0jnRRiYto/6OH9f9M7yJwrvkd5C+NC+cmy/dR/7MTAX9NjHR9gDtd5obNV4W09NkZF6MBPXrq2iue7L3KgsW7pxFYCETw9fy9pDdjU0mg2LK9dDxe2CA+L1h44t5rka/hLcp0R8b6gKXC2Hj/Qo5YePbd1Dx6/DhnpTWe+7N6z+bH+vIIsrEaEoKW2+g4mdClB/sBoYuT91z4//tHj5+7/NdAVT8y5QfK48zs7R245t5fMDmzLYsboeOeLoGVAT3hUU/E3THtEuOnTdQEdw9Wnx5fX19ebnvYY2YPYWKAACoCABUBABARQCgIgAAKgIAFQEAUBEAqAgAgIoAQEUAAFQE4NupGJbvcfsebtgBYKeKFVGU7yu9VJbuvr+0eYP1Cs1xEQDYpWJZKFr5DUtjYrJ0d41HzRu9X0TDdxYJAMaKQZBTtFNFnmh65mmGzxiFiwDsV5Ht/I1E8ZS6cviYoxBP5QTgI6gYFMTxOxwAVNylYrjzl4NtUjFQlOJCAKi4R8V45yOKtqkY4sGcAOydtknfQcUgwswNgIq7VCx2PuJ9o4rV4DCR4LIAqLhMtntdcZOKg+WNkFOEaRwAFRepdj7jfaOKrP/A6pSIsAMHQMUVtSgXj1dREsW9yAsVAVRcHSxy4lH1aBWDvnxJRAoJKoCKyyQVEamHqzjc/IaVDQAV10wkUnnJHq2i6CeoAEDFVSpSj9/4ZqdtsA0VQMVdixnvsq4YfrBfKgrAx4+K76JivnOXOQDfXcVivK4YFskDVFSDYssCIRJAxbUop0avl1PLbSoOh4o5IV0FUHGFcqRWSkTV3SoOt6CqlTIBgIpBQjSSaHlnzCYVR7fxZ0RU4MIAqLgEI5Ijq+5OUEU0DIKmTDyREUDFRcZ38SdEUXCfiiIdrVWGtPP+ZAC+mYqCxdHo1uF8ZZtMTKQ0Xb6ZmZd9FbWJEdtVJgDfXcWKiEZ3EmbExYqKK89BrW72fms3scgIoOICeVqNt6etPQlDhpbec1CbNzrXkmzsHZ6LCqDiXtg7PB8qwaMYAVT8EAikpwAqAgCgIgBQESoCABUBAFARAKgIAICKAEBFAABUBAAqAgCgIgBQEQAAFQGAigAAqAgAVAQAQEUAoCIAACoCABUBAFARAKgIAICKAEBFAABUBAAqAgCgIgBQEQAAFQGAigAAqAgAVAQAQEUAoCIAACoCABWhIgBQEQAAFQGAigAAqAgAVAQAQEUAoCIAACoCABUBAFARAKgIAICKAEBFAABUBAAqAgCgIgBQEQAAFQGAiuBTUz62uES+z2mKsGRQEXxhMoofWRzj6j1cFBWnx54oVPyikaVIPumZpxTJB6sdsfc4TUo/bR1Dxce0gWhDXyyJOEz0LvKHuyiJyu/U6j6XiqwcIN48tomLIk5mP85po4riM17y/PEmGr3Vo4sMP2tX90lUlJd7es+YBrzRBJY2H+f5PSoGZTVInmQYfoorHo6DDQsfENAkpwIqfioVj4fTPcMzZYiI7N9v7IdZRBRVRWaKEXeoeJOjpZ/iikdUjd/IHzFyJto3rFvtR9mb+1qo+P4q+th4T4aVEm8aTc7j4NupWN5U3mNUDNRY8WURM7XmmSBiUPFLq8h90xPBR1Px/cNAenOaW1UUa1dlz9C5JErXL1QIFWe4XM+H4/nqa/xSHw/H+uJenU+BNEfUrH/A4Vyf3AHn80EXoJn3scwiijJ3DWKVB6xSxFM2q6IsFOepb06VSlUYiNykofpMcxWGKalSF0VR2OQ9I9EK1Q5zMhU7FUWh/GmEKpYZj/IgSXk7voxVqvR/7jSFfsGJm7eqN18KXbumtq7dzyav+o1jfWoq/HSu3TfOZ1vp9VkEJ3MNetVpX8/X7+inD5VSRJE58Xi6Ps2PlspAVhHxzNaRiBUpFhQRpYPLQLuia06rUVR9o0XFfSqK06Hh2Mp3NV/r/9vrfjrUF90MTOsR7p2DfX042mt2OXguc/9IRUSc/FXNKS05RZyIyxkVk4iIcyLXLpT5tGhmZmyBFeeceG4OihrRsnGgyFx8KFzcVLZMXjY9eKq9JMq5OTXWNiRD2eVSjrereG6r8+B6nYuvPlNd4uK/o7+yP6yux7r5zNWdSN1W8Jltyk/L7sTj6fqU5nsJi4jITpIqKkwtpJWpkWxoTrbnxy1obaInfUzm/AVV1ObVLBA60kn3+iQCeXUunnSjqKVtKFfXYkwEFToath2nlDpB1X9KMX99ctMFu5ahBSITEMv+dRuoKDmpJAi0sK0EQhZUVaTK0s7AVUSVkJH5vOSUNO9kbEVFirRlIW/+oZJISbvgLIVqmodkjCW9qUgpZUbp0k9Wxp6ZQy4nc1amN2t/kKY6Baubrk34Tu96OLfZ/tEERKElFl7nkwykr/GJYDSclpRScip6J35Tn1KmVGrNytymlMpcmsT2UuWwrPkMXcZTpGtbaRRUnEltfN/bXDTfMuq27egYWLftoXZu3gwzlseKfko8awKYiT7ZTZc7ULGwaaido2f+LXs0s2VUtoE0tinrjlBEPO0JMaFis2AdNtG5tCE5t/9Q1YW90RL0ylhRdfFneaDrg18XBdtTrVsDfSW69MIfefL5hpjNOqJgcaw4UZ8pKXNI3NZh7kbTcvijTBTt0mCaY2ENXxZECVScovZ5p88+pWsyl4F5rslc3RGbp20Kd3Hd4pfvxLPeEnJfRemnWJSPmzmRWcRm9iONO6n9Zjv4EAUnIu4HpFMJqntDWRWjJle2Z5i9TcUi8yzPbgin02Wcx7u81P3tK5O5I4+H8+rkklpUcao+02aKJbY12dShnVEZTXHms+uALJtGubnsiZ4rWlj3/e4qHg/1SE132dvw6FV0+dPFjHLEHhW7htImpLnraasZFbvOu/KSFE0wE2EyrWIQyNwGqUzOqRi7MvmjVNyOyzaEmY+RE5Xn6tcfKVsV5WF1fvp2AnWo4lR9pk14arYCLKm4dyJeqtn9cvbyMKg401mfRrMMtW8h10kV7bTNwU0AblFR+YbSLkSvqhgTtUOPTuOinzhNqmgaVh4RpSsqFnaV+W+pKE/12c7bnLppm8O5Z2Nbsb4O3ReiS1QvK//GWoI6VZ+DTW3zKhazCerSNOrM1E1S5hFxCRWnh4qnUXy7DqW8VTFgtW1a161jxW5ys5VyVcWiN/CI/AWOglUVzSpzO28wr2JuG9tDVBQdM0eYjutc13VX0eJqq6+WgwyV+Umaw0jF08SI4GYIwBdVnKrPtD8tPK9iNr8NVUxT0tKkq+RYzNgWFY+9qDinomk+pjnVG1WM/KVpv1pVMSfKHfFU9zyvYiDaWcK/EhVXp21OrssaVDQ7nbvFoab2rr2Kv4mKazldfLubbKDiVH1uVDGd9Wp+2mZxyw0WM2bHitedY8XuyC5vWlaxS4X4xrFiObE7aquKLvT+lbFiyj3TKp7HI8Ceo6d+hnr0tTmOimw9QQ2JwiUVp+pzo4rzG8JDPgmt3CKCJf4ZziPBrq6zZmsq9mcTllWs3OappM0dV1VkExPi+VYVV6OietwM6obZmuu0ir38Q1e17PLTm6goDqPucjLxqJZUnKrPbSru3Q8u07X7jSPcrzidoI7nBHwX7Jy8UVFMDDPPo3nY0WDdrfoWrZOrKk7dKLccFUXFelMUjUSRa0zFoH9vT2ebisWd9/Q44braErdz11q+U/dqHBUnl49u+il+E3yyycRkp4rZvjsWZTS/kuHbJtYV58KivfLidBZt3mk3ZF16u22GKtbNDjlZ9xpI21jmNqW0d03EbufbuopJuybBsnybiinx3LQgkfP/2TsXLUV5GAAfS63cBEUdRUDg4OH9H/FP71BAQZ2d+XebszsqQJHI16RpIGI2+8SdNnozpESRHR4FvEOYh2LKucWvRuArrhmUS9N2y1nsGbedPhDGidXQ21coEpEkR9rJDo8MclyunChEpvQ5C0W0LMhC8yye2DzyXtb/34wi4rncKthOP1c0RHrHoyjSiwo20Dsw/eZ82YQjheAXCumdhGIe/DmKmy3Lww5UluohdOj9jMkUij4NoDgh3Up0y4TucAXjkCgUQ9eh7cgc1AGK5wAEGoC/W33FujQrPHjxl0A0VtrCMKAVOad3HlHtRb3oRvlm0irStDn4jfL1g/jN2ZwjgNN3kkTd42ToE4cs0V1mzE+imLjhkttK0ucPkIr/see8LLkzQ8TWq7r3Wd0WMDKvWLHU5HvXsUUsYTmfGjGyp3y5wckc9k2juIlDljxzJr1QZTA9VjyxHWAPee34AT/mVaEYn+gmYbyZQPGqg4DKeBC20Lm+2pXXLB+8xeBu1HoBnVns2852M2kVqQvSn/8YjYYYg1r+VAOl874+iZHmPoHiaenDbdLTc1rtXfwPR4x9hZP6SVeIaoQHbdQPr1bkL76Y46W7IL//6M6RYyJ/8c2DOE7RO3ccyqeNoM4SQ1fkeZCUPFYvtYJm5Ib4/YdqLNZn+g2PhLJ38Vv5zdI+zTJ9Lv7Hn0OTut8wBYgdN3yva7MoWvk2mZHaNseJCD5LDvqevJjYce0jia38ThDbGROHs9g5fDY2ef6eCUC8PSSpRdHKr5Pbev2BJwNZsShaedcoVjdktWBRtGLFikXRihWLohUrViyKVqxYFK1YsWJRtGLFomjFihWLohUrFkUrVqxYFK1YsShaFK1YsShasWLFomjl18lfc0cUSlOLopX/rxzm3CicZb+/Rwnd5fVDLIq/XG7tv/MAwuTJ08K5NKvfzqLvuMH1ZFH8u6ReP3yE859wtaId+hkSi7IcgS5bNd/2Dcpm5IBlWSxs5uomrzyRx6L4mwX/PIqx5/0ZFE+mTSxWY/avWRXf9hVWY22vFrP/YtmdX4ciRrVFUGvDcFBJ/XkukI/+PIo4NuIa/uDxjaMoZqvV5k+jWP6jKN7Wa0vgpOTf8HCbnbf/8yhuzecND8vqjKL4nUZxHMVmMYqHwalYFC2KP40iJjNRTIcFMsAA4s2MZb8OxfOjAq6/GkVsoJi/stuSlR9o/8/o4v+MIibI3x6c60wUk2FJvDHsyu80iuMoLj/k6bXyfp9FEd/u+TrXNTJwW63zStX/bquaVSHOdUXwuoKPldyjrWjplYrK1GmGSXiiMzeOG4ianeQcOk7SrSef0IIrB7EahYcNugZu2ClmcYItQlXc7RymG/8QuMEVjzcxdpDFI7IbPbX8jsRpd6MxVUWX1i07eT04bKueJuqq4gWEqmqcRxJF8gtfoki820c77+uIzOX76MhAi6LI877gb3ThK2Qb0FgsUSTHL2hDq89nnx8QmtLyN93SJX31XcMwYLV+EnnNopFnD48MC3t0ZmUD47hOlDUrmlWjP7P1Kx3/LEoWDM3K1UpFSnkbBdYo0iVN8RaKqRv8OIqI11tRtaVoLSlWTkr8andaHZAvEajSWja83gq/JtdSpkwjLRGTiIrxfJgf06JHDiwlqoN1ncBh27H1rgOb0AWysiah5VpoIalUDbNPLtsiHG9i5CCLpZVnyjCqdb1SVh4Ki5NnW8hr/M5VoVBUypl6QviXdxTvIvGOAGjeDv4JRvfejr85eoxJ31NykTaSvyGe5wsULzvahPclvhfeizYv04MlN0hC1zmlMR5Tny6GHigjOSzghovikYUColaUNeU/ZmJBoWwc/9xgNfaEbelfNQjlH9Rn2Lfot0G3KZbOY/qv1d35JIqsuh+G/j/nj7DGHMI6l2Dd4VKjBlFVDLzxN+QmKkthQmARAcGTfk/qhin8yrHDC2EShxV8SlVNlhPvYNE2OAsUwb7FG7xVYMFFkmJWPw4J8ByXVpW6yuLYZhPDgwxOfavEn9jiRiv90M4KcVXRlyrPGWNMPzV7yqnW1obqoTt0ho/goD7QDoCGexwBkjsfTjWSXqaJIiicgIPaaXMERS9CG3wBFuVRvD3ekKPnkamxEuvkYsfxx9UHRzu5Dj0oUT6dM8Nd7xpFEdTBhTRhsLLE3WBPkWG+nWAV4wzMIZi8TGYJ0HXZBoMhxArejNvNdzhIfx7Fdp2TrgplOWJVR/cu3mC5QNcgxrPDNj6takhoyA3x353XK/UlWKqIrmgSUOSV/0RJTxohYJcIDsSWiSi+QmQRFrOJ4UGG2lfyOHomTz2nfRDiJvDWK0lT92oj1n11PB4rIoEPcMOJ8+WCnbCSJorDseIIihEWBPK+T24RKRtsiKPq1IaT6jPGitdZPl3fKJbmylLw1RiB2KaDckOpazjRWFk/5aByzzVbvZPR4wc/PlZERkEHXRm+kmWIJXm5WFMN6yLNQJEXhg5YyS+iKqeEojySWcE6lnWkY0Faoq8Q7hWpkEEw0cTwIIPgxkHJkzRKUeX1TpkCc0hf2p7ecM//XISi8lAj9aotGXkZRSQXHHkTok3gfNQ6K4VL8sbUZ5jBWdXDe4SYKGqLaXDUMaWZcEWblXRx8WjYBr+O4pYV2kU/jOLNKASP1DUl8RqgeOsUTp0bQfWFo+n7/Y72KkwZAJb4/SsDyd76yl/OqiWfk3foo2g2MTzI6yIcgZa+AINUEfc+X93CGHgZioI05Z8qyqR5fANF4DzqGUM8EVvtohhPqc+wiskcQ9KjjzuXY8bPmHrso8haEBnlg2mKD6BIoxjBa9WvPohia9gz7WlJSBWKsgA4D9u09UKrmHaD4q4Yo6mOlQVlDukQRe6QYlULUIbtFIqq0zaaGDnIS9HlSkeomFNarRF9yUWXReQWt1etouBH+qcAy165rpd3URQmFizvhYsEfuigbuWQG0+p7wUH1XAbWdhG01iCc5llBfxXKGYFi6Hq3YwWBnMXH0CR+OnBfa185QdRvBv2TFtJWRVwgCKs4vXA60Uoon4vZIbjUl7QemuiyCtfxypuTpTHaqJoNDF2EIOzjox/7ZpOVNzv95zrAFFlwf98Tc0gFmfOtnjDKgqTFQm4kIqLEgHlB1D0vEHUdRDlZrFqJBNoxtRnOKjnGZGOgUtashhppsmUUsolTQnSs4q4h/bnURRD4/+fVeRX271rCBaiCD3vSYr2C3B6cKTxM60imWEVjSbGD7IobAPeOp9SFA4qjAgxgrdgGBHvwuDE+XTrG1aR20MsAiwKwI9axZ0X7aWgyRDq4Qzq4+GyUfUZVnH7vNj3GB+MxkJaxUJKJkg0YzB9FPEIitknUPz5yYxbd65s062QOxgrVv0AD6n0BTdnrIh6DIxfD3SuAptjxfPjsaIRlFFNTB5Efw1HyXUquox7QWNg8AZcteu65ktUCOsdq8gAusjAiqYs/shY8fgwcNr9ieg8Ynia/o2wgaL8KRYYRdFQIyYezMCpMnHZlFXcfJdV/PkpfrM4tZqyUK7rFIrdAP5Cq4gGCf2djjbuoYiEkQtliOAk1kyhqJqYPsiCaE3VC9uALmrAEE63vXFlqHjzO1aRgXJUbH1J4C4fiaDu+Z5fI13A+Rx3As4O6c4JjqnPTHwLnqVQT+GRaeOHR0eWk1aRGtIXUMTb05M8j+1rAYVPzivmxtSEJBDreUUzbDMMvvan1Z6iOJh42BDNERIopr25i5OegUw2oyiaTQwP8vJAGouxIpzyrYKTBie15T2YXIEeoVg9u30RPFS8U5FNOYehmLwIsMhOoxjpt535kL1G0ZcLkFgwHCKC/+AQfSkaVmFEfakMs46PHYdSGEYR60gqFubRDJwWvQ2GDupg+nAWigc4VfxkrPjjOaj0Plf6e6D7TV5UlDhcSefMRJGIlEykM0xoHgpbh2aiCKSxwvLowP0hEiTcGAbigohFhhtwxYnDgRsSFl0QV4OJ4qCJwUFe8t5rrgvRX4FbSk8ar/P7WgwiWXdEkwXbSRRbvtFkMhKdzN9rswWfvgizZGL0GHPTFu88zZ9Im0FEgEkzdlhym0SRZc35Ct6jSHm7RKTzI7j6Jj3ALLiez+dtvJlUHxGD6lh/3i4xilgET7NGmrZCgJSVMoutFPhNWcVNI1YVJZ6NInbcZz7S9edvksIsBsiynrG8/vJ7pQOkJoo0qphX3S3UTvl63As40UTiIAz12i1N3Kbpx7xbTmlyaXKg3bQvr4MAltDdiBzYiT1Om1EUB00MDvKCblimN9B3E0aPiGmNXGaZ0tSbewuObCu1UeUgoA0Q2fkQFoc1/fvucQCsjsMJAO2iaKcX0eTvY+R97TWKhHIZSWtIs1KjIwC9UyjS3O8vnYNKeAJ5p1EKUvf6vMoQVoIm1XemeaqJo7rV82PVFsMZfRofbTqgFXJJqT8WzaosRRZq0TT/sXc2zGrqWgCdRzJh8yUeEBHbe+/rvM77/z/xkgACiHI8reDUtWZ6WlTRg65mJ9nJttk2/9OjjuZ//ulzTj/VKkYyadCvyDafzLBuuXzu73/r0fFP48+r6Jv/f2/Sx72h0N+nN43+x2kY3JvGSkRU2b6KObtVASpPL/8lp/ZZqk/l9jL7jLjy/RsB6uQU1y/yhQknN2vzX3PJrWlbv5+X3Hh3seyilZ9tn/t7n/99+XW9ZvLn7zsR6ig31Nu5TO6wP7a53Ad9GkSl7rZg34p1ap9w7FTcO733fRuoP+xDgl04mlMaBmVpUpZlHnUph7OXr7C3SH+J43th3bUc+q9mznC4MsPdcllW8Vd7pNs8ty73e9gwNifpzvEpFSuRhVg6fpFV/N6P0bdVL+0Aob0fnr46h/fYasE0HL9oWvUncMM2Ok2nz7j/CqNTzL7I4w1jeyluLqe9bJfh3T/Nj7vv4zDq+tn3nY5+ETOzf4YZ/m76+tpcXb76JOPHGG/+W5vcuXxeNXxnRt2J6/6aHT79drUR4/iGb9+a898bDtWPbuZYLKUZ+7mUL6Hiy5EuzkT8Ueh9EG77Dqqy6oO5B76Uobr56F+cXfit5Ivfp0KkTA0qvrmKejdtFFen309iaSxm+klFNyO7b/+8zBVWy+OjubAl8buraE7HYL/1HsahbRS0r70k+tQew4OINX/9/Zc/NcecllmOim+t4r4f59y0WbxknP55Vz75WioNKrqwJ3ubve4Ph9NLXPJzFqkoyysfUBEAFQEAFQFQEQBQEQAVAQAVAVARAFARABUBABUBUBEAUPH3o8PK4/MHVNxaxLN6bF0rACo+g0wkK1M+f0DFbTG/vt83ACr+Ol+sMAKAiqgIqPgH4i0XEQNAxeej32tzVEDFr7ty49+/CyUhHz68rYplXPlJplTWTeilRaZE2sJNVro4izPjalYot5GkTs6REhUXur3/7JdRfZfJ+23dwzwSifLRJGG6pG/MpCK8sYqZFGeRSC41nEoRUYOCYEZEJPVc8RhXks+V0LJ/mr1tTa2cfX4Z25/J5RyRGm26aaK+BtTtt8KHD2+sopJC+14s0pjilbZSShqL6gqGmUyqWPKqaLdDL5LaQd2VDDEiKvULkVq7tqBkKFLW5zBV3O+fXogs7aYeoyK8tYrNxLqZFOMxqhcjE2dJIqOdzstm8sE4h5tip1XTbpaXaYk+Jk1E5O5G6aZcqpEH8GermF+ax0kbdR7omjmbRrJWTfFu4/5K3futmh3Tu7LeQ3Qs0R3T4khE0SgCKroI0sze4VS0FnnjKoBt1e8ZFUORKLkapPEWfmfJmcsAVHQRZFv2M8niSCkZqhiPnuPqLyi5qaLrGKoseaAuRloV0ZcreQP8SSpW7bhN5aYy8lwNVRxGpjoXUXGWZ7dV9NO8KS79yPSjUcJkBqBi1yqmSjLvKkAdqpi3UxbhHRXt3edoYaDm+q3QWQRUtEGlbcNKUdq/p6KWtib0gopN8/lI/gxT/ICKrrFTo37hLRXDblnhoor2rkE7tzgoE7FeEd5axbjT5twcN3MaOrqhYtr5VdxUsesheoP9MRYmM5rfm3lFeGcVxVYA1rE0A6hl0+iZWPph03GAqiTWTd+yeeS1ilnUZA1kg7UWi1P87YkA3lZFJRJnSqToWkOJy0ypsu0T6jhWouK47J5RiKj8HEkeuxTTaxW9SETFeSYyiE+XE99S9puEN+8rhpGIRF0o6VmF7Chq2ajo0sFlmBZXuETvwipn5gPUInZPyQZ9PxOJut8VrFjFD28/bGPCYWhowmY9k7kZL3rt4+/07bwqnTx9aZEUq/gBFV8C2wmtPGwEVNyaVIkIU4uAitu3i0meMbUIqAgA26mYxyR+AryAigCAigCoCACoCICKAICKAKgIAKgIgIoAgIoAqAgAqAiAigCAigCoCACoCICKAICKt5mURQVAxW3YBx98kICKqAiAig+pyA7EgIqfRpexRHmq47i/zdzpCqa73S4IjvXP3elyjo/dfr/r9NT2Pu2bwz7YH+rjw06fjsHO+B/uJwAqzpkYi4gSVYpcbivulYUKgwudit4xCPb1ceuZtvel5mj/2tXHx+DD3r072J8HvgGAinPkIon203zwlrQSkZu1a7Qxpg5Q65+mjT/rw53n++G+80zrXVC3g4fwo1WxljatvQxrj/d8AwAVZ/C6Kon54C1FslAieNxX/AiOTsrati6w3QVH+5CTk9P903eNqA4C+o+AijOUXTHgZPCWEjUsRLykot53kerucvOuCU07FU/uOaFTkRlJQMUZsq4Q+FBFXxv/8yr2jeHh0hOsVbTNqnGpAKgIqLhI3A3QJI+8pZGKpyA4NRyCYx+g9g9ARUDFRS6h6NdV/OiHVAcqHlARUPEBoq7q2y+p+NFxQkVAxa0C1DAIrrqWqAio+BiZqBkVHxq2Mf1c/yMqmiJhXgNQsSMRcUW5dfbIZMbOTVX0R8cvqBjdS+kBeDcVtZKolsPL5JEp/kMTk3pN4+m1KW/e4ePzKoYiIiSkAip2KiYiKo5FDbNt1JKKxqaU7o6db6d9sLeHwd6FnPp4rG84Hj/uqeiJiOLbAKjYR6ORiERp8tl08EaknZ262Heypbu9Oxykgwd95vd8gHomQAVUnLRxoZkM25jlYU6ThsPwUnvhg9FmJpLwbQBUvGoc135LSiK+DICKm6uYdktCAFBxSxUTUYyfAipur2K+MHUJ8KYqhjFdN0BFAEBFAFQEAFQEQEVUBEBFAEBFAFQEAFQEQEUAQEUAVASA11HRS0K2OATYXsVKRJ2REWBrFdMyYzsngJfoK6YibI4PsL2KftRsAA4AqAiAiv7CVt8AqLgKhtoUAK+gYkptCoBXULFiG26AV1AxkZirDvAKKtIqAryAip5Izhw/wOYq+okSiQhSAbZW0ZRKRMgJB9hWRR2JKitm+QE2VjERRVcR4BVUpJ8IgIoAqNgQThPfvJKVGgCbzCvqybEUfA6AiquPoE5W8ZciQsgKsP68opJw3HdktxuAV1jFHxOgAmwRoKrJKn7FvlMAa6uovSoTNVrFn4rkfAwAq29JLGrUVfQLGfcdAVBxBRWzPJnsbJMzfgrgv0D5mkgSPgUAKkkBoCIAoCIAKgIAKgKgIgCgIgAqAgAqAqAiAKAiACoCACoCoKJOqmltb/ZVBFhfRSMi2WhzjIoV+gAbtIplriQaNowmloyaUQDr9xXNZCWwdZGLDLC6in4u5dTNkqsMsLmKfijC2A3A6ipmV/sLn0XRXQRYW8Xoqg3Uio2kAFZXUV3vasr2igCrq6hndt2vxrd5hqsO8GwVp9UTWz2TYRtJtRqANVRMZ4LW8vLvVEQUwzgAz+4rRhJfuRjLeeiqRFx2gGermMYiamJjNsy4OYtiQBXg6Sr6RSTTSf1sNIRqCE8Bnq9iJupchXoSoLI+A2BdFY3MzOeThgqwtoqeiJl5DaYvAFZvFa9UTEkIB1i9rzgzr1iOZi9MmTBuA/B0Fa/TwcddRR0Ji4kBnq9ifDVsM05BrY/mupMAqPi7JzPKSe9RDXJtmmwbIUIFeLaK55F4vlsipccPIEAFWKNVHE9clKK8yQMYTwV4sopeeBYJJyZOlhIrssEBnqyiEZFxo5iImsxtpMz3AzxdxTgvx9Gozqdr+gtWKwKs0Vdc7kuWXHSA7VXUtIkAr6AiAKAiACoCACoCoCIAoCIAKgIAKgKgIgCgIgAqAgAqAqAiAKAiACoCACoCoCIAoCIAKgIAKgKgIgCgIgAq/sveuW6pqYMBdC3IigGQmwDi+z/oSYBAEmCmp2Mdp937RzsifETM5stNBQBUBEBFAEBFAFQEAFQEAFQEQEUAQEUAVAQAVARARQBARQBUBABUBEBFAEBFAFQEAFQEQEUAQEUAVAQAVARARQBARQBUBABUBEBFAEBFAFQEAFQEQEUAQMVnkwre7SchS64BKv42V3Xj3X4SeZxyEf4FFdP6D9x0O/XPVp9xePL1FFcVj6jz96sok6Tab2379l8x8Zo1T72eSsXPb2IoXPybVEzTaLvTpqncVNx369qk+MqZlPo5OfH63LfDqPj0bnKnYok8P1vFyNGvT/r173uS2Pc2bQ8aVF9SUWZquPwVKrqX75cbqA/vesr0GXelRuXI87NVrJJ6/bve9PtUtS+peFO5+DtUzFT31fA39Yz2bxR/vSTwNirKJLEPRJXc/5iK8mf1bH6EipdBZdjz3iqKX1fxUqx+pU6CfIaKIujY/FZZ30FF8R4q7q9U9JO63/+eilHbJ0lf1NsbVxdV0rfL47IoCvO85h60UK1p92Ki9GP2rXRU9GKapNcWVeWe9K53qPo23ervwy1lqk/Q6sBmr/okZtlWpqQ2UxeFFHWh99gKdp/Kla6nrKeSVkV0EuLgJLv6PuQqa0qrorg+sljFebcckeZ5rlSWN3lzXU7RNbEyh5xrbfbOG1tMoR+YkHrTdklMkPwhlnNc5S3OukvZxPFiveimYx5BLzX3JmplhEtvpKJObUlVmX+Wt14U5oGukNH6/MLdtlDvNlmuchq2+21ZTTGrNYEGMZc9EmeD2aE3W4rj9ulUzKUw9XHM2r6SZUuVpMW0wb6yS5vMZ63tAUVazXvI4xD7k+za0Vo0pdVqrIrx/Fhlc8hRrVxtI3He4TxVdvP+9vWLLYRVUTZzkKycz9HkKtMBY7MtWsa8VJyZQ4bzFqo+T4NMb6OiqJJCVxqh04G0UpiqG9mRUiGlrJJa/yuF3WGeLSxtejS7lI6KOqYJUfarWEHMi47Y61qkRehXB4zW8t4vmpRBU0pIkSSRLkhZLCaFMXUJTJKVOn/aO0Vl9jC2CXsSvYdsk/UWol98NA0E18chdifZoZ24ikt5W9+O7mouZ7dqI6WM1eBcvmgwq/nKXMWnekdRVDq3In3sTTVOCH3WbJxiZIvuuTQlaaTIZ8Ob2dJoCGZmO6fWTHcNVsO9jYo6z0Rez8JucMdkvL6iqcFmX1G7PUHpqFjbEP2yxy7mEsLU/bun99q/GZfbu4POTUlpUtv9LKbfR9IKRsue98V/K3FvyzmftV/+34U4uhgepU12t+DtGJyu7mFfUX48mhm0Cvy+4rgopGW6Tg/NfGGnMl3qx3QLEGvODVrW+kjplAsV30tFv5KtUjim+Spa63r3SFfFyh5p+4phTFEl7cWzogjTTqeU2Kk4FaOdT7QrZx0OIlVbQ7rwdrCveTWvPQtxdDGC4ZRlJj4cQXXr/PGwTe53hv+PimuPb5gmCscpOXbTLsP0lFAnwb1lE9f4wyLAyxuoVS29Cr9U4Pu2lM1XcamgkVdvHRW3zqSt4mHMaN1ZV377f5GetaTWkk2pNJpX+OzKqQXr7+JIxdlz0a66Lw3SnYq7EEcX43gYJFQxdbL6sYrNh0vdP1Qxtv3Occq9exVNa/URHWfx0W3149I7DdtMYyW1fd+0JfV9QtshjlWcq7CfKBwVy1DFXUxd5UtbxRefp+GR1rljuy0p64WzovWgnNOYS7GpVG3FqOYsXqzPtIcqhiEOL4bHmlc2FctHk8WmG3amorg2+bTH76oYKTVcJ+a2w4GKZthGZfsl5QftfngXFS+y7s2wZCvDAdO1FxmqKCeTvPapq+J9FW2p4ruYW0Nw2zc1MibVfcsq5U7Fuz+iGpYzMjMR88hLoGLiCLhJuVcxCHF4MQJhOl9FcVMqzptbc6riOE1l3G7xb6uYKofoUEX90AztqjyYRrzu2/3wNipexKU0NvZiSQRtbTnJihcziOm3T10V0/XPLSv6Me9rxb47VVzcjQf1eucfP1LxsJxmKWy1Js99VtxUPMmKQYiTk3jvxOCreFvGcU4bqGWsmuhrDdRSqUdnEScq6hDXZjcu0z3/Ax+o+OSFb3ZAXyQHY4WhinXSX4KBDEfFKGyg7mKWu76ijdKvDcH9AKMX5bCcl7lLuAQP+orOMqGzvmIY4vQkziCk31cU1s1TFQc70PP7Kop1jnJ+eKKiKUUczBzeWBD+9iquPak+aT9VUXsXFX4tdVQUa15qT2Ju61jbYOR0a7DuK43vxVE5/eDOCGq7JEfh3SvOVNxCHJ5kfHTOsE3uqZhag05VXD8d4anoxvx82CZYiXSu4uXhZ0F/BkVcB8Zt3khF4Q9lmPq56xUV4VB+kbTBuL87mVEsVVxW6yRBENPOXax1XlzCBuu+s+iruIspwqRsbyB27mIdTrJO7lTchTi6GKO7hKWzpVxW25S289g5KnqrzZpFDpE5W8fdsphAxcFTqvOWBxxlRbkqnPldRfcTi7c/8aFIVPxd6qpe5uuX2if6aSGM3rIlhMW7SG4eJPtEkjpDKu3S2iyOY5bLHsUihVyWgUbVliXzsAHnq7iLWfRTAXTM5SZRzcMvW0x9ttJpi+9V3IU4uhjTmjMnzeRyHqyZG6jx/NGuq7NwTaemScv58g3zEzJXKj+OeaTiOLdJRWQ1zqdiDbfjrJjGD7nkai9/etdUuKvr4NtVnNZ+tsU22DEtD+2L3l1UKqskKQqntSYT14u2r8zyUf1Pb9POFLNfG367mLWZNCgquzzUzKhUhVmXXpVO7XPqSdqbJ/veX+jqxIz6KUSxLTHV0fWWfluDKvvliFYcqrgPcXQxHsqV6KpU3NyyeFjejk6p+PbQGS9XWbT5GjfNMqWvNVL50MTmiOE45pBpzBrSLLs6sppV4UuOS7PpoZon7PcqDkqprGmyaUWcl1sjr52Liu/UQDWfiDA61s6oxbQ6vHXetWieaahdg6WbNC12ofU0WSnva+rcxUz7aQpvra3tNKPinXSwS6qXTOssST+KKeZJmW2pQJXcp3L0pX/E+lL3DdQwxNHFiDIVO6Mmo6nQeRmta1CnteCd2W0tfWSyntm4PWgi/fqG45iPbapi7dnJaeOS7PTD27Ts/Bad9BXLZlpxnnmdwTIw70oD9d2GbaK0DLrvcvcVELJM5f+LGb7JYUxRlsHjNPKPyT/9HH8Y03sl07BNWI7os5fxCxejFMHz8vAUpbePE0SmcwQpT2MederL0bs+0Rh9cm3CixOM9lw6xcK3dxxBfUNk/qXv1PjsOwb+MbSJN/9qNiy9QcVfRORf+UpiVPTIdikw5gufUfGXXbyVqPgkxiHYUPLtGqj4GlDxYzpW3qDia+gLbvoftzm4BKgIgIoAgIoAqAgAqAiAigCAigCoCACoCICKAICKAKgIAO+sYjryW0EAb6DiY/1OFQD4RhXHIQ+/YhMAvqWv2PlfSwsA36NixK8HAaAiACoupPyQF8A7qHjl64QA3kHFLviNPQD4FhWH8LtoBbP+AN+g4i2YV0xj93dhAOBFKj6C72Nv3F8oAoBXqXjV5gkvS6IiwDeoeBliFWdbf7HM/B/ABIDXqFj6P2p7ufBTXgDfoGKpPexG9AP4ZhUfX/rBUAB4koo3fuYZ4D2yIioCvIGKQ/g7z+PAchuA16sYLgfv9KG4CPByFcfgU/y5PpQmK8DLVSyDPc1qm4GLCPBqFSOlvMU1Uh/Kr9QDvFzF8FP8qeKzxACvVlFE1yz46HCn1JVrCPBaFc3y0+DTiY3KWH0D8GIVu+YxBptiBm0AvqOvGFCqmI9IAXy/ihdB8xTgHVQEAFQEQEUAQEUAVAQAVARARQBARQBUBABUBEBFAEBFAFQEAFQEQEVUBEBFAEBFAFQEAFQEQEUAQEUAVAQAVARARQBARQBUBABUBEBFAEBFAFQEAFQEQEUAQEUAVAQAVAT4rx07wAAgBMIwGoXYpcWo+990t9UdBt5DB/j5DEkRkCJIEZAiSBGQIkgRkCJIEUhLsVkCMrWT4jAFZBonxWUKyLROis4iZB/FXur3XFqEvBKv3nstcwfZ1/B3AwnaWH+Cs8TdgWR3lIjHDpDriZ1izGoKyFNnRLz0VF9h7sEiLAAAAABJRU5ErkJggg==;" vertex="1" parent="BmrX_kal2ZN71QC47XM--1">
          <mxGeometry x="280" y="119.99999999999999" width="706" height="565.74" as="geometry" />
        </mxCell>
        <mxCell id="xuVwKqHHiJxzL3PFqhzl-1" style="edgeStyle=orthogonalEdgeStyle;rounded=0;orthogonalLoop=1;jettySize=auto;html=1;exitX=0;exitY=0.5;exitDx=0;exitDy=0;entryX=1;entryY=0.5;entryDx=0;entryDy=0;fontSize=17;fillColor=#ffe6cc;strokeColor=#d79b00;strokeWidth=4;" edge="1" parent="BmrX_kal2ZN71QC47XM--1" source="4WyHNHfLNTfu3veW1oAV-0" target="xuVwKqHHiJxzL3PFqhzl-0">
          <mxGeometry relative="1" as="geometry" />
        </mxCell>
        <mxCell id="4WyHNHfLNTfu3veW1oAV-0" value="Output!" style="rounded=0;whiteSpace=wrap;html=1;shadow=1;fillColor=#ffe6cc;fontSize=25;strokeColor=#d79b00;" vertex="1" parent="BmrX_kal2ZN71QC47XM--1">
          <mxGeometry x="1020" y="150" width="250" height="47" as="geometry" />
        </mxCell>
        <mxCell id="xuVwKqHHiJxzL3PFqhzl-0" value="" style="rounded=0;whiteSpace=wrap;html=1;shadow=0;fontSize=16;strokeColor=#d79b00;fillColor=none;" vertex="1" parent="BmrX_kal2ZN71QC47XM--1">
          <mxGeometry x="393" y="158.5" width="97" height="30" as="geometry" />
        </mxCell>
        <mxCell id="xuVwKqHHiJxzL3PFqhzl-5" style="edgeStyle=orthogonalEdgeStyle;rounded=0;orthogonalLoop=1;jettySize=auto;html=1;exitX=0;exitY=0.5;exitDx=0;exitDy=0;entryX=1;entryY=0.5;entryDx=0;entryDy=0;strokeWidth=4;fontSize=17;fillColor=#ffe6cc;strokeColor=#d79b00;" edge="1" parent="BmrX_kal2ZN71QC47XM--1" source="xuVwKqHHiJxzL3PFqhzl-3" target="xuVwKqHHiJxzL3PFqhzl-4">
          <mxGeometry relative="1" as="geometry" />
        </mxCell>
        <mxCell id="xuVwKqHHiJxzL3PFqhzl-3" value="Output!" style="rounded=0;whiteSpace=wrap;html=1;shadow=1;fillColor=#ffe6cc;fontSize=25;strokeColor=#d79b00;" vertex="1" parent="BmrX_kal2ZN71QC47XM--1">
          <mxGeometry x="1020" y="350" width="250" height="47" as="geometry" />
        </mxCell>
        <mxCell id="xuVwKqHHiJxzL3PFqhzl-4" value="" style="rounded=0;whiteSpace=wrap;html=1;shadow=0;fontSize=16;strokeColor=#d79b00;fillColor=none;" vertex="1" parent="BmrX_kal2ZN71QC47XM--1">
          <mxGeometry x="380" y="356.5" width="170" height="30" as="geometry" />
        </mxCell>
      </root>
    </mxGraphModel>
  </diagram>
  <diagram id="AHfGq5t8VM1WAag58511" name="08 - io">
    <mxGraphModel dx="546" dy="269" grid="1" gridSize="10" guides="1" tooltips="1" connect="1" arrows="1" fold="1" page="1" pageScale="1" pageWidth="1920" pageHeight="1200" math="0" shadow="0">
      <root>
        <mxCell id="VclU1Rj4VgNV2Y6lDcK6-0" />
        <mxCell id="VclU1Rj4VgNV2Y6lDcK6-1" parent="VclU1Rj4VgNV2Y6lDcK6-0" />
        <mxCell id="so6oVOCtaAAlFVI22LdN-0" value="default search term" style="rounded=0;whiteSpace=wrap;html=1;shadow=1;fillColor=#ffe6cc;fontSize=17;strokeColor=#d79b00;" vertex="1" parent="VclU1Rj4VgNV2Y6lDcK6-1">
          <mxGeometry x="670" y="280" width="220" height="40" as="geometry" />
        </mxCell>
        <mxCell id="so6oVOCtaAAlFVI22LdN-1" value="If you give me a" style="text;html=1;strokeColor=none;fillColor=none;align=center;verticalAlign=middle;whiteSpace=wrap;rounded=0;shadow=1;fontSize=17;" vertex="1" parent="VclU1Rj4VgNV2Y6lDcK6-1">
          <mxGeometry x="680" y="240" width="180" height="20" as="geometry" />
        </mxCell>
        <mxCell id="so6oVOCtaAAlFVI22LdN-2" value="I will give you" style="text;html=1;strokeColor=none;fillColor=none;align=center;verticalAlign=middle;whiteSpace=wrap;rounded=0;shadow=1;fontSize=17;" vertex="1" parent="VclU1Rj4VgNV2Y6lDcK6-1">
          <mxGeometry x="680" y="340" width="180" height="20" as="geometry" />
        </mxCell>
        <mxCell id="so6oVOCtaAAlFVI22LdN-4" value="a way to search for videos" style="rounded=0;whiteSpace=wrap;html=1;shadow=1;fillColor=#ffe6cc;fontSize=17;strokeColor=#d79b00;" vertex="1" parent="VclU1Rj4VgNV2Y6lDcK6-1">
          <mxGeometry x="670" y="380" width="220" height="40" as="geometry" />
        </mxCell>
        <mxCell id="so6oVOCtaAAlFVI22LdN-3" value="a list of videos" style="rounded=0;whiteSpace=wrap;html=1;shadow=1;fillColor=#ffe6cc;fontSize=17;strokeColor=#d79b00;" vertex="1" parent="VclU1Rj4VgNV2Y6lDcK6-1">
          <mxGeometry x="670" y="420" width="220" height="40" as="geometry" />
        </mxCell>
      </root>
    </mxGraphModel>
  </diagram>
</mxfile>
